<?xml version="1.0" encoding="utf-8"?>
<!-- Generator: Adobe Illustrator 23.0.4, SVG Export Plug-In . SVG Version: 6.00 Build 0)  -->
<svg version="1.1" id="Layer_3" xmlns="http://www.w3.org/2000/svg" xmlns:xlink="http://www.w3.org/1999/xlink" x="0px" y="0px"
	 viewBox="0 0 678.5 218.5" style="enable-background:new 0 0 678.5 218.5;" xml:space="preserve">
<style type="text/css">
	.st0{fill:#222222;}
	.st1{fill-rule:evenodd;clip-rule:evenodd;fill:#222222;}
	.st2{opacity:0.74;fill:#222222;enable-background:new    ;}
</style>
<g>
	<path class="st0" d="M104.9,101.2l-17.1,0c0,0-0.5-2,1.2-3c1.7-1,4-2.2,2.9-5.4c0,0,1.8-0.6,4.2,3c0,0-0.4-2.5,0.3-5.4
		c0.7-2.7,2.2-3.6,2.2-3.6s1,2.2,3,3.9c2.4,2.1,3.3,2.4,3.7,6.1C105.5,100.4,104.9,101.2,104.9,101.2z"/>
	<path class="st0" d="M125.6,92c0,0,2.8-0.6,3.7-4c0,0,4.2,4.1,2.9,10c0,0,2.3-0.7,3-2.1c1.3-2.9,2.6-4.8,4.1-4.6
		c0,0-0.6,2.8,1.7,6.3c1.9,2.9,3.6,3.7,3.6,3.7l-37.1,0c0,0,0.9-3.9-0.1-6.8c-1-2.9-2.3-4.6-2.3-4.6c-0.1-1,0.3-3.3,1.3-4.5
		c1-1.2,2.4-3.8,2.5-5.8c0,0,3,2.4,5,9.7c0,0,0.7-3.5,2.7-5.6c1.1-1.1,2.4-1.6,2.4-1.6S120.2,86.8,125.6,92z"/>
	<path class="st0" d="M127.1,34.6c0,0,2.7-4.6,5.9-7.5c7.5-6.6,13.7-6.4,21.7,0.4l61.7,60.3c3,3.1,8.6,9.3,11.3,9.9
		c0,0-5.4,1.2-10.8-1.1c-4.4-1.9-9.6-7.6-9.6-7.6l-47.5-47.9c0,0-1.1-1.4-2.4-0.3c-1.2,1.1,0.2,2.4,0.2,2.4l51.8,51.3
		c0,0,3.1,2.7,6.5,3.4c0,0-5.7,1.4-13.6-2.7c0,0-3.2-2.3-5.7-4.8C194.1,88,156,49.6,156,49.6s-1.2-1-2.2,0.1
		c-1.1,1.1,0.3,2.7,0.3,2.7l41.8,41.3c0,0,2.1,2.2,5.5,3.4c0,0-7.8,0.5-12.6-3C184,90.5,150.9,57,150.9,57s-1.4-0.9-2.2,0.1
		c-0.8,1-0.1,2.1-0.1,2.1l32.3,31.3c0,0,2.8,2.7,6.6,4.6c0,0-6.3,0.6-12.8-3.6c-5-3.2-28.3-26.8-28.3-26.8s-1.5-1.9-2.8-0.4
		c-1.2,1.3,0.9,2.8,0.9,2.8s22.2,23.6,26,23.6c0,0-5.1,0.9-20-8.9c-11.6-7.7-15.9-16.1-15.9-16.1S136.7,54.2,127.1,34.6z"/>
	<path class="st1" d="M136.2,72.2c0,0,0.7,1.9-2.5,3.3c-2.6,1.1-3.3,5.6-5.7,6.6c0,0-3.2-3.9-3.1-8.6c0-1.3,0.7-5.5,0.7-5.5
		s-2.9,0-6.3,1.8c-1.3,0.7-3.3,2.7-3.3,2.7s1-1.8,0.5-3.8c-1.3-5.7-4.2-6.6-4.2-6.6s0.1,1.7-2,4.2c-2.1,2.5-2.6,1.9-5.1,4.4
		c-2.5,2.5-4.3,8.3-4.3,8.3s-1.1-1.8-1.9-3c-1.8-2.7-3.7-2.9-3.7-2.9S97,75.8,93,79c-3.5,2.8-0.9,8.1-0.9,8.1s-2.5-0.8-5.7-0.2
		c0,0-0.4-0.3-0.5-1.7c-0.1-0.9,0.8-2.1,0.8-2.1s-0.6-0.6-2.6,0.7c-1.5,1-2.1,2.1-4.1,7c-1.1,2.7-2,5.6-4.3,5.6c0,0-1.4-0.3-2.2-2.3
		c-0.9-2.3-0.3-3.9-0.3-3.9s-4.8,2.5-4.8,6.3c0,3.8,2.7,4.7,2.7,4.7l13.2-0.1c0-2.6,2.2-4.7,3.6-5.2c0.3-0.1,1.1-1,1.2-2.2
		c0.2-2.7-1.6-4-1.6-4c3.7-1.2,6.4,0.9,6.4,0.9c-0.1-1.6,0.6-3.1,1.6-4.7c1.5-2.4,4.4-2.2,4.4-2.2c-0.6,2.3,2.9,5,2.9,5
		c0-2.5,1.5-5,2.9-6.8c1.6-2,0.3-6.6,0.3-6.6c4.8,2,7.6,8.5,7.6,8.5c2.5-4.3,6.6-4.5,6.6-4.5s0.2,2.4,1.6,4.9
		c1.4,2.6,3.6,5.2,3.6,5.2c2.1-0.9,2.5-4.8,2.5-4.8s1.7-0.3,4,3c1.4,2,2.2,5.7,2.2,5.7s1.9-4.4,5.1-4.1c1.4,0.1,2.5,0.3,2.5,0.3
		s-0.8,1-0.8,3.1c0,4.6,6.3,9,6.3,9l14,0.1c0,0,2.2-1.2,2.2-4.3c0-5.4-3.9-6.8-3.9-6.8c0.4,4.3-2.6,4.6-2.6,4.6s0-1.5-0.7-2.5
		c-0.7-1-2-1.8-3.4-3c-2.1-1.8-1-4.3-1-4.3c-3.9-0.7-3.5,5.6-3.5,5.6s-2.9-2.4-3.6-5.6c-0.6-2.8,1.9-3.1,1.9-3.1s-1.1-2.3-3.7-2.1
		c-2.5,0.2-4.7,3.2-4.7,3.2C140.1,77.1,136.2,72.2,136.2,72.2z"/>
	<path class="st1" d="M124,9.9c0,0-0.6,1.6-2.5,0.4c-1-0.6-1.3-2-1.3-2s1.3-0.3,2.6,0C123.7,8.4,124.2,9.2,124,9.9l4.5,0.1
		c0,0-1.1-4.8-6.7-5.2c-5.6-0.4-8.6-0.1-8.6-0.1S111,4.9,110,3.2c-1-1.7-0.7-2.4-0.7-2.4s-3.3,2.1-3.3,6c0,2.6,1.8,4.6,1.8,4.6
		s-5.1,8.6-6,15.4c0,0,6.9,7.2,7.2,15.9h-1.8c-0.7-2.5,0.2-8.4-8.4-15.4c-9.1-7.4-18.7-3.1-24,1.6L12.5,92.3c0,0-4.9,5.8-8.2,6.1
		c0,0,5.8,1.1,11.2-1.2c4.4-1.9,9.5-7.3,9.5-7.3l46.7-47.4c0,0,1.1-1.3,2.3-0.1c1.1,1.1,0,2.2,0,2.2L22.6,95.2c0,0-2.2,2.5-5.6,3.3
		c0,0,9,0.3,13.1-2.7c0,0,3.1-2.1,5.6-4.6c2.5-2.5,40.5-40.6,40.5-40.6s1.4-0.6,2,0.4c0.7,1-0.1,2-0.1,2L36.7,93.9
		c0,0-5.5,3.8-6.3,3.8c0,0,8.4,0.8,13.2-2.7c4.8-3.5,38.5-37.3,38.5-37.3s1-0.8,2,0.4c0.8,1-0.2,1.9-0.2,1.9l-32.6,32
		c0,0-5.1,4-6.5,4c0,0,8.6-0.7,13.6-3.8c5-3.2,30.4-29,30.4-29s0.9-0.9,1.9,0c1.2,1,0.2,2.1,0.2,2.1S68.4,89.5,62.5,91.2
		c0,0,5.7,0.6,20-8.9c8.8-5.8,13.3-12.2,13.3-12.2s2,0.3,4.3,3.8c0,0,1.7-4.2,5-6.7c3.3-2.5,2.7-2,4-3.4c1.3-1.4,1.3-5,1.3-5
		s3.7,0.2,5.9,3.3c2.2,3.1,2.1,5.5,2.1,5.5s2.9-2.3,6.1-2.6c2-0.1,3.3-0.1,3.3-0.1s-0.5,3.2-0.6,6c-0.3,5.6,1,7.2,1,7.2
		s5-7.2,4.1-17.4c-0.9-10.2-3.3-17.1-7.4-25.1c-4.2-8-3.9-8.1-3.9-11.5c0-3.8,0.4-7.7,8.1-7.8c7.7-0.1,8.4,2.6,8.4,2.6l0,0
		c0.8-11.5-9.1-9.1-9.1-9.1L124,9.9z"/>
	<g>
		<path class="st0" d="M322.8,102.5l-7.5-21.2h-38.4l-7.5,21.2h-12.6l33-90.4h13.7l33.2,90.4H322.8z M300,38.2
			c-1.6-4.4-2.8-8.4-3.9-12.3h-0.3c-1.1,3.9-2.3,7.9-3.8,12.2l-12.1,33.5h32L300,38.2z"/>
		<path class="st0" d="M383.3,103.6c-29.1,0-41.1-18.5-41.1-44.1c0-27.6,13.7-48.2,44.2-48.2c7,0,14.3,0.9,20.8,2.8l-2,11.3
			c-6.3-2.1-13.3-3.5-20.1-3.5c-20.6,0-29.5,15.8-29.5,35.6c0,22.2,9.6,35.1,30.7,35.1c6.6,0,14.5-1.9,19.8-4.5l2,10.7
			C401.3,101.6,392.4,103.6,383.3,103.6z"/>
		<path class="st0" d="M441.6,103.7c-7.4,0-14.2-0.9-19.8-2.5l1.5-11.8c5.8,2.3,12.3,3.6,19,3.6c10.4,0,19.6-4.3,19.6-15.4
			c0-20.4-40.9-12.3-40.9-41.1c0-14.9,11.3-25.6,31.6-25.6c5.2,0,11.2,0.5,16.3,1.7l-1.5,10.9c-4.8-1.5-10.3-2.4-15.5-2.4
			c-12.3,0-18.2,5.5-18.2,14.1c0,19.6,41.4,12.5,41.4,40.8C475.1,92.2,461.8,103.7,441.6,103.7z"/>
	</g>
	<path class="st0" d="M275,176.5c-11.8,0-17.7-7.3-17.7-19.4c0-11.8,5.5-21,19-21c3.1,0,6.5,0.5,9.4,1.3l-0.7,3.5
		c-3-1.1-6.3-1.6-9.6-1.6c-10.1,0-14.2,7.9-14.2,17.2c0,10.6,4.7,16.8,14.8,16.8c3.2,0,6.9-0.9,9.5-2.2l0.8,3.2
		C283.3,175.6,279.3,176.5,275,176.5z"/>
	<path class="st0" d="M311.4,176.1v-18.9c0-4.9-1.3-7.7-5.9-7.7c-5.5,0-9.4,5.3-9.4,12.7v13.9h-3.7v-42.8h3.7v14.7
		c0,2-0.1,4.3-0.5,5.8l0.1,0.1c1.7-4.5,5.5-7.4,10.6-7.4c6.7,0,8.8,4.2,8.8,9.3v20.3L311.4,176.1L311.4,176.1z"/>
	<path class="st0" d="M344.8,160.4H325c-0.4,9.3,3.2,13.1,10,13.1c2.8,0,5.7-0.6,8.2-1.7l0.7,3.1c-2.8,1.1-6.1,1.8-9.7,1.8
		c-8.5,0-13.1-4.7-13.1-14.9c0-8.7,4.7-15.1,12.6-15.1c7.9,0,11.2,5.5,11.2,11.7C344.9,158.7,344.9,159.4,344.8,160.4z M333.4,149.3
		c-4.3,0-7.4,3.1-8.2,8.2h15.7C341.1,152.6,338.2,149.3,333.4,149.3z"/>
	<path class="st0" d="M388.2,176.1v-18.9c0-4.7-1.1-7.7-5.6-7.7c-4.8,0-9.3,4.8-9.3,12.8v13.8h-3.7v-18.9c0-4.2-0.8-7.7-5.6-7.7
		c-5.1,0-9.2,5.3-9.2,12.8v13.8h-3.7V147h3.8c0,2-0.2,4.9-0.5,6.8l0.1,0.1c1.6-4.5,5.5-7.3,10.4-7.3c6.9,0,8.1,5.1,8.1,7.2
		c1-2.8,4.2-7.2,10.3-7.2c5.5,0,8.6,2.8,8.6,9.4v20.2L388.2,176.1L388.2,176.1z"/>
	<path class="st0" d="M402.7,140.2c-1.5,0-2.6-1.2-2.6-2.6c0-1.5,1.2-2.6,2.6-2.6c1.5,0,2.6,1.1,2.6,2.6
		C405.4,139,404.2,140.2,402.7,140.2z M400.8,176.1V147h3.7v29.1H400.8z"/>
	<path class="st0" d="M417.8,176.6c-2.2,0-4.7-0.2-6.5-0.8l0.5-3.5c1.9,0.7,4.4,1.1,6.6,1.1c4.3,0,7.5-2,7.5-5.3
		c0-7.6-14.8-2.8-14.8-13.2c0-4.8,3.8-8.3,11-8.3c1.9,0,4.1,0.2,5.9,0.6l-0.5,3.2c-1.8-0.5-3.9-0.9-5.9-0.9c-4.5,0-6.7,1.9-6.7,5
		c0,7.6,14.8,2.9,14.8,13.1C429.7,172.6,425.3,176.6,417.8,176.6z"/>
	<path class="st0" d="M444.8,176.5c-5.7,0-7.3-2.6-7.3-8.4v-18.2h-6.6V147h6.6v-9.9l3.7-1V147h9v2.9h-9v16.4c0,5.6,1,7,4.6,7
		c1.5,0,2.9-0.2,4-0.5l0.5,3.2C448.7,176.3,446.6,176.5,444.8,176.5z"/>
	<path class="st0" d="M469.1,150.2c-6.6-1.1-9.8,4.2-9.8,14.4v11.6h-3.7V147h3.8c0,2-0.2,5-0.8,7.6l0.1,0.1
		c1.1-4.3,4.2-8.9,10.5-8.1L469.1,150.2z"/>
	<path class="st0" d="M483.1,179.1c-3.4,8.9-6.7,12.2-13.1,12.2c-0.9,0-2.1-0.2-2.9-0.4l0.4-3.4c0.9,0.3,2.3,0.5,3.3,0.5
		c3.5,0,6-1.8,8.5-8.3l1.4-3.6L469.4,147h4.3l6.6,17.9c1,2.7,1.6,4.6,2.2,6.7h0.1c0.5-1.8,1.7-5.3,2.9-8.8l5.6-15.8h4L483.1,179.1z"
		/>
	<path class="st0" d="M526.3,136.7c-1.5-0.5-3.2-0.6-4.8-0.6c-4.8,0-6.9,2.8-6.9,8.8v2.1h9v2.9h-9v26.2H511v-26.2h-6.7V147h6.7v-2
		c0-8.1,4.1-12,10.8-12c1.7,0,3.2,0.2,4.8,0.5L526.3,136.7z"/>
	<path class="st0" d="M536,176.6c-7.7,0-12.7-4.7-12.7-14.9c0-8.1,4.9-15.1,13.7-15.1c6.8,0,12.7,3.8,12.7,14.6
		C549.7,169.6,544.6,176.6,536,176.6z M536.6,149.5c-4.8,0-9.4,3.7-9.4,11.8c0,7.7,3.4,12.2,9.4,12.2c4.8,0,9.3-3.7,9.3-12.2
		C545.9,154,542.7,149.5,536.6,149.5z"/>
	<path class="st0" d="M584.5,176.1v-39.6h3.8V173h15.1v3.1H584.5z"/>
	<path class="st0" d="M609,140.2c-1.5,0-2.6-1.2-2.6-2.6c0-1.5,1.2-2.6,2.6-2.6c1.5,0,2.6,1.1,2.6,2.6
		C611.6,139,610.4,140.2,609,140.2z M607.1,176.1V147h3.7v29.1H607.1z"/>
	<path class="st0" d="M636.4,136.7c-1.5-0.5-3.2-0.6-4.7-0.6c-4.8,0-6.9,2.8-6.9,8.8v2.1h9v2.9h-9v26.2h-3.7v-26.2h-6.7V147h6.7v-2
		c0-8.1,4.1-12,10.8-12c1.7,0,3.2,0.2,4.8,0.5L636.4,136.7z"/>
	<path class="st0" d="M657.1,160.4h-19.8c-0.3,9.3,3.2,13.1,10,13.1c2.8,0,5.7-0.6,8.2-1.7l0.7,3.1c-2.8,1.1-6.1,1.8-9.7,1.8
		c-8.5,0-13.1-4.7-13.1-14.9c0-8.7,4.7-15.1,12.6-15.1c7.9,0,11.2,5.5,11.2,11.7C657.3,158.7,657.3,159.4,657.1,160.4z M645.8,149.3
		c-4.3,0-7.4,3.1-8.2,8.2h15.7C653.4,152.6,650.6,149.3,645.8,149.3z"/>
	<path class="st2" d="M107.3,132.5"/>
	<path class="st1" d="M2.3,102.9h226.5L114.7,216.1L2.3,102.9z M107.1,191.2c1.6,1.6,4.4,2.4,8.5,2.4c2.3,0,4.3-0.3,5.8-1
		c1.5-0.7,2.7-1.7,3.6-3c0.9-1.3,1.3-2.7,1.3-4.3c0-1.3-0.3-2.5-1-3.6c-0.6-1.1-1.7-2-3.1-2.7c-1.4-0.7-3.7-1.4-7-2.1
		c-1.3-0.3-2.2-0.6-2.5-0.9c-0.4-0.3-0.5-0.7-0.5-1c0-0.5,0.2-1,0.7-1.3c0.4-0.4,1.1-0.6,2-0.6c1.1,0,1.9,0.3,2.5,0.7
		c0.6,0.5,0.8,1,1,2.1l7.2-0.1c-0.3-2.5-1.3-4.3-2.9-5.5c-1.6-1.1-4-1.7-7-1.7c-2.5,0-4.5,0.3-5.9,0.9c-1.4,0.6-2.5,1.5-3.2,2.6
		c-0.7,1.1-1.1,2.3-1.1,3.5c0,1.9,0.7,3.4,2.1,4.7c1.4,1.2,3.7,2.2,7,2.9c2,0.4,3.3,0.9,3.8,1.4c0.5,0.5,0.8,1,0.8,1.7
		c0,0.7-0.3,1.2-0.9,1.7c-0.6,0.5-1.4,0.7-2.5,0.7c-1.4,0-2.5-0.5-3.3-1.5c-0.5-0.6-0.6-0.8-0.7-1.9l-7.3-0.3
		C104.6,187.6,105.5,189.6,107.1,191.2z M162.7,136.7c-4,0-4.7-3.1-4.7-6.5c0-4.6,1.6-6.9,4.4-6.9c2.4,0,4,1.4,4.2,3.9h7.4
		c-0.6-6.1-4.7-9.7-12-9.7c-6.6,0-11.9,4.8-11.9,12.5c0,7.7,4.8,12.6,12.6,12.6c6.3,0,10.7-3.7,11.4-9.8h-7.5
		C166.4,135,165.3,136.7,162.7,136.7z M72.9,118.2l8.5,23.8h-7.8l-0.9-3.1H65l-0.9,3.1h-7.6l8.5-23.8L72.9,118.2L72.9,118.2z
		 M71.4,133.9l-2.5-8.5l-2.4,8.5H71.4z M130.7,112.1h-12l-2.4,1.6l2.7,4.4c0,0,0.8-0.9,1.8-0.9c1,0,9.8,0.1,9.8,0.1V112.1z
		 M100,112.2v5.2l9.5-0.1l11.3,17l-0.7,1.5L120,137l0,0.8l0.1,0.7l0.2,0.7l0.2,0.6l0.3,0.5l0.3,0.4l0.5,0.5l0.4,0.4l0.4,0.3l0.4,0.3
		l0.5,0.3l0.7,0.3l0.6,0.1l0.6,0.1l0.4,0l0.6,0l0.3,0l6.8,10.3l0.2,0.4l-0.2,0.4l-0.4,0.1h-1.1l-0.9-0.9l-0.5-0.3l-0.6-0.3l-0.5-0.2
		l-0.9-0.2h-0.9l-0.7,0.1l-0.8,0.3l-0.7,0.4l-0.6,0.5l-0.3,0.3l-0.3,0.4h-4.7l-0.4-0.5l-0.5-0.5l-0.6-0.4l-0.8-0.3l-0.8-0.2
		l-0.8-0.1l-0.8,0.1l-0.8,0.2l-0.7,0.3l-0.6,0.4l-0.5,0.4l-0.5,0.6h-4.7l-1-1l-0.7-0.4l-0.6-0.2l-0.8-0.2l-0.8-0.1l-0.9,0.1
		l-0.8,0.2l-0.7,0.3l-0.7,0.4l-0.5,0.5l-0.4,0.4h-2.3l-0.6-0.4l-0.1-0.4v-0.6l0.3-0.5l0.8-1.1l0.7-1l5.1-7.4l0.8,0.1l0.7,0l0.8-0.1
		l0.8-0.2l0.8-0.4l0.7-0.4l0.7-0.6l0.7-0.9l0.4-0.7l0.3-1l0.1-0.9l0-0.9l-0.1-0.8l-0.2-0.7l-0.2-0.5l-0.2-0.3l4.7-6.9l-3.5-4
		l-5.7,8.2l-0.6,0l-1,0.1l-0.8,0.2l-0.6,0.3l-0.7,0.4l-0.8,0.7l-0.6,0.7l-0.4,0.7l-0.3,0.8l-0.2,1.1l0,1l0.1,0.7l0.2,0.6l0.3,0.7
		l-9.2,13.5l-0.4,0.9l-0.2,0.7v0.8l0.1,0.7l0.4,0.8l0.6,0.7l0.7,0.5l0.7,0.4l0.7,0.3l0.8,0.2l0.8,0.2h4.8l0.4,0.6l0.6,0.6l0.6,0.4
		l0.7,0.3l0.8,0.2l0.7,0.1h0.6l1-0.2l0.7-0.3l0.7-0.4l0.8-0.7l0.5-0.7l4.3-0.1l0.5,0.7l0.5,0.5l0.6,0.4l0.8,0.4l1,0.3l0.8,0.1l1-0.1
		l0.8-0.2l0.6-0.3l0.8-0.6l0.5-0.5l0.4-0.6l4.2,0l0.5,0.7l0.5,0.4l0.5,0.4l0.7,0.4l0.8,0.3l0.9,0.1l0.9,0l1-0.3l0.8-0.4l0.7-0.5
		l0.5-0.5l0.4-0.6l4.1,0l0.8-0.2l0.9-0.4l0.6-0.4l0.6-0.4l0.5-0.6l0.4-0.9l0.1-0.6l0-0.7l-0.2-0.8l-0.3-0.7l-0.4-0.8l-8.5-13.1
		l0.3-0.6l0.3-0.8l0.1-0.6l0-0.7l-0.1-0.9l-0.2-0.8l-0.3-0.8l-0.2-0.4l-0.4-0.6l-0.5-0.5l-0.5-0.5l-0.6-0.4l-0.7-0.4l-0.6-0.2
		l-0.7-0.1l-0.6-0.1l-0.4,0h-0.3l-11.2-17.2l-0.4-0.7l-0.4-0.5l-0.4-0.4l-0.4-0.3l-0.7-0.3l-0.5-0.1L100,112.2z"/>
	<g>
		<path class="st0" d="M670.1,147.3c-4.8,0-8.4-3.7-8.4-8.4c0-4.6,3.8-8.4,8.4-8.4c4.8,0,8.4,3.7,8.4,8.4
			C678.5,143.4,674.6,147.3,670.1,147.3z M670.1,132.3c-3.6,0-6.5,2.9-6.5,6.6c0,3.6,2.9,6.7,6.5,6.7c3.6,0,6.5-2.9,6.5-6.6
			C676.6,135.3,673.7,132.3,670.1,132.3z M671.6,143.4l-2.6-4.1h-0.1v4.1h-1.6v-9.3h2.8c2.2,0,3.1,1,3.1,2.4c0,1.6-1,2.5-2.4,2.7
			c0.2,0.2,0.6,0.8,0.9,1.3l1.9,3H671.6z M670,135.5h-1v2.8h0.6c1.5,0,2-0.8,2-1.6C671.5,135.9,671.1,135.5,670,135.5z"/>
	</g>
	<path class="st0" d="M569.1,150.2c-6.6-1.1-9.8,4.2-9.8,14.4v11.6h-3.7V147h3.8c0,2,0.2,5-0.3,7.6l-0.3,0.1
		c1.1-4.3,4.2-8.9,10.5-8.1L569.1,150.2z"/>
</g>
</svg>
