<svg version="1" id="Layer_1" xmlns="http://www.w3.org/2000/svg" viewBox="0 0 425 426"><style>.st0{opacity:.35;fill:#fff}</style><g id="XMLID_1_"><path id="XMLID_2_" class="st0" d="M110 152c5-9 11-17 19-24L66 59c-16 15-29 33-40 52l84 41z"/><path id="XMLID_3_" class="st0" d="M262 104c10 4 18 10 26 16l63-68c-16-15-35-26-55-35l-34 87z"/><path id="XMLID_4_" class="st0" d="M407 124l-83 42c4 9 6 19 7 29l93-8c-2-22-8-43-17-63"/><path id="XMLID_5_" class="st0" d="M317 154l83-42c-10-19-23-36-39-51l-63 68c7 8 14 16 19 25"/><path id="XMLID_6_" class="st0" d="M93 213v-6l-93-8a213 213 0 0 0 6 66l90-26c-2-8-3-17-3-26"/><path id="XMLID_7_" class="st0" d="M306 289c-6 8-14 16-22 22l48 79c19-12 35-27 48-45l-74-56z"/><path id="XMLID_8_" class="st0" d="M332 213l-2 26 89 25a211 211 0 0 0 6-64l-93 9v4"/><path id="XMLID_9_" class="st0" d="M122 291l-74 56c14 17 30 32 48 44l49-79c-9-6-16-13-23-21"/><path id="XMLID_10_" class="st0" d="M95 194c1-10 4-20 8-30l-83-41c-9 19-15 40-18 63l93 8z"/><path id="XMLID_11_" class="st0" d="M321 397l-49-79c-9 5-18 9-28 11l17 92c21-5 42-13 60-24"/><path id="XMLID_12_" class="st0" d="M327 252c-3 9-7 18-13 26l74 56c13-17 22-36 29-57l-90-25z"/><path id="XMLID_13_" class="st0" d="M231 332a124 124 0 0 1-32 1l-17 91a214 214 0 0 0 66 0l-17-92z"/><path id="XMLID_14_" d="M221 93l30 6 33-87c-20-7-41-11-63-12v93z" fill="#fff"/><path id="XMLID_15_" class="st0" d="M186 330c-10-2-20-6-30-11l-48 79c18 11 39 19 61 24l17-92z"/><path id="XMLID_16_" class="st0" d="M177 99c10-4 20-5 30-6V0c-22 1-43 5-63 12l33 87z"/><path id="XMLID_17_" class="st0" d="M114 280c-6-8-11-18-15-28l-89 26c7 21 17 41 30 59l74-57z"/><path id="XMLID_18_" class="st0" d="M139 119c8-6 16-12 25-16l-33-87c-20 9-39 20-55 34l63 69z"/></g></svg>