<?xml version="1.0" encoding="utf-8"?>
<!-- Generator: Adobe Illustrator 23.0.4, SVG Export Plug-In . SVG Version: 6.00 Build 0)  -->
<svg version="1.1" id="Layer_1" xmlns="http://www.w3.org/2000/svg" xmlns:xlink="http://www.w3.org/1999/xlink" x="0px" y="0px"
	 viewBox="0 0 425.4 426.3" style="enable-background:new 0 0 425.4 426.3;" xml:space="preserve">
<style type="text/css">
	.st0{opacity:0.35;fill:#FFFFFF;}
	.st1{fill:#FFFFFF;}
</style>
<g id="XMLID_1_">
	<path id="XMLID_2_" class="st0" d="M109.5,152.3c5.3-9,11.7-17.3,19.1-24.6L66,59c-15.8,15.1-29.2,32.5-39.8,51.8L109.5,152.3z"/>
	<path id="XMLID_3_" class="st0" d="M262.1,103.8c9.5,4.3,18.3,9.9,26.3,16.5l62.8-68.6c-16.6-14.3-35.3-26-55.7-34.7L262.1,103.8z"
		/>
	<path id="XMLID_4_" class="st0" d="M407,124.4L323.7,166c4,9.3,6.8,19.1,7.3,29.4l92.6-8.7C422,164.7,415.9,143.8,407,124.4"/>
	<path id="XMLID_5_" class="st0" d="M316.8,153.9l83.3-41.5c-10.3-19.2-23.5-36.6-38.9-51.7l-62.8,68.6
		C305.4,136.7,311.7,144.9,316.8,153.9"/>
	<path id="XMLID_6_" class="st0" d="M93,213.1c0-1.9,0.1-3.7,0.1-5.6l-92.7-8.3c-0.3,4.6-0.5,9.2-0.5,13.9c0,17.8,2.2,35,6.3,51.5
		L95.8,239C94,230.6,93,222,93,213.1"/>
	<path id="XMLID_7_" class="st0" d="M306.1,289.3c-6.6,8-14.2,15.2-22.6,21.3l48.9,79.2c18.2-12.3,34.3-27.3,47.9-44.5L306.1,289.3z
		"/>
	<path id="XMLID_8_" class="st0" d="M332.4,213.1c0,8.8-0.9,17.3-2.8,25.6l89.5,25.7c4.1-16.4,6.3-33.6,6.3-51.3
		c0-4.4-0.1-8.7-0.4-13.1l-92.6,8.7C332.3,210.2,332.4,211.6,332.4,213.1"/>
	<path id="XMLID_9_" class="st0" d="M121.8,291l-74.1,56.3c13.8,17,30.1,31.7,48.4,43.8L145,312C136.4,306,128.5,299,121.8,291"/>
	<path id="XMLID_10_" class="st0" d="M94.5,194.1c1.7-10.5,4.7-20.5,8.9-29.9l-83.2-41.5c-9.2,19.6-15.5,40.8-18.4,63L94.5,194.1z"
		/>
	<path id="XMLID_11_" class="st0" d="M321,396.9l-48.9-79.1c-8.9,5-18.4,8.9-28.5,11.6l17.2,91.5C282.4,415.9,302.6,407.8,321,396.9
		"/>
	<path id="XMLID_12_" class="st0" d="M327.1,251.6c-3.2,9.5-7.6,18.5-13,26.8l74.3,56c12.1-17.3,21.6-36.6,28.1-57.1L327.1,251.6z"
		/>
	<path id="XMLID_13_" class="st0" d="M230.5,332c-5.7,0.8-11.4,1.3-17.3,1.3c-4.7,0-9.4-0.3-14-0.8L182,424
		c10.2,1.5,20.6,2.3,31.2,2.3c11.8,0,23.3-1,34.6-2.8L230.5,332z"/>
	<path id="XMLID_14_" class="st0" d="M220.9,93.1c10.3,0.7,20.3,2.6,29.7,5.7L284,12c-19.9-7-41.1-11.2-63.2-12V93.1z"/>
	<path id="XMLID_15_" class="st1" d="M185.9,330.2c-10.4-2.4-20.3-6.2-29.5-11.2l-48.9,79.2c18.8,10.8,39.4,18.8,61.2,23.4
		L185.9,330.2z"/>
	<path id="XMLID_16_" class="st0" d="M177.1,98.5c9.7-3.1,19.8-4.9,30.4-5.4V0c-22.4,0.6-43.9,4.7-64,11.7L177.1,98.5z"/>
	<path id="XMLID_17_" class="st0" d="M113.6,280.3c-5.9-8.7-10.7-18.3-14.2-28.4L10,277.6c6.8,21.3,16.8,41.2,29.5,59L113.6,280.3z"
		/>
	<path id="XMLID_18_" class="st0" d="M138.7,118.8c7.9-6.2,16.5-11.5,25.8-15.6l-33.6-86.8c-20,8.4-38.5,19.8-54.8,33.6L138.7,118.8
		z"/>
</g>
</svg>
