<svg width="476" height="476" viewBox="0 0 476 476" fill="none" xmlns="http://www.w3.org/2000/svg">
<path d="M5 5H471V471H5V5Z" stroke="white" stroke-width="10"/>
<path d="M151.892 39.8413H161.602C168.218 39.8413 170.598 43.1257 170.598 48.5521V56.7393C170.598 62.2133 168.171 65.5453 161.602 65.5453H158.46V78.7305H151.892V39.8413V39.8413ZM158.46 45.1725V60.4997H160.84C163.078 60.4997 164.03 59.4049 164.03 57.2629V48.3141C164.03 46.2197 163.078 45.1725 160.84 45.1725H158.46V45.1725Z" fill="white"/>
<path d="M171.408 78.7781L178.738 39.8413H186.211L193.589 78.7781H186.878L185.688 71.6381H178.738L177.596 78.7781H171.408ZM179.642 66.4021H184.878L182.308 50.7893H182.26L179.642 66.4021Z" fill="white"/>
<path d="M203.442 60.9281V78.7781H196.921V39.8413H206.441C213.058 39.8413 215.438 43.1257 215.438 48.5521V53.5501C215.438 57.7389 213.962 60.2141 210.202 61.0709L216.437 78.7305H209.535L203.442 60.9281ZM203.442 45.1725V57.2629H205.632C207.869 57.2629 208.869 56.1205 208.869 54.0261V48.2665C208.869 46.1721 207.917 45.1249 205.632 45.1249L203.442 45.1725Z" fill="white"/>
<path d="M217.77 39.8413H235.144V45.1725H229.718V78.7781H223.149V45.1725H217.77V39.8413Z" fill="white"/>
<path d="M244.807 54.3117V78.7781H239.285V39.8413H245.711L252.756 62.1657V39.8413H258.23V78.7781H252.47L244.807 54.3117Z" fill="white"/>
<path d="M263.609 39.8413H279.174V45.1725H270.13V56.3109H276.604V61.5945H270.13V73.3993H279.174V78.7781H263.609V39.8413Z" fill="white"/>
<path d="M289.789 60.9281V78.7781H283.268V39.8413H292.788C299.404 39.8413 301.784 43.1257 301.784 48.5521V53.5501C301.784 57.7389 300.308 60.2141 296.548 61.0709L302.784 78.7305H295.929L289.789 60.9281ZM289.789 45.1725V57.2629H291.978C294.216 57.2629 295.215 56.1205 295.215 54.0261V48.2665C295.215 46.1721 294.263 45.1249 291.978 45.1249L289.789 45.1725Z" fill="white"/>
<path d="M305.068 70.3528V65.1168H311.161V70.448C311.161 72.6376 312.113 73.8752 314.35 73.8752C316.397 73.8752 317.349 72.4948 317.349 70.448V69.02C317.349 66.7828 316.445 65.4024 314.398 63.4984L310.542 59.6428C306.83 55.9776 305.068 53.7404 305.068 49.266V47.9332C305.068 43.1256 307.877 39.3652 314.255 39.3652C320.776 39.3652 323.394 42.602 323.394 48.2188V51.3604H317.397V47.9808C317.397 45.7436 316.35 44.6488 314.303 44.6488C312.446 44.6488 311.209 45.696 311.209 47.8856V48.6948C311.209 50.8844 312.399 52.122 314.303 53.9784L318.492 58.1196C322.062 61.7372 323.775 63.9268 323.775 68.2108V70.1148C323.775 75.446 320.919 79.254 314.255 79.254C307.591 79.254 305.068 75.4936 305.068 70.3528Z" fill="white"/>
<path d="M340.721 61.5945H334.39V78.7781H327.869V39.8413H334.39V56.3109H340.721V39.8413H347.29V78.7781H340.721V61.5945Z" fill="white"/>
<path d="M358.142 39.8413H351.621V78.7781H358.142V39.8413Z" fill="white"/>
<path d="M362.522 39.8413H372.232C378.848 39.8413 381.228 43.1257 381.228 48.5521V56.7393C381.228 62.2133 378.801 65.5453 372.232 65.5453H369.09V78.7305H362.522V39.8413ZM369.043 45.1725V60.4997H371.423C373.66 60.4997 374.66 59.4049 374.66 57.2629V48.3141C374.66 46.2197 373.708 45.1725 371.423 45.1725H369.043V45.1725Z" fill="white"/>
<path d="M383.751 70.3528V65.1168H389.844V70.448C389.844 72.6376 390.796 73.8752 393.081 73.8752C395.128 73.8752 396.08 72.4948 396.08 70.448V69.02C396.08 66.7828 395.175 65.4024 393.128 63.4984L389.273 59.6428C385.56 55.9776 383.799 53.7404 383.799 49.266V47.9332C383.799 43.1256 386.607 39.3652 392.986 39.3652C399.554 39.3652 402.125 42.602 402.125 48.2188V51.3604H396.175V47.9808C396.175 45.7436 395.128 44.6488 393.081 44.6488C391.224 44.6488 389.987 45.696 389.987 47.8856V48.6948C389.987 50.8844 391.177 52.122 393.081 53.9784L397.27 58.1196C400.84 61.7372 402.553 63.9268 402.553 68.2108V70.1148C402.553 75.446 399.697 79.254 393.033 79.254C386.369 79.254 383.799 75.4936 383.751 70.3528Z" fill="white"/>
<path d="M71.2096 39.8887V135.85H55.0732V62.4035H54.9304L43.6016 74.1607H43.4588V57.3103L58.3576 39.8887H71.2096Z" fill="white"/>
<path d="M78.5876 39.8887H119.095V54.7399L97.9608 135.85H81.9672L103.482 53.0739H78.5876V39.8887Z" fill="white"/>
<path d="M151.892 96.3899H167.457V101.769H158.556V113.097H165.172V118.429H158.556V135.898H151.892V96.3899Z" fill="white"/>
<path d="M169.789 125.664V106.576C169.789 100.388 172.836 95.9141 179.785 95.9141C186.735 95.9141 189.924 100.388 189.924 106.576V125.664C189.924 131.804 186.878 136.326 179.833 136.326C172.788 136.326 169.837 131.804 169.837 125.664H169.789ZM183.308 126.711V105.529C183.308 103.149 182.26 101.436 179.88 101.436C177.5 101.436 176.501 103.149 176.501 105.529V126.759C176.501 129.139 177.548 130.852 179.88 130.852C182.213 130.852 183.308 129.139 183.308 126.711Z" fill="white"/>
<path d="M200.872 117.762V135.898H194.208V96.3899H203.871C210.582 96.3899 213.01 99.7219 213.01 105.243V110.289C213.01 114.525 211.487 117.048 207.726 117.905L214.057 135.85H207.06L200.872 117.762ZM200.872 101.769V114.049H203.062C205.346 114.049 206.346 112.907 206.346 110.765V104.958C206.346 102.816 205.346 101.769 203.062 101.769H200.872Z" fill="white"/>
<path d="M223.53 96.3899H241.189V101.769H235.715V135.898H229.004V101.769H223.53V96.3899Z" fill="white"/>
<path d="M257.326 118.429H250.947V135.898H244.283V96.3899H250.947V113.097H257.326V96.3899H264.037V135.898H257.326V118.429Z" fill="white"/>
<path d="M268.369 96.3899H284.22V101.769H275.033V113.097H281.602V118.429H275.033V130.471H284.22V135.898H268.369V96.3899Z" fill="white"/>
<path d="M305.449 114.764H314.874V135.85H310.114V131.519C309.257 134.47 307.353 136.279 303.783 136.279C298.071 136.279 295.453 131.757 295.453 125.616V106.529C295.453 100.341 298.404 95.8665 305.402 95.8665C312.732 95.8665 314.922 99.9601 314.922 105.767V109.242H308.829V105.244C308.829 102.816 307.877 101.388 305.497 101.388C303.117 101.388 302.07 103.102 302.07 105.482V126.711C302.07 129.091 303.069 130.805 305.354 130.805C307.496 130.805 308.591 129.567 308.591 126.997V120.047H305.449V114.764Z" fill="white"/>
<path d="M318.682 125.664V106.576C318.682 100.388 321.728 95.9141 328.678 95.9141C335.628 95.9141 338.769 100.388 338.769 106.576V125.664C338.769 131.804 335.723 136.326 328.678 136.326C321.633 136.326 318.682 131.757 318.682 125.664ZM332.153 126.711V105.529C332.153 103.149 331.106 101.436 328.726 101.436C326.346 101.436 325.346 103.149 325.346 105.529V126.759C325.346 129.139 326.393 130.852 328.726 130.852C331.058 130.852 332.153 129.139 332.153 126.711Z" fill="white"/>
<path d="M340.626 135.898L348.099 96.3899H355.667L363.188 135.898H356.381L355.144 128.663H348.099L346.956 135.898H340.626ZM348.956 123.331H354.287L351.669 107.481H351.621L348.956 123.331Z" fill="white"/>
<path d="M366.996 96.3899H373.66V130.471H381.562V135.898H366.996V96.3899Z" fill="white"/>
<path d="M383.942 127.378V122.094H390.13V127.52C390.13 129.71 391.129 131.043 393.366 131.043C395.461 131.043 396.413 129.615 396.413 127.52V125.997C396.413 123.712 395.461 122.332 393.462 120.38L389.558 116.477C385.75 112.764 384.037 110.48 384.037 105.91V104.577C384.037 99.6745 386.893 95.9141 393.366 95.9141C400.03 95.9141 402.648 99.1985 402.648 104.91V108.1H396.508V104.672C396.508 102.388 395.461 101.293 393.366 101.293C391.51 101.293 390.225 102.34 390.225 104.577V105.386C390.225 107.576 391.462 108.909 393.366 110.765L397.603 114.954C401.22 118.619 402.982 120.856 402.982 125.188V127.092C402.982 132.518 400.078 136.374 393.319 136.374C386.56 136.374 383.942 132.518 383.942 127.378Z" fill="white"/>
<path d="M356.191 288.694C356.191 255.279 329.582 227.956 296.453 226.766C285.076 194.494 249.662 177.548 217.389 188.924C199.73 195.16 185.783 209.059 179.547 226.766C146.418 227.956 119.857 255.279 119.857 288.694C119.857 307.782 128.71 325.822 143.8 337.579C142.181 343.196 141.372 348.956 141.372 354.81C141.372 388.987 169.17 416.786 203.395 416.786C215.866 416.786 228.099 413.025 238.381 405.933C248.567 412.74 260.515 416.405 272.796 416.357C306.972 416.357 334.771 388.559 334.771 354.382C334.771 348.67 333.962 343.006 332.438 337.532C347.385 325.774 356.143 307.734 356.191 288.694ZM287.504 247.377C287.504 272.177 269.13 292.74 245.283 296.31C244.854 293.787 244.664 291.264 244.616 288.694C244.664 264.18 262.609 243.379 286.838 239.761C287.266 242.284 287.504 244.807 287.504 247.377ZM238.238 389.796C218.627 370.852 218.103 339.578 237.048 319.967C237.286 319.729 237.524 319.491 237.762 319.253C257.373 338.198 257.897 369.424 238.952 389.035C238.714 389.32 238.476 389.558 238.238 389.796ZM189.115 239.761C212.962 243.331 231.336 263.847 231.336 288.694C231.336 291.264 231.098 293.787 230.67 296.31C206.87 292.74 188.496 272.177 188.496 247.377C188.496 244.807 188.734 242.284 189.115 239.761ZM226.052 310.828C213.914 335.199 184.307 345.148 159.936 333.01C159.65 332.867 159.365 332.724 159.127 332.581C171.265 308.21 200.872 298.262 225.243 310.4C225.481 310.542 225.767 310.685 226.052 310.828ZM249.805 310.495C273.938 297.833 303.783 307.115 316.445 331.248C316.683 331.677 316.873 332.105 317.111 332.534C292.978 345.195 263.133 335.913 250.471 311.78C250.233 311.352 249.995 310.923 249.805 310.495ZM238 197.873C257.706 197.873 275.509 209.583 283.363 227.623C263.466 231.193 246.568 244.188 238 262.466C229.432 244.188 212.486 231.193 192.59 227.623C200.491 209.583 218.294 197.873 238 197.873ZM132.328 288.694C132.376 263.418 151.416 242.189 176.548 239.476C173.93 259.515 181.261 279.602 196.255 293.216C176.12 295.548 158.365 307.591 148.702 325.441C138.278 316.016 132.328 302.688 132.328 288.694ZM153.796 354.763C153.796 351.336 154.176 347.861 154.89 344.481C172.978 353.24 194.208 352.668 211.772 342.91C208.06 362.664 214.2 383.037 228.242 397.412C204.68 411.216 174.406 403.315 160.602 379.8C156.128 372.232 153.796 363.569 153.796 354.763ZM322.204 354.334C322.252 381.657 300.166 403.791 272.843 403.838C264.228 403.838 255.755 401.601 248.282 397.317C262.086 382.799 267.988 362.522 264.132 342.863C281.744 352.668 303.069 353.24 321.205 344.434C321.871 347.718 322.204 351.002 322.204 354.334ZM280.126 292.835C292.788 281.126 300.023 264.656 300.023 247.377C300.023 244.712 299.832 242.094 299.499 239.476C326.631 242.332 346.338 266.703 343.434 293.835C342.149 305.925 336.437 317.111 327.44 325.298C317.873 307.401 300.213 295.263 280.126 292.835Z" fill="white"/>
</svg>
