<svg width="475" height="475" viewBox="0 0 475 475" fill="none" xmlns="http://www.w3.org/2000/svg">
<g clip-path="url(#clip0)">
<path d="M5 470.009V4.98999H470V470.009H5Z" stroke="#222222" stroke-width="10"/>
<path d="M88.825 122.436H62.4197V117.914C62.4197 110.433 65.1035 107.606 69.198 103.227L79.5055 92.3494C87.8417 83.4527 89.68 77.8002 89.68 68.1909V58.8714C89.68 45.1724 83.03 38.6697 68.6327 38.6697C54.511 38.6697 47.3005 46.1557 47.3005 59.5697V71.1549H61.997V59.1469C61.997 53.3614 64.8185 51.6609 68.2147 51.6609C71.3165 51.6609 74.0002 52.9387 74.0002 58.8714V66.7802C74.0002 74.6937 73.2925 77.8002 68.0675 83.3054L59.0425 92.9099C50.274 102.239 47.025 108.457 47.025 117.914V135.574H88.825V122.436Z" fill="#222222"/>
<path d="M196.232 403.617V410.3C196.219 410.348 196.211 410.398 196.208 410.448C196.211 410.501 196.219 410.553 196.232 410.604C196.266 411.403 196.603 412.158 197.175 412.716C197.747 413.274 198.511 413.593 199.31 413.606C199.31 413.606 199.348 413.606 199.372 413.606H199.448H277.823C277.823 413.606 277.866 413.606 277.889 413.606H277.961C278.783 413.59 279.566 413.253 280.143 412.668C280.72 412.082 281.044 411.294 281.048 410.471C281.045 410.464 281.045 410.455 281.048 410.448V402.867C325.157 388.408 358.202 352.659 365.47 309.092C365.47 308.997 365.498 308.912 365.513 308.831C365.538 308.687 365.553 308.54 365.555 308.394C365.556 307.978 365.474 307.565 365.315 307.181C365.156 306.796 364.923 306.446 364.629 306.152C364.334 305.858 363.985 305.624 363.6 305.465C363.216 305.306 362.803 305.225 362.387 305.226H112.642C112.225 305.224 111.812 305.305 111.426 305.464C111.041 305.623 110.69 305.856 110.395 306.15C110.1 306.444 109.866 306.794 109.706 307.179C109.546 307.564 109.464 307.977 109.464 308.394L109.63 309.819C117.263 353.799 151.212 389.747 196.232 403.617Z" fill="#222222"/>
<path d="M280.958 198.645C279.927 200.108 255.783 234.845 281.495 262.931C293.279 275.823 292.258 287.194 288.895 294.875H305.378C308.703 283.537 307.335 269.311 293.978 254.69C275.044 233.99 294.22 206.017 294.51 205.585C296.771 202.393 295.559 198.279 291.835 196.36C288.111 194.441 283.252 195.472 280.982 198.645" fill="#222222"/>
<path d="M239.215 294.875H255.702C259.027 283.532 257.654 269.311 244.274 254.69C225.331 233.99 244.492 206.026 244.796 205.57C247.043 202.393 245.855 198.284 242.117 196.36C238.379 194.436 233.539 195.467 231.278 198.645C230.242 200.103 206.103 234.845 231.814 262.931C243.599 275.823 242.568 287.199 239.215 294.875Z" fill="#222222"/>
<path d="M181.588 198.645C180.543 200.108 156.413 234.845 182.12 262.932C193.909 275.828 192.888 287.199 189.53 294.875H206.012C209.337 283.542 207.969 269.316 194.574 254.69C175.636 233.99 194.812 206.017 195.116 205.575C197.353 202.393 196.161 198.279 192.423 196.36C188.684 194.441 183.849 195.467 181.588 198.645Z" fill="#222222"/>
<path d="M142.054 73.2973H151.957V78.622H135.237V73.2973L145.488 45.125H136.268V39.8003H152.361V45.125L142.054 73.2973Z" fill="#222222"/>
<path d="M156.37 39.8003H171.95V45.125H162.897V56.2353H169.366V61.503H162.897V73.2973H171.95V78.622H156.37V39.8003Z" fill="#222222"/>
<path d="M182.538 60.8V78.6078H176.007V39.8003H185.506C192.09 39.8003 194.498 43.0635 194.498 48.5023V53.485C194.498 57.665 193.007 60.135 189.273 60.9853L195.519 78.622H188.665L182.538 60.8ZM182.538 45.125V57.209H184.713C186.946 57.209 187.919 56.0595 187.919 53.998V48.2743C187.919 46.1558 186.946 45.125 184.713 45.125H182.538Z" fill="#222222"/>
<path d="M198.626 68.6043V49.8181C198.626 43.7476 201.604 39.3396 208.478 39.3396C215.351 39.3396 218.386 43.7476 218.386 49.8181V68.6043C218.386 74.6178 215.408 79.0828 208.478 79.0828C201.547 79.0828 198.626 74.6178 198.626 68.6043ZM211.85 69.6351V48.7873C211.85 46.4408 210.819 44.7783 208.473 44.7783C206.126 44.7783 205.148 46.4408 205.148 48.7873V69.6351C205.148 71.9816 206.179 73.6441 208.473 73.6441C210.767 73.6441 211.85 71.9816 211.85 69.6351Z" fill="#222222"/>
<path d="M148.433 118.384H142.13V135.484H135.603V96.6814H142.13V113.116H148.433V96.6814H155.016V135.508H148.433V118.384Z" fill="#222222"/>
<path d="M178.263 96.6814V126.055C178.263 132.069 175.688 135.964 169.043 135.964C162.175 135.964 159.31 132.069 159.31 126.055V96.6814H165.837V126.687C165.837 128.977 166.754 130.525 169.043 130.525C171.333 130.525 172.254 128.977 172.254 126.687V96.6814H178.263Z" fill="#222222"/>
<path d="M188.057 111.112V135.508H182.557V96.6814H188.974L196.018 118.959V96.6814H201.457V135.508H195.728L188.057 111.112Z" fill="#222222"/>
<path d="M215.598 114.774H224.879V135.508H220.182V131.271C219.322 134.187 217.488 135.964 213.94 135.964C208.326 135.964 205.751 131.499 205.751 125.485V106.704C205.751 100.633 208.672 96.2207 215.541 96.2207C222.756 96.2207 224.879 100.23 224.879 105.958V109.392H218.923V105.45C218.923 103.046 218.006 101.674 215.66 101.674C213.313 101.674 212.278 103.331 212.278 105.683V126.526C212.278 128.872 213.251 130.535 215.484 130.535C217.602 130.535 218.695 129.333 218.695 126.811V119.933H215.598V114.774Z" fill="#222222"/>
<path d="M229.169 96.6814H244.748V102.006H235.7V113.116H242.169V118.384H235.7V130.183H244.748V135.508H229.169V96.6814Z" fill="#222222"/>
<path d="M255.341 117.695V135.508H248.81V96.6814H258.31C264.893 96.6814 267.297 99.9446 267.297 105.383V110.366C267.297 114.546 265.81 117.016 262.072 117.866L268.313 135.508H261.468L255.341 117.695ZM255.341 102.02V114.104H257.516C259.749 114.104 260.723 112.96 260.723 110.898V105.155C260.723 103.037 259.773 102.006 257.516 102.006L255.341 102.02Z" fill="#222222"/>
</g>
<defs>
<clipPath id="clip0">
<rect width="475" height="475" fill="white"/>
</clipPath>
</defs>
</svg>
