<svg width="476" height="476" viewBox="0 0 476 476" fill="none" xmlns="http://www.w3.org/2000/svg">
<path d="M5 471V5H471V471H5Z" stroke="#222222" stroke-width="10"/>
<path d="M48.8376 53.0263H73.7324L52.2172 135.85H68.2108L89.2976 54.7399V39.8887H48.8376V53.0263Z" fill="#222222"/>
<path d="M238 230.622C199.444 230.622 168.218 261.848 168.218 300.356C168.218 338.912 199.444 370.138 237.952 370.138C276.461 370.138 307.734 338.912 307.734 300.404C307.734 300.404 307.734 300.404 307.734 300.356C307.734 261.848 276.508 230.622 238 230.622ZM232.812 258.182C232.812 255.85 235.144 253.327 238 253.327C240.856 253.327 243.188 255.898 243.188 258.182V282.125C243.188 284.41 240.856 286.98 238 286.98C235.144 286.98 232.812 284.458 232.812 282.125V258.182ZM238 336.151C217.96 336.104 201.729 319.824 201.776 299.785C201.824 283.934 212.106 269.94 227.242 265.227V278.746C215.58 284.696 210.916 299.023 216.866 310.685C222.816 322.347 237.143 327.012 248.805 321.062C260.467 315.112 265.132 300.784 259.182 289.122C256.897 284.648 253.232 280.983 248.758 278.698V265.18C267.893 271.13 278.603 291.455 272.7 310.59C267.94 325.774 253.898 336.151 238 336.151Z" fill="#222222"/>
<path d="M157.889 299.785C157.889 296.596 155.081 294.073 152.51 294.073H121.951C119.381 294.073 116.525 296.643 116.525 299.785C116.525 302.926 119.333 305.544 121.951 305.544H152.51C155.081 305.544 157.889 302.926 157.889 299.785Z" fill="#222222"/>
<path d="M359.428 299.785C359.428 296.596 356.619 294.073 354.049 294.073H323.49C320.919 294.073 318.111 296.643 318.111 299.785C318.111 302.926 320.919 305.544 323.49 305.544H354.049C356.619 305.544 359.428 302.926 359.428 299.785Z" fill="#222222"/>
<path d="M238 219.674C241.142 219.674 243.712 216.866 243.712 214.295V183.736C243.712 181.166 241.142 178.31 238 178.31C234.858 178.31 232.24 181.118 232.24 183.736V214.295C232.24 216.866 234.811 219.674 238 219.674Z" fill="#222222"/>
<path d="M238 421.212C241.142 421.212 243.712 418.404 243.712 415.833V385.274C243.712 382.704 241.142 379.896 238 379.896C234.858 379.896 232.24 382.752 232.24 385.274V415.833C232.24 418.404 234.811 421.212 238 421.212Z" fill="#222222"/>
<path d="M168.504 259.991C170.075 257.231 168.932 253.613 166.695 252.375L140.182 237.191C137.945 235.906 134.232 236.715 132.661 239.476C131.09 242.237 132.28 245.854 134.518 247.139L161.031 262.324C163.22 263.609 166.933 262.752 168.504 259.991Z" fill="#222222"/>
<path d="M343.386 360.094C344.957 357.333 343.815 353.716 341.578 352.478L315.064 337.294C312.827 336.008 309.114 336.818 307.544 339.578C305.973 342.339 307.163 345.957 309.352 347.242L335.866 362.426C338.103 363.712 341.816 362.855 343.386 360.094Z" fill="#222222"/>
<path d="M277.794 230.289C280.554 231.859 284.124 230.717 285.41 228.48L300.594 201.967C301.879 199.729 301.07 196.017 298.309 194.446C295.548 192.875 291.931 194.065 290.646 196.302L275.461 222.768C274.176 225.005 275.033 228.718 277.794 230.289Z" fill="#222222"/>
<path d="M177.691 405.171C180.452 406.742 184.069 405.6 185.307 403.362L200.491 376.849C201.776 374.612 200.967 370.899 198.206 369.328C195.446 367.758 191.828 368.948 190.543 371.185L175.358 397.698C174.121 399.888 174.93 403.6 177.691 405.171Z" fill="#222222"/>
<path d="M198.064 230.336C200.824 228.766 201.634 225.053 200.348 222.816L185.116 196.35C183.831 194.113 180.214 192.97 177.453 194.541C174.692 196.112 173.883 199.872 175.168 202.11L190.4 228.575C191.733 230.765 195.35 231.907 198.064 230.336Z" fill="#222222"/>
<path d="M298.547 405.028C301.308 403.457 302.117 399.745 300.832 397.507L285.6 371.042C284.315 368.805 280.697 367.615 277.936 369.233C275.176 370.851 274.366 374.564 275.652 376.801L290.884 403.267C292.169 405.457 295.786 406.599 298.547 405.028Z" fill="#222222"/>
<path d="M307.448 259.848C309.019 262.609 312.732 263.418 314.969 262.133L341.435 246.901C343.672 245.616 344.862 241.998 343.291 239.238C341.72 236.477 337.96 235.668 335.723 236.953L309.257 252.185C307.02 253.47 305.878 257.135 307.448 259.848Z" fill="#222222"/>
<path d="M132.756 360.332C134.327 363.093 138.04 363.902 140.277 362.617L166.743 347.385C168.98 346.1 170.17 342.482 168.552 339.721C166.933 336.96 163.22 336.151 160.983 337.436L134.518 352.668C132.328 353.954 131.186 357.571 132.756 360.332Z" fill="#222222"/>
<path d="M134.946 78.7305L142.276 39.8413H149.75L157.128 78.7305H150.416L149.226 71.6381H142.276L141.134 78.7305H134.946ZM143.133 66.4021H148.369L145.799 50.7893H145.751L143.133 66.4021Z" fill="#222222"/>
<path d="M159.555 39.8413H174.882V45.1725H166.076V56.3109H172.645V61.5945H166.076V78.7305H159.555V39.8413Z" fill="#222222"/>
<path d="M177.453 39.8413H192.78V45.1725H183.974V56.3109H190.543V61.5945H183.974V78.7305H177.453V39.8413Z" fill="#222222"/>
<path d="M194.779 68.6868V49.8848C194.779 43.792 197.778 39.3652 204.68 39.3652C211.582 39.3652 214.628 43.792 214.628 49.8848V68.7344C214.628 74.7796 211.63 79.254 204.68 79.254C197.73 79.254 194.779 74.732 194.779 68.6868ZM208.06 69.734V48.8376C208.06 46.5052 207.012 44.8392 204.68 44.8392C202.348 44.8392 201.348 46.5052 201.348 48.8376V69.734C201.348 72.0664 202.395 73.7324 204.68 73.7324C206.965 73.7324 208.06 72.0664 208.06 69.734Z" fill="#222222"/>
<path d="M224.577 60.8805V78.7305H218.008V39.8413H227.528C234.144 39.8413 236.572 43.1257 236.572 48.5521V53.5501C236.572 57.7389 235.096 60.2141 231.336 61.0709L237.572 78.7305H230.67L224.577 60.8805ZM224.577 45.1725V57.2629H226.766C229.004 57.2629 230.003 56.1205 230.003 54.0261V48.3141C230.003 46.1721 229.051 45.1725 226.766 45.1725H224.577Z" fill="#222222"/>
<path d="M259.42 50.2657V68.2585C259.42 74.2085 256.945 78.6829 249.948 78.6829H239.809V39.8413H249.9C256.945 39.8413 259.42 44.2681 259.42 50.2657ZM249.138 73.3993C251.852 73.3993 252.851 71.7809 252.851 69.4485V49.0757C252.851 46.7909 251.804 45.1725 249.138 45.1725H246.378V73.3993H249.138Z" fill="#222222"/>
<path d="M260.943 78.7305L268.274 39.8413H275.747L283.125 78.7305H276.413L275.223 71.6381H268.274L267.131 78.7305H260.943ZM269.178 66.4021H274.414L271.796 50.7893H271.748L269.178 66.4021Z" fill="#222222"/>
<path d="M285.552 39.8413H295.025C301.594 39.8413 303.736 42.8877 303.736 48.4093V52.3601C303.736 55.6445 302.546 57.6913 299.832 58.5481C303.117 59.3097 304.688 61.4517 304.688 65.0217V70.2101C304.688 75.7317 302.212 78.7781 295.691 78.7781H285.552V39.8413ZM292.121 56.2157H294.406C296.548 56.2157 297.5 55.1209 297.5 53.0741V48.3141C297.5 46.1721 296.548 45.1725 294.358 45.1725H292.121V56.2157ZM292.121 61.2137V73.3993H294.977C297.167 73.3993 298.214 72.3045 298.214 70.2577V64.4029C298.214 62.3561 297.262 61.2613 294.93 61.2613L292.121 61.2137Z" fill="#222222"/>
<path d="M307.734 39.8413H314.303V73.3993H322.109V78.7305H307.782V39.8413H307.734Z" fill="#222222"/>
<path d="M324.775 39.8413H340.388V45.1725H331.296V56.3109H337.77V61.5945H331.296V73.3993H340.34V78.7305H324.727L324.775 39.8413Z" fill="#222222"/>
<path d="M348.289 78.7305L355.62 39.8413H363.093L370.518 78.7305H363.807L362.617 71.6381H355.667L354.525 78.7305H348.289ZM356.476 66.4021H361.712L359.142 50.7893H359.094L356.476 66.4021Z" fill="#222222"/>
<path d="M378.42 54.2641V78.6829H372.898V39.8413H379.324L386.369 62.1657V39.8413H391.843V78.7305H386.131L378.42 54.2641Z" fill="#222222"/>
<path d="M414.834 50.2657V68.2585C414.834 74.2085 412.359 78.6829 405.362 78.6829H395.27V39.8413H405.362C412.359 39.8413 414.834 44.2681 414.834 50.2657ZM404.6 73.3993C407.313 73.3993 408.313 71.7809 408.313 69.4485V49.0757C408.313 46.7909 407.266 45.1725 404.6 45.1725H401.839V73.3993H404.6Z" fill="#222222"/>
<path d="M135.898 125.807V107.1C135.898 101.055 138.754 96.6279 145.608 96.6279C152.796 96.6279 154.795 100.626 154.795 106.338V110.908H148.845V105.862C148.845 103.482 148.036 102.102 145.704 102.102C143.371 102.102 142.372 103.768 142.372 106.1V126.902C142.372 129.234 143.324 130.9 145.704 130.9C148.084 130.9 148.845 129.424 148.845 127.14V120H154.795V126.664C154.795 132.185 152.51 136.326 145.608 136.326C138.706 136.326 135.898 131.804 135.898 125.807Z" fill="#222222"/>
<path d="M158.936 97.104H165.458V130.519H173.216V135.85H158.936V97.104Z" fill="#222222"/>
<path d="M176.739 97.104H192.256V102.435H183.26V113.526H189.686V118.762H183.26V130.519H192.304V135.85H176.739V97.104Z" fill="#222222"/>
<path d="M195.303 135.803L202.633 97.104H210.059L217.437 135.803H210.773L209.583 128.71H202.681L201.538 135.803H195.303ZM203.442 123.522H208.631L206.06 108.004H206.013L203.442 123.522Z" fill="#222222"/>
<path d="M226.1 111.479V135.803H220.626V97.104H227.052L234.097 119.333V97.104H239.523V135.803H233.811L226.1 111.479Z" fill="#222222"/>
<path d="M256.897 97.104H272.415V102.435H263.418V113.526H269.844V118.762H263.418V130.519H272.462V135.85H256.945V97.104H256.897Z" fill="#222222"/>
<path d="M281.792 111.479V135.803H276.318V97.104H282.696L289.741 119.333V97.104H295.12V135.803H289.408L281.792 111.479Z" fill="#222222"/>
<path d="M299.356 97.104H314.874V102.435H305.83V113.526H312.256V118.762H305.83V130.519H314.874V135.85H299.356V97.104Z" fill="#222222"/>
<path d="M325.346 118.048V135.803H318.825V97.104H328.297C334.866 97.104 337.246 100.341 337.246 105.767V110.718C337.246 114.906 335.77 117.334 332.058 118.191L338.293 135.755H331.439L325.346 118.048ZM325.346 102.388V114.43H327.488C329.725 114.43 330.677 113.288 330.677 111.241V105.529C330.677 103.435 329.725 102.388 327.488 102.388H325.346Z" fill="#222222"/>
<path d="M351.193 115.144H360.427V135.803H355.762V131.566C354.906 134.47 353.097 136.231 349.527 136.231C343.91 136.231 341.34 131.757 341.34 125.759V107.1C341.34 101.055 344.243 96.6279 351.098 96.6279C358.285 96.6279 360.38 100.626 360.38 106.338V109.766H354.43V105.815C354.43 103.435 353.525 102.054 351.193 102.054C348.86 102.054 347.813 103.72 347.813 106.053V126.854C347.813 129.186 348.765 130.852 351.002 130.852C353.097 130.852 354.192 129.662 354.192 127.14V120.333H351.098V115.144H351.193Z" fill="#222222"/>
<path d="M377.278 121.094V135.85H370.756V121.094L363.521 97.104H370.328L374.279 111.765H374.326L378.23 97.104H384.465L377.278 121.094Z" fill="#222222"/>
</svg>
