<svg width="476" height="476" viewBox="0 0 476 476" fill="none" xmlns="http://www.w3.org/2000/svg">
<path d="M5 471V5H471V471H5Z" stroke="#222222" stroke-width="10"/>
<path d="M72.0188 137.136C89.1548 137.136 95.7712 127.806 95.7712 112.907V98.77C95.7712 83.062 89.5356 75.1128 77.9212 75.1128C71.1144 75.1128 67.0208 78.2544 64.6408 82.9192H64.498V62.2608C64.498 56.4536 66.3544 52.36 72.1616 52.36C77.9688 52.36 79.6824 55.7396 79.6824 61.6896V68.068H94.3908V62.9272C94.3908 48.79 89.726 38.8416 71.876 38.8416C54.8828 38.8416 48.5044 49.742 48.5044 64.736V111.432C48.5044 126.378 55.0256 137.136 72.0188 137.136ZM64.498 96.7708C64.7836 91.392 67.0684 88.0124 72.1616 88.0124C77.6832 88.0124 79.8252 91.392 79.8252 97.6276V114.335C79.8252 120.428 77.588 123.95 72.0664 123.95C66.6876 123.95 64.5456 120.285 64.5456 114.335V96.7708H64.498Z" fill="#222222"/>
<path d="M145.894 78.8733C152.844 78.8733 155.128 74.7321 155.128 69.1629V62.4513H149.178V69.6389C149.178 71.9237 148.369 73.4469 146.037 73.4469C143.704 73.4469 142.705 71.7809 142.705 69.4485V48.5521C142.705 46.2197 143.704 44.5537 146.037 44.5537C148.369 44.5537 149.178 45.9341 149.178 48.3617V53.4549H155.128V48.8377C155.128 43.0781 153.129 39.0797 145.894 39.0797C138.992 39.0321 136.136 43.4589 136.136 49.5517V68.4013C136.136 74.3989 138.992 78.8733 145.894 78.8733Z" fill="#222222"/>
<path d="M173.597 73.1137H165.791V39.5081H159.27V78.4449H173.597V73.1137Z" fill="#222222"/>
<path d="M192.78 73.1137H183.688V61.2613H190.21V55.9777H183.688V44.8393H192.78V39.5081H177.167V78.4449H192.78V73.1137Z" fill="#222222"/>
<path d="M203.157 71.3049H210.106L211.296 78.4449H218.008L210.63 39.5081H203.204L195.874 78.4449H202.062L203.157 71.3049ZM206.584 50.4561H206.632L209.202 66.0689H203.966L206.584 50.4561Z" fill="#222222"/>
<path d="M226.814 53.9785L234.478 78.4449H240.237V39.5081H234.763V61.8325L227.718 39.5081H221.292V78.4449H226.814V53.9785Z" fill="#222222"/>
<path d="M264.561 78.4449L268.226 54.3593H268.274L272.129 78.4449H278.317L283.363 39.5081H277.841L274.89 64.2125H274.795L271.225 39.5081H265.846L262.609 64.2125H262.514L259.515 39.5081H253.184L258.42 78.4449H264.561Z" fill="#222222"/>
<path d="M290.788 71.3049H297.738L298.928 78.4449H305.64L298.262 39.5081H290.788L283.458 78.4449H289.646L290.788 71.3049ZM294.263 50.4561H294.311L296.881 66.0689H291.645L294.263 50.4561Z" fill="#222222"/>
<path d="M310.257 78.4449H316.826V44.8393H322.252V39.5081H304.83V44.8393H310.257V78.4449Z" fill="#222222"/>
<path d="M340.911 73.1137H331.867V61.2613H338.341V55.9777H331.867V44.8393H340.911V39.5081H325.298V78.4449H340.911V73.1137Z" fill="#222222"/>
<path d="M351.002 60.5472L357.143 78.3973H364.045L357.762 60.6901C361.474 59.8333 362.998 57.358 362.998 53.1692V48.1712C362.998 42.6972 360.57 39.4604 354.001 39.4604H344.481V78.3973H351.002V60.5472ZM351.002 44.8392H353.192C355.429 44.8392 356.381 45.8865 356.381 47.9809V53.6929C356.381 55.7397 355.382 56.9296 353.192 56.9296H351.002V44.8392Z" fill="#222222"/>
<path d="M142.705 128.71H149.654L150.844 135.85H157.556L150.13 96.9136H142.705L135.374 135.85H141.562L142.705 128.71ZM146.18 107.862H146.227L148.798 123.474H143.562L146.18 107.862Z" fill="#222222"/>
<path d="M160.269 96.9136V135.803H165.791V111.384L173.454 135.803H179.214V96.9136H173.74V119.238L166.695 96.9136H160.269Z" fill="#222222"/>
<path d="M183.974 135.803H194.065C201.062 135.803 203.538 131.328 203.538 125.331V107.29C203.538 101.293 201.062 96.866 194.065 96.866H183.974V135.803ZM190.495 102.245H193.256C195.969 102.245 196.969 103.863 196.969 106.148V126.521C196.969 128.853 195.969 130.472 193.256 130.472H190.495V102.245Z" fill="#222222"/>
<path d="M218.056 122.237V127.473C218.056 132.566 220.626 136.326 227.29 136.326C233.954 136.326 236.81 132.518 236.81 127.187V125.283C236.81 120.999 235.096 118.81 231.526 115.192L227.338 111.051C225.434 109.194 224.244 107.957 224.244 105.767V104.958C224.244 102.768 225.481 101.769 227.338 101.769C229.384 101.769 230.432 102.864 230.432 105.101V108.48H236.382V105.339C236.382 99.7219 233.811 96.4851 227.242 96.4851C220.864 96.4851 218.056 100.198 218.056 105.053V106.386C218.056 110.86 219.769 113.098 223.53 116.763L227.385 120.618C229.384 122.522 230.289 123.903 230.289 126.14V127.616C230.289 129.662 229.384 131.043 227.29 131.043C225.053 131.043 224.101 129.805 224.101 127.616V122.284H218.056V122.237Z" fill="#222222"/>
<path d="M244.902 135.803L246.044 128.663H252.994L254.184 135.803H260.896L253.47 96.866H245.997L238.666 135.803H244.902ZM249.519 107.862H249.567L252.137 123.474H246.901L249.519 107.862Z" fill="#222222"/>
<path d="M277.603 119.238L270.558 96.9136H264.132V135.803H269.654V111.384L277.318 135.803H283.077V96.9136H277.603V119.238Z" fill="#222222"/>
<path d="M294.93 96.9136H288.361V135.85H294.93V96.9136Z" fill="#222222"/>
<path d="M309.876 135.803V102.245H315.302V96.9136H297.881V102.245H303.307V135.803H309.876Z" fill="#222222"/>
<path d="M328.583 96.9136H321.11L313.779 135.85H319.967L321.11 128.71H328.059L329.249 135.85H335.961L328.583 96.9136ZM322.014 123.474L324.584 107.862H324.632L327.202 123.474H322.014Z" fill="#222222"/>
<path d="M351.288 96.9136H333.914V102.245H339.293V135.803H345.909V102.245H351.288V96.9136Z" fill="#222222"/>
<path d="M361.379 96.9136H354.858V135.85H361.379V96.9136Z" fill="#222222"/>
<path d="M375.516 136.279C382.466 136.279 385.417 131.804 385.417 125.759V106.909C385.417 100.817 382.466 96.3899 375.516 96.3899C368.567 96.3899 365.616 100.817 365.616 106.909V125.759C365.663 131.804 368.614 136.279 375.516 136.279ZM372.184 105.91C372.184 103.577 373.232 101.911 375.516 101.911C377.801 101.911 378.896 103.577 378.896 105.91V126.806C378.896 129.139 377.849 130.805 375.516 130.805C373.184 130.805 372.184 129.139 372.184 126.806V105.91Z" fill="#222222"/>
<path d="M408.646 135.803V96.9136H403.172V119.238L396.127 96.9136H389.701V135.803H395.223V111.384L402.886 135.803H408.646Z" fill="#222222"/>
<path d="M325.917 192.494C325.536 192.066 324.965 191.828 324.346 191.828H151.654C150.559 191.78 149.654 192.637 149.654 193.684C149.654 193.827 149.654 193.97 149.702 194.113L178.738 369.566C178.881 370.518 179.738 371.232 180.737 371.232H216.342L218.77 399.792H203.728L238.571 434.636L273.51 399.697H258.516L260.943 371.232H297.167C298.166 371.232 299.023 370.518 299.166 369.519L326.298 194.065C326.441 193.542 326.25 192.923 325.917 192.494ZM259.134 332.962C253.518 338.055 246.092 340.673 238.524 340.15C230.955 340.673 223.482 338.103 217.913 332.962C204.966 320.015 209.583 303.974 214.105 295.644C216.866 290.455 236.762 260.61 238.476 258.04V257.849L238.571 257.944L238.619 257.849V258.04C240.285 260.562 260.182 290.408 262.99 295.644C267.464 303.926 272.082 320.015 259.134 332.962ZM313.922 229.384C309.257 227.338 303.307 228.052 297.595 230.384C276.175 239.047 261.562 242.189 239.047 235.144C224.862 230.717 211.582 221.388 195.874 227.052C185.45 230.812 175.739 234.382 163.982 234.287L157.175 199.396H318.777L313.922 229.384Z" fill="#222222"/>
</svg>
