<svg width="476" height="476" viewBox="0 0 476 476" fill="none" xmlns="http://www.w3.org/2000/svg">
<g clip-path="url(#clip0)">
<path d="M5.1437 5.04785H471.048V470.953H5.1437V5.04785Z" stroke="white" stroke-width="10"/>
<path d="M36.7472 57.4055V74.2559H36.89L48.2188 62.4987H48.3616V135.945H64.498V39.9839H51.646L36.7472 57.4055Z" fill="white"/>
<path d="M120.952 112.86V98.7223C120.952 83.0143 114.716 75.0652 103.102 75.0652C96.2948 75.0652 92.2012 78.1592 89.8212 82.8716H89.6784V62.2132C89.6784 56.406 91.5348 52.3124 97.342 52.3124C103.149 52.3124 104.863 55.692 104.863 61.642V68.0204H119.571V62.9272C119.571 48.79 114.906 38.8892 97.0564 38.8892C80.0632 38.8892 73.6848 49.7896 73.6848 64.7836V111.479C73.6848 126.33 80.206 137.088 97.1992 137.088C114.335 137.088 120.999 127.758 120.952 112.86ZM105.006 114.288C105.006 120.38 102.721 123.903 97.1992 123.903C91.8204 123.903 89.6784 120.238 89.6784 114.288V96.7231C89.964 91.3443 92.2012 87.9648 97.342 87.9648C102.864 87.9648 105.006 91.3443 105.006 97.5799V114.288V114.288Z" fill="white"/>
<path d="M307.544 233.716C307.544 233.716 303.545 239.047 304.688 244.236C305.83 249.424 311.78 252.518 311.78 252.518C311.78 252.518 315.778 247.187 314.636 241.998C313.494 236.81 307.544 233.716 307.544 233.716Z" fill="white"/>
<path d="M301.022 264.085C301.022 264.085 305.021 258.754 303.878 253.565C302.736 248.377 296.786 245.283 296.786 245.283C296.786 245.283 292.788 250.614 293.93 255.802C295.072 260.991 301.022 264.085 301.022 264.085Z" fill="white"/>
<path d="M317.492 258.42C317.492 258.42 321.728 262.704 326.536 262.276C331.344 261.848 334.914 256.897 334.914 256.897C334.914 256.897 330.677 252.613 325.87 253.042C321.062 253.47 317.492 258.42 317.492 258.42Z" fill="white"/>
<path d="M324.442 235.62C320.538 239.618 321.062 246.616 321.062 246.616C321.062 246.616 327.964 247.234 331.915 243.236C335.818 239.285 335.294 232.24 335.294 232.24C335.294 232.24 328.345 231.669 324.442 235.62Z" fill="white"/>
<path d="M315.778 274.224C320.586 274.795 325.108 270.654 325.108 270.654C325.108 270.654 321.824 265.608 317.016 265.037C312.208 264.466 307.686 268.607 307.686 268.607C307.686 268.607 310.971 273.652 315.778 274.224Z" fill="white"/>
<path d="M320.062 357.571H284.172C281.364 357.571 279.079 359.856 279.079 362.664C279.079 365.473 281.364 367.758 284.172 367.758H320.062C322.871 367.758 325.156 365.473 325.156 362.664C325.156 359.856 322.871 357.571 320.062 357.571Z" fill="white"/>
<path d="M320.062 413.501H284.172C281.364 413.501 279.079 415.786 279.079 418.594C279.079 421.403 281.364 423.688 284.172 423.688H320.062C322.871 423.688 325.156 421.403 325.156 418.594C325.156 415.786 322.871 413.501 320.062 413.501Z" fill="white"/>
<path d="M158.746 345.243C157.937 345.005 157.08 344.767 156.271 344.624C156.271 344.624 157.175 344.91 158.746 345.243Z" fill="white"/>
<path d="M318.73 371.28H285.505C283.934 371.28 282.601 372.565 282.601 374.184V384.275L260.896 386.655L229.194 385.941V366.52C233.478 365.996 237.667 365.14 241.808 363.95C272.32 355.334 278.984 330.106 278.317 312.637C277.651 294.882 283.363 287.98 291.502 284.886C293.692 284.077 295.977 283.458 298.262 283.077C298.357 287.457 299.214 292.502 301.213 298.547C301.927 298.5 302.641 298.452 303.355 298.357C301.308 292.169 300.404 287.076 300.356 282.744C302.736 282.458 305.164 282.363 307.591 282.506C305.164 281.078 302.831 279.46 300.689 277.603C302.07 269.178 307.068 264.037 312.256 258.706C315.112 255.803 318.016 252.804 320.348 249.234L318.539 248.091C316.35 251.471 313.494 254.422 310.733 257.231C305.687 262.371 300.594 267.655 298.88 276.033C297.024 274.367 295.31 272.605 293.644 270.749C286.124 262.324 276.413 268.512 262.609 281.364C248.805 294.216 231.431 294.644 214.438 277.318C192.066 254.374 172.502 254.517 159.127 255.803C168.266 259.706 171.503 268.274 176.12 290.027C180.975 312.875 193.256 323.204 210.011 324.632C200.682 327.916 200.206 333.2 187.734 341.816C177.976 348.527 164.22 346.433 158.698 345.148C168.932 348.337 181.023 359.047 191.828 362.76C198.206 364.949 204.87 366.282 211.582 366.806V385.322L154.89 384.132V397.079L260.943 394.652L282.649 397.032V407.075C282.649 408.694 283.934 409.979 285.552 409.979H318.777C320.396 409.979 321.681 408.694 321.681 407.075V374.136C321.633 372.565 320.348 371.28 318.73 371.28ZM216.866 367.234C219.246 367.282 221.626 367.186 223.958 367.044V385.798L216.866 385.655V367.234Z" fill="white"/>
<path d="M151.749 394.985C151.749 397.698 149.845 399.935 147.512 399.935H144.942C142.61 399.935 140.706 397.746 140.706 394.985V386.036C140.706 383.323 142.61 381.086 144.942 381.086H147.512C149.845 381.086 151.749 383.275 151.749 386.036V394.985Z" fill="white"/>
<path d="M152.034 39.9363H161.745C168.361 39.9363 170.741 43.2207 170.741 48.6471V56.8343C170.741 62.2607 168.314 65.5927 161.745 65.5927H158.603V78.7779H152.082V39.9363H152.034ZM158.556 45.2675V60.5947H160.983C163.22 60.5947 164.22 59.4999 164.22 57.3579V48.4091C164.22 46.2671 163.268 45.2675 160.983 45.2675H158.556V45.2675Z" fill="white"/>
<path d="M173.597 39.9363H189.21V45.2675H180.118V56.4059H186.592V61.6895H180.118V73.4943H189.162V78.8255H173.55V39.9363H173.597Z" fill="white"/>
<path d="M191.733 78.8255L199.063 39.9363H206.536L213.914 78.8255H207.203L206.013 71.6855H199.063L197.921 78.8255H191.733ZM199.92 66.4971H205.156L202.586 50.8843H202.538L199.92 66.4971Z" fill="white"/>
<path d="M216.104 68.782V49.98C216.104 43.8872 218.96 39.4604 225.862 39.4604C233.097 39.4604 235.096 43.4588 235.096 49.2184V53.788H229.146V48.6948C229.146 46.2672 228.337 44.8868 226.005 44.8868C223.672 44.8868 222.673 46.5528 222.673 48.8852V69.7816C222.673 72.114 223.625 73.78 226.005 73.78C228.385 73.78 229.146 72.3044 229.146 69.972V62.832H235.096V69.5436C235.096 75.1128 232.812 79.254 225.862 79.254C218.912 79.254 216.104 74.8272 216.104 68.782Z" fill="white"/>
<path d="M238.666 39.9363H254.279V45.2675H245.235V56.4059H251.709V61.6895H245.188V73.4943H254.232V78.8255H238.666V39.9363V39.9363Z" fill="white"/>
<path d="M264.751 73.0661L261.419 81.8245H257.754L258.563 72.5425H264.751V73.0661Z" fill="white"/>
<path d="M292.454 39.9363V69.9719C292.454 75.5887 289.979 79.2539 283.458 79.2539C276.699 79.2539 274.842 75.5411 274.842 70.5907V62.8795H281.03V70.7335C281.03 72.6851 281.744 73.8275 283.458 73.8275C285.172 73.8275 285.933 72.6851 285.933 70.6859V39.9363H292.454Z" fill="white"/>
<path d="M315.445 39.9363V69.3531C315.445 75.3507 312.875 79.3015 306.211 79.3015C299.309 79.3015 296.453 75.3983 296.453 69.3531V39.9363H302.974V69.9719C302.974 72.2567 303.878 73.8275 306.211 73.8275C308.543 73.8275 309.448 72.3043 309.448 69.9719V39.9363H315.445Z" fill="white"/>
<path d="M319.11 70.448V65.212H325.203V70.5432C325.203 72.7328 326.155 73.9704 328.44 73.9704C330.487 73.9704 331.439 72.59 331.439 70.5432V69.0676C331.439 66.8304 330.534 65.45 328.488 63.546L324.632 59.6904C320.919 56.0252 319.158 53.788 319.158 49.3136V47.9808C319.158 43.1732 321.966 39.4128 328.345 39.4128C334.866 39.4128 337.484 42.6496 337.484 48.2664V51.408H331.534V48.076C331.534 45.8388 330.487 44.744 328.44 44.744C326.584 44.744 325.346 45.7912 325.346 47.9808V48.79C325.346 50.9796 326.536 52.2172 328.44 54.0736L332.629 58.2148C336.199 61.8324 337.912 64.022 337.912 68.306V70.21C337.912 75.5412 335.056 79.3492 328.392 79.3492C321.728 79.3492 319.11 75.5412 319.11 70.448Z" fill="white"/>
<path d="M340.816 39.9363H358.19V45.2675H352.811V78.8255H346.195V45.2675H340.816V39.9363Z" fill="white"/>
<path d="M361.57 39.9363H368.091V78.8255H361.57V39.9363Z" fill="white"/>
<path d="M372.137 68.782V49.98C372.137 43.8872 374.993 39.4604 381.895 39.4604C389.13 39.4604 391.129 43.4588 391.129 49.2184V53.788H385.179V48.6948C385.179 46.2672 384.37 44.8868 382.038 44.8868C379.705 44.8868 378.706 46.5528 378.706 48.8852V69.7816C378.706 72.114 379.658 73.78 382.038 73.78C384.418 73.78 385.179 72.3044 385.179 69.972V62.832H391.129V69.5436C391.129 75.1128 388.844 79.254 381.895 79.254C374.945 79.254 372.137 74.8272 372.137 68.782Z" fill="white"/>
<path d="M394.985 39.9363H410.598V45.2675H401.554V56.4059H408.027V61.6895H401.554V73.4943H410.598V78.8255H394.985V39.9363Z" fill="white"/>
<path d="M151.225 135.898L158.556 97.0088H166.029L173.407 135.898H166.695L165.505 128.806H158.556L157.413 135.898H151.225ZM159.412 123.522H164.648L162.078 107.909H162.03L159.412 123.522Z" fill="white"/>
<path d="M182.213 111.432V135.85H176.691V96.9612H183.117L190.162 119.286V96.9612H195.636V135.85H189.876L182.213 111.432Z" fill="white"/>
<path d="M219.484 107.433V125.473C219.484 131.423 217.008 135.898 210.011 135.898H199.92V97.0087H210.011C217.056 96.9611 219.484 101.388 219.484 107.433ZM209.25 130.519C211.963 130.519 212.962 128.901 212.962 126.568V106.195C212.962 103.911 211.915 102.292 209.25 102.292H206.489V130.519H209.25Z" fill="white"/>
<path d="M230.051 127.52V122.284H236.144V127.616C236.144 129.805 237.096 131.043 239.38 131.043C241.427 131.043 242.379 129.662 242.379 127.616V126.14C242.379 123.903 241.475 122.522 239.476 120.618L235.62 116.763C231.907 113.098 230.146 110.86 230.146 106.386V105.053C230.146 100.246 232.954 96.4851 239.333 96.4851C245.854 96.4851 248.472 99.7219 248.472 105.339V108.528H242.522V105.148C242.522 102.911 241.475 101.816 239.428 101.816C237.572 101.816 236.334 102.864 236.334 105.053V105.862C236.334 108.052 237.524 109.29 239.428 111.146L243.617 115.287C247.187 118.905 248.9 121.094 248.9 125.378V127.282C248.9 132.614 246.044 136.422 239.38 136.422C232.716 136.422 230.051 132.614 230.051 127.52Z" fill="white"/>
<path d="M251.233 96.9612H268.607V102.34H263.228V135.898H256.612V102.34H251.233V96.9612V96.9612Z" fill="white"/>
<path d="M278.746 118.048V135.898H272.224V97.0088H281.744C288.361 97.0088 290.741 100.293 290.741 105.72V110.718C290.741 114.906 289.265 117.382 285.505 118.238L291.788 135.898H284.886L278.746 118.048ZM278.746 102.34V114.43H280.935C283.172 114.43 284.124 113.288 284.124 111.241V105.482C284.124 103.34 283.172 102.34 280.935 102.34H278.746Z" fill="white"/>
<path d="M294.882 125.854V107.052C294.882 100.96 297.881 96.5327 304.735 96.5327C311.59 96.5327 314.636 100.96 314.636 107.052V125.854C314.636 131.9 311.637 136.374 304.735 136.374C297.833 136.374 294.882 131.852 294.882 125.854ZM308.115 126.854V105.958C308.115 103.625 307.068 101.959 304.735 101.959C302.403 101.959 301.403 103.625 301.403 105.958V126.854C301.403 129.186 302.45 130.852 304.735 130.852C307.02 130.852 308.115 129.234 308.115 126.854Z" fill="white"/>
<path d="M324.489 111.432V135.85H318.968V96.9612H325.394L332.438 119.286V96.9612H337.912V135.85H332.2L324.489 111.432Z" fill="white"/>
<path d="M352.097 115.097H361.379V135.85H356.667V131.614C355.81 134.518 353.954 136.326 350.431 136.326C344.814 136.326 342.244 131.852 342.244 125.807V107.005C342.244 100.912 345.195 96.4851 352.05 96.4851C359.285 96.4851 361.427 100.484 361.427 106.243V109.67H355.477V105.72C355.477 103.292 354.572 101.912 352.192 101.912C349.812 101.912 348.813 103.578 348.813 105.91V126.806C348.813 129.139 349.765 130.805 352.05 130.805C354.192 130.805 355.286 129.615 355.286 127.092V120.238H352.192V115.097H352.097Z" fill="white"/>
<path d="M152.32 154.652H158.841V193.542H152.32V154.652Z" fill="white"/>
<path d="M168.742 169.123V193.589H163.22V154.7H169.646L176.691 177.024V154.7H182.165V193.589H176.406L168.742 169.123Z" fill="white"/>
<path d="M186.116 185.164V179.928H192.209V185.259C192.209 187.449 193.161 188.686 195.446 188.686C197.492 188.686 198.444 187.306 198.444 185.259V183.783C198.444 181.546 197.54 180.166 195.541 178.262L191.685 174.406C187.972 170.741 186.211 168.504 186.211 164.029V162.697C186.211 157.889 189.02 154.129 195.398 154.129C201.919 154.129 204.537 157.365 204.537 162.982V166.124H198.492V162.792C198.492 160.555 197.445 159.46 195.398 159.46C193.542 159.46 192.304 160.507 192.304 162.697V163.506C192.304 165.695 193.494 166.933 195.398 168.789L199.587 172.931C203.157 176.548 204.87 178.738 204.87 183.022V184.926C204.87 190.257 202.014 194.065 195.35 194.065C188.686 194.065 186.116 190.257 186.116 185.164Z" fill="white"/>
<path d="M207.298 154.652H224.672V159.984H219.246V193.542H212.629V159.984H207.25V154.652H207.298Z" fill="white"/>
<path d="M228.29 154.652H234.811V193.542H228.29V154.652Z" fill="white"/>
<path d="M238.428 154.652H255.802V159.984H250.424V193.542H243.807V159.984H238.428V154.652V154.652Z" fill="white"/>
<path d="M278.412 154.652V184.069C278.412 190.067 275.842 194.018 269.178 194.018C262.276 194.018 259.42 190.114 259.42 184.069V154.652H265.941V184.688C265.941 186.973 266.846 188.544 269.178 188.544C271.51 188.544 272.415 187.02 272.415 184.688V154.652H278.412Z" fill="white"/>
<path d="M281.982 154.652H299.356V159.984H293.978V193.542H287.361V159.984H281.982V154.652V154.652Z" fill="white"/>
<path d="M302.974 154.652H309.495V193.542H302.974V154.652Z" fill="white"/>
<path d="M313.874 183.498V164.696C313.874 158.603 316.873 154.176 323.728 154.176C330.582 154.176 333.676 158.603 333.676 164.696V183.498C333.676 189.543 330.677 194.018 323.775 194.018C316.873 194.018 313.874 189.543 313.874 183.498ZM327.107 184.545V163.649C327.107 161.316 326.06 159.65 323.728 159.65C321.395 159.65 320.396 161.316 320.396 163.649V184.545C320.396 186.877 321.443 188.543 323.728 188.543C326.012 188.543 327.107 186.877 327.107 184.545Z" fill="white"/>
<path d="M343.482 169.123V193.589H337.96V154.7H344.386L351.431 177.024V154.7H356.905V193.589H351.145L343.482 169.123Z" fill="white"/>
<path d="M360.856 185.164V179.928H366.948V185.259C366.948 187.449 367.9 188.686 370.185 188.686C372.232 188.686 373.184 187.306 373.184 185.259V183.783C373.184 181.546 372.28 180.166 370.233 178.262L366.377 174.406C362.664 170.741 360.903 168.504 360.903 164.029V162.697C360.903 157.889 363.712 154.129 370.09 154.129C376.611 154.129 379.229 157.365 379.229 162.982V166.124H373.279V162.792C373.279 160.555 372.232 159.46 370.185 159.46C368.329 159.46 367.091 160.507 367.091 162.697V163.506C367.091 165.695 368.281 166.933 370.185 168.789L374.374 172.931C377.944 176.548 379.658 178.738 379.658 183.022V184.926C379.658 190.257 376.802 194.065 370.138 194.065C363.474 194.065 360.856 190.257 360.856 185.164Z" fill="white"/>
</g>
<defs>
<clipPath id="clip0">
<rect width="476" height="476" fill="white"/>
</clipPath>
</defs>
</svg>
