<svg width="476" height="476" viewBox="0 0 476 476" fill="none" xmlns="http://www.w3.org/2000/svg">
<path d="M5 5H471V471H5V5Z" stroke="white" stroke-width="10"/>
<path d="M143.371 78.7304V81.396L155.7 83.6808V78.778L150.892 77.8736C154.224 76.2552 155.7 72.9232 155.7 68.6868V49.8372C155.7 43.7444 152.701 39.3176 145.799 39.3176C138.897 39.3176 135.946 43.7444 135.946 49.8372V68.6868C135.898 73.9704 138.135 77.826 143.371 78.7304ZM142.467 48.8376C142.467 46.5052 143.514 44.8392 145.799 44.8392C148.084 44.8392 149.178 46.5052 149.178 48.8376V70.0672C149.178 72.352 148.131 74.0656 145.799 74.0656C143.466 74.0656 142.467 72.352 142.467 70.0672V48.8376Z" fill="white"/>
<path d="M169.789 79.2065C176.453 79.2065 179.024 75.3033 179.024 69.2581V39.8413H172.978V69.9245C172.978 72.2093 172.074 73.7801 169.742 73.7801C167.409 73.7801 166.505 72.2093 166.505 69.9245V39.8413H159.936V69.3057C160.031 75.3033 162.887 79.2065 169.789 79.2065Z" fill="white"/>
<path d="M188.734 71.6381H195.636L196.826 78.7781H203.538L196.16 39.8413H188.686L181.356 78.7305H187.544L188.734 71.6381ZM192.161 50.7893H192.209L194.779 66.4021H189.543L192.161 50.7893Z" fill="white"/>
<path d="M221.197 73.3993H213.391V39.8413H206.87V78.7305H221.197V73.3993Z" fill="white"/>
<path d="M230.765 39.8413H224.244V78.7781H230.765V39.8413Z" fill="white"/>
<path d="M239.238 78.7305H245.854V45.1725H251.233V39.8413H233.859V45.1725H239.238V78.7305Z" fill="white"/>
<path d="M260.515 78.7305H267.084V63.9269L274.271 39.8413H268.036L264.085 54.5973H264.037L260.039 39.8413H253.232L260.515 63.9269V78.7305Z" fill="white"/>
<path d="M151.511 130.472H142.467V118.667H148.94V113.383H142.467V102.245H151.511V96.9136H135.898V135.803H151.511V130.472Z" fill="white"/>
<path d="M175.12 125.378V107.338C175.12 101.293 172.645 96.866 165.648 96.866H155.557V135.803H165.648C172.645 135.803 175.12 131.328 175.12 125.378ZM162.078 130.424V102.245H164.839C167.552 102.245 168.552 103.863 168.552 106.148V126.521C168.552 128.853 167.504 130.472 164.839 130.472L162.078 130.424Z" fill="white"/>
<path d="M179.404 96.9136V126.378C179.404 132.423 182.26 136.326 189.162 136.326C195.826 136.326 198.397 132.423 198.397 126.378V96.9136H192.399V126.997C192.399 129.282 191.495 130.852 189.162 130.852C186.83 130.852 185.926 129.329 185.926 126.997V96.9136H179.404V96.9136Z" fill="white"/>
<path d="M202.681 125.759C202.681 131.804 205.537 136.279 212.439 136.279C219.341 136.279 221.673 132.137 221.673 126.568V119.857H215.723V127.044C215.723 129.329 214.914 130.852 212.581 130.852C210.249 130.852 209.249 129.186 209.249 126.806V105.91C209.249 103.577 210.201 101.912 212.581 101.912C214.961 101.912 215.723 103.292 215.723 105.72V110.813H221.673V106.196C221.673 100.484 219.674 96.4375 212.439 96.4375C205.537 96.4375 202.681 100.864 202.681 106.957V125.759Z" fill="white"/>
<path d="M231.05 128.71H238L239.19 135.85H245.902L238.476 96.9136H231.003L223.672 135.85H229.86L231.05 128.71ZM234.478 107.862H234.525L237.096 123.474H231.86L234.478 107.862Z" fill="white"/>
<path d="M245.092 102.245H250.471V135.803H257.088V102.245H262.466V96.9136H245.092V102.245Z" fill="white"/>
<path d="M272.653 96.9136H266.084V135.85H272.653V96.9136Z" fill="white"/>
<path d="M286.885 136.279C293.835 136.279 296.786 131.805 296.786 125.759V106.91C296.786 100.817 293.787 96.3901 286.885 96.3901C279.983 96.3901 277.032 100.817 277.032 106.91V125.759C276.984 131.805 279.983 136.279 286.885 136.279ZM283.553 105.91C283.553 103.578 284.6 101.912 286.885 101.912C289.17 101.912 290.265 103.578 290.265 105.91V126.807C290.265 129.187 289.218 130.853 286.885 130.853C284.553 130.853 283.553 129.187 283.553 126.807V105.91Z" fill="white"/>
<path d="M306.592 111.336L314.303 135.803H320.015V96.9136H314.588V119.238L307.496 96.9136H301.118V135.803H306.592V111.336Z" fill="white"/>
<path d="M74.5416 135.85H89.8212V120.285H96.3424V107.671H89.8212V39.8887H73.9704L46.1244 110.384V120.285H74.5892V135.85H74.5416ZM60.2616 107.719L74.6844 68.2107H74.8272V107.719H60.2616Z" fill="white"/>
<path d="M208.631 255.231L123.284 205.917V365.377L208.631 391.129V255.231Z" fill="white"/>
<path d="M218.008 255.564V391.224L303.926 365.377V205.917L218.008 255.564Z" fill="white"/>
<path d="M370.947 201.871C371.09 196.302 366.663 191.685 361.046 191.542C355.477 191.399 350.86 195.826 350.717 201.443C350.717 201.586 350.717 201.729 350.717 201.871V212.772H370.899V201.871H370.947Z" fill="white"/>
<path d="M353.287 362.569H350.765L360.856 397.841L370.947 362.569H368.424H370.947V220.673H368.424H365.949H363.283H358.238H355.763H353.287H350.765V362.569H353.287Z" fill="white"/>
<path d="M322.3 212.772L313.113 205.537V369.709L218.294 400.363H213.867H213.01H208.631L114.192 373.993V205.537L105.053 212.772V380.419L208.202 408.979H213.01H213.867H218.722L313.874 378.753L322.3 376.278V212.772Z" fill="white"/>
</svg>
