<svg width="476" height="476" viewBox="0 0 476 476" fill="none" xmlns="http://www.w3.org/2000/svg">
<path d="M5 5H471V471H5V5Z" stroke="white" stroke-width="10"/>
<path d="M144.133 79.2064C147.703 79.2064 149.559 77.4452 150.368 74.494V78.7304H155.081V57.9292H145.799V63.07H148.893V69.972C148.893 72.4948 147.798 73.6848 145.656 73.6848C143.419 73.6848 142.419 72.0188 142.419 69.6864V48.79C142.419 46.4576 143.466 44.7916 145.799 44.7916C148.131 44.7916 149.083 46.172 149.083 48.5996V52.5504H155.033V49.1232C155.033 43.3636 152.891 39.3652 145.704 39.3652C138.802 39.3652 135.898 43.792 135.898 49.8848V68.7344C135.898 74.732 138.516 79.2064 144.133 79.2064Z" fill="white"/>
<path d="M174.978 73.3993H165.934V61.5945H172.407V56.3109H165.934V45.1725H174.978V39.8413H159.412V78.7305H174.978V73.3993Z" fill="white"/>
<path d="M184.593 54.3117L192.256 78.7305H198.016V39.8413H192.542V62.1657L185.497 39.8413H179.071V78.7305H184.593V54.3117Z" fill="white"/>
<path d="M221.864 68.3059V50.2655C221.864 44.2203 219.388 39.7935 212.391 39.7935H202.3V78.7303H212.391C219.388 78.7303 221.864 74.2559 221.864 68.3059ZM208.821 73.3515V45.1723H211.582C214.295 45.1723 215.295 46.7907 215.295 49.0755V69.4483C215.295 71.7807 214.248 73.3991 211.582 73.3991L208.821 73.3515Z" fill="white"/>
<path d="M241.808 73.3993H232.716V61.5945H239.238V56.3109H232.716V45.1725H241.808V39.8413H226.195V78.7305H241.808V73.3993Z" fill="white"/>
<path d="M252.375 60.8805L258.468 78.7305H265.37L259.134 61.0709C262.847 60.2141 264.37 57.7389 264.37 53.5501V48.5521C264.37 43.0781 261.943 39.8413 255.374 39.8413H245.854V78.7781H252.423L252.375 60.8805ZM252.375 45.1725H254.565C256.802 45.1725 257.802 46.2197 257.802 48.3141V54.0261C257.802 56.1205 256.85 57.2629 254.565 57.2629H252.375V45.1725Z" fill="white"/>
<path d="M151.511 130.472H142.467V118.667H148.94V113.383H142.467V102.245H151.511V96.9136H135.898V135.803H151.511V130.472Z" fill="white"/>
<path d="M163.03 135.803V138.468L175.358 140.753V135.898L170.551 134.994C173.883 133.375 175.358 130.043 175.358 125.807V106.957C175.358 100.864 172.36 96.4375 165.41 96.4375C158.46 96.4375 155.557 100.864 155.557 106.957V125.807C155.557 131.043 157.794 134.898 163.03 135.803ZM162.078 105.91C162.078 103.577 163.125 101.912 165.41 101.912C167.695 101.912 168.79 103.577 168.79 105.91V127.14C168.79 129.424 167.742 131.138 165.41 131.138C163.078 131.138 162.078 129.424 162.078 127.14V105.91Z" fill="white"/>
<path d="M179.595 96.9136V126.378C179.595 132.423 182.451 136.326 189.353 136.326C196.017 136.326 198.587 132.423 198.587 126.378V96.9136H192.59V126.997C192.59 129.282 191.685 130.852 189.353 130.852C187.02 130.852 186.116 129.329 186.116 126.997V96.9136H179.595V96.9136Z" fill="white"/>
<path d="M209.154 128.71H216.104L217.294 135.85H224.006L216.628 96.9136H209.154L201.824 135.803H208.012L209.154 128.71ZM212.582 107.862H212.629L215.2 123.474H209.964L212.582 107.862Z" fill="white"/>
<path d="M227.242 96.9136V135.803H241.57V130.472H233.764V96.9136H227.242Z" fill="white"/>
<path d="M251.614 96.9136H245.045V135.85H251.614V96.9136Z" fill="white"/>
<path d="M267.179 135.803V102.245H272.558V96.9136H255.184V102.245H260.562V135.803H267.179Z" fill="white"/>
<path d="M282.316 135.803H288.837V120.999L296.072 96.9136H289.836L285.886 111.622H285.79L281.84 96.9136H275.033L282.316 120.999V135.803Z" fill="white"/>
<path d="M75.8744 70.2577C69.496 70.2577 64.8312 72.5425 62.2608 76.9217H62.118V52.9789H89.8688V39.8413H47.4572V93.9149H62.1656V91.7729C62.1656 86.1085 64.736 83.0145 69.258 83.0145C74.2084 83.0145 76.2076 86.3941 76.2076 91.6777V114.906C76.2076 120 74.3512 123.522 69.4008 123.522C63.8792 123.522 61.88 119.857 61.88 114.192V102.15H47.1716V113.05C47.1716 127.616 52.9788 136.993 69.4008 136.993C85.68 136.993 92.344 128.377 92.344 115.049V91.5349C92.2964 76.3505 84.5376 70.2577 75.8744 70.2577Z" fill="white"/>
<path d="M346.671 180.118H287.552C287.123 180.118 286.79 180.452 286.79 180.88V200.539C286.79 200.967 287.123 201.3 287.552 201.3H311.114L284.934 227.48C271.32 216.77 254.517 210.916 237.143 210.916C194.398 210.916 159.65 245.664 159.65 288.408C159.65 327.726 189.115 360.284 227.147 365.235V387.892H203.823C203.395 387.892 203.062 388.226 203.062 388.606V409.693C203.062 410.122 203.395 410.455 203.823 410.455H227.147V432.684C227.147 433.112 227.48 433.446 227.909 433.446H248.948C249.376 433.446 249.71 433.112 249.71 432.684V410.407H273.034C273.462 410.407 273.795 410.074 273.795 409.646V388.559C273.795 388.13 273.462 387.797 273.034 387.797H249.71V364.759C286.504 358.809 314.636 326.822 314.636 288.361C314.636 272.415 309.686 256.85 300.499 243.807L326.298 218.008V239.999C326.298 240.428 326.631 240.761 327.06 240.761H346.718C347.147 240.761 347.48 240.428 347.48 239.999V180.88C347.48 180.452 347.099 180.118 346.671 180.118ZM237.143 345.433C205.632 345.433 180.118 319.92 180.118 288.408C180.118 256.897 205.632 231.384 237.143 231.384C268.654 231.384 294.168 256.897 294.168 288.408C294.168 319.872 268.654 345.386 237.143 345.433Z" fill="white"/>
<path d="M272.605 264.989H203.395C203.014 264.989 202.681 265.275 202.633 265.656V282.411C202.633 282.792 202.966 283.125 203.395 283.077H272.558C272.938 283.125 273.319 282.792 273.319 282.411V265.656C273.319 265.227 272.986 264.942 272.605 264.989Z" fill="white"/>
<path d="M272.605 294.882H203.395C203.014 294.882 202.681 295.168 202.633 295.596V312.351C202.633 312.732 202.966 313.065 203.395 313.018H272.558C272.938 313.065 273.319 312.732 273.319 312.351V295.596C273.319 295.168 272.986 294.834 272.605 294.882Z" fill="white"/>
</svg>
