<svg width="476" height="476" viewBox="0 0 476 476" fill="none" xmlns="http://www.w3.org/2000/svg">
<path d="M5 471V5H471V471H5Z" stroke="#222222" stroke-width="10"/>
<path d="M152.13 39.8413V78.7781H166.457V73.4469H158.651V39.8413H152.13Z" fill="#222222"/>
<path d="M176.548 39.8413H170.027V78.7781H176.548V39.8413Z" fill="#222222"/>
<path d="M180.88 78.7781H187.401V61.5945H193.97V56.3109H187.401V45.1725H196.16V39.8413H180.88V78.7781Z" fill="#222222"/>
<path d="M199.634 78.7781H215.247V73.4469H206.156V61.5945H212.677V56.3109H206.156V45.1725H215.247V39.8413H199.634V78.7781Z" fill="#222222"/>
<path d="M34.8432 57.2629V74.1133H34.986L46.3148 62.3561H46.4576V135.803H62.594V39.8413H49.6944L34.8432 57.2629Z" fill="#222222"/>
<path d="M100.96 70.2577C94.5812 70.2577 89.9164 72.5425 87.346 76.9217H87.2032V52.9789H114.954V39.8413H72.4948V93.9149H87.2032V91.7729C87.2032 86.1085 89.7736 83.0145 94.2956 83.0145C99.246 83.0145 101.245 86.3941 101.245 91.6301V114.859C101.245 119.952 99.3888 123.475 94.4384 123.475C88.9168 123.475 86.9652 119.809 86.9652 114.145V102.102H72.2092V113.003C72.2092 127.568 78.0164 136.898 94.4384 136.898C110.718 136.898 117.382 128.282 117.382 114.954V91.4397C117.334 76.3505 109.575 70.2577 100.96 70.2577Z" fill="#222222"/>
<path d="M152.082 125.807V107.053C152.082 101.007 155.033 96.5806 161.935 96.5806C168.837 96.5806 171.836 100.96 171.836 107.053V125.807C171.836 131.805 168.885 136.279 161.935 136.279C154.986 136.279 152.082 131.805 152.082 125.807ZM165.267 126.854V106.053C165.267 103.721 164.22 102.055 161.888 102.055C159.555 102.055 158.556 103.721 158.556 106.053V126.854C158.556 129.187 159.603 130.853 161.888 130.853C164.172 130.853 165.267 129.187 165.267 126.854Z" fill="#222222"/>
<path d="M180.975 111.479V135.803H175.501V97.0564H181.927L188.924 119.286V97.0564H194.398V135.803H188.686L180.975 111.479Z" fill="#222222"/>
<path d="M208.488 97.0564H215.009V130.519H222.816V135.803H208.488V97.0564Z" fill="#222222"/>
<path d="M224.72 135.803L232.05 97.0564H239.476L246.854 135.803H240.142L238.952 128.71H232.05L230.908 135.803H224.72ZM232.907 123.522H238.095L235.525 107.957H235.477L232.907 123.522Z" fill="#222222"/>
<path d="M254.993 111.479V135.803H249.519V97.0564H255.945L262.942 119.286V97.0564H268.369V135.803H262.657L254.993 111.479Z" fill="#222222"/>
<path d="M292.121 107.481V125.426C292.121 131.376 289.646 135.85 282.696 135.85H272.653V97.1039H282.696C289.646 97.0563 292.121 101.436 292.121 107.481ZM281.887 130.519C284.553 130.519 285.6 128.901 285.6 126.568V106.291C285.6 104.006 284.553 102.388 281.887 102.388H279.126V130.519H281.887Z" fill="#222222"/>
<path d="M199.539 321.823C200.11 321.823 200.586 322.299 200.586 322.871V357.524C200.586 358.095 200.11 358.571 199.539 358.571H185.497C184.926 358.571 184.45 358.095 184.45 357.524V322.871C184.45 322.299 184.926 321.823 185.497 321.823H199.539Z" fill="#222222"/>
<path d="M353.573 373.469H122.427C121.856 373.469 121.38 373.946 121.38 374.564V388.702C121.38 389.273 121.856 389.749 122.427 389.749H353.573C354.144 389.749 354.62 389.273 354.62 388.702V374.564C354.62 373.993 354.144 373.517 353.573 373.469Z" fill="#222222"/>
<path d="M353.573 401.553H122.427C121.856 401.553 121.38 402.029 121.38 402.601V416.785C121.38 417.357 121.856 417.833 122.427 417.833H353.573C354.144 417.833 354.62 417.357 354.62 416.785V402.601C354.62 402.029 354.144 401.553 353.573 401.553Z" fill="#222222"/>
<path d="M309.59 283.458C306.687 281.173 298.976 275.937 289.598 275.937C282.887 275.937 276.651 278.603 271.034 283.839C270.654 284.219 270.416 284.743 270.416 285.267V286.552C270.368 287.171 270.654 287.742 271.082 288.123C271.51 288.503 272.129 288.646 272.7 288.503C272.843 288.503 272.986 288.456 273.129 288.408C273.557 288.265 273.938 287.98 274.271 287.694C275.461 286.885 278.793 285.79 283.553 285.79C288.456 285.79 298.071 287.123 307.353 295.786L307.591 295.977C308.115 296.5 308.829 296.833 309.59 296.833C310.304 296.833 311.018 296.548 311.542 296.024L311.732 295.834C321.062 287.171 330.677 285.838 335.58 285.838C340.34 285.838 343.672 286.933 344.862 287.742C345.243 288.075 345.671 288.361 346.147 288.503C346.576 288.599 347.052 288.599 347.48 288.503C348.337 288.265 348.956 287.504 348.956 286.599V285.505C348.956 284.981 348.718 284.457 348.337 284.077C342.672 278.698 336.389 275.985 329.535 275.985C320.205 275.937 312.542 281.125 309.59 283.458Z" fill="#222222"/>
<path d="M295.263 191.352C294.787 191.59 294.406 192.018 294.263 192.59L294.025 193.351C293.835 193.922 293.978 194.589 294.311 195.065C294.644 195.541 295.168 195.826 295.739 195.826C295.834 195.826 295.929 195.826 296.024 195.826C296.405 195.826 296.786 195.731 297.119 195.541C297.595 195.446 298.071 195.398 298.547 195.398C299.594 195.398 308.924 195.731 315.064 206.203L315.16 206.346C315.445 206.917 316.016 207.346 316.635 207.536C316.873 207.584 317.111 207.631 317.349 207.631C317.778 207.631 318.158 207.536 318.539 207.346L318.682 207.25C321.871 205.632 325.394 204.728 329.011 204.68C334.866 204.68 338.674 207.06 339.578 208.06C339.769 208.393 340.007 208.678 340.34 208.916C340.578 209.059 340.816 209.154 341.102 209.297C341.197 209.345 341.34 209.345 341.435 209.345C341.482 209.345 341.578 209.345 341.625 209.345C341.958 209.345 342.244 209.25 342.53 209.107C343.006 208.869 343.339 208.44 343.529 207.917L343.72 207.25C343.767 207.06 343.815 206.87 343.815 206.679C343.815 206.346 343.72 205.965 343.529 205.68C339.055 197.873 332.534 196.255 327.869 196.255C325.013 196.302 322.204 196.826 319.539 197.826C317.444 194.97 312.066 189.067 303.926 189.067C300.88 189.162 297.928 189.924 295.263 191.352Z" fill="#222222"/>
<path d="M246.425 226.909L246.473 227.956C246.52 229.051 247.472 229.86 248.567 229.813C248.71 229.813 248.805 229.765 248.948 229.765C249.043 229.718 249.186 229.718 249.281 229.67C249.662 229.527 249.995 229.242 250.281 228.956C251.28 228.242 254.422 226.957 259.087 226.957C263.561 226.957 270.416 228.147 277.365 233.859L277.508 234.049C277.984 234.478 278.65 234.716 279.317 234.716H279.507C280.221 234.668 280.84 234.335 281.316 233.859L281.459 233.668C289.17 225.529 297.452 224.291 301.736 224.291C304.783 224.291 306.925 224.91 307.782 225.386C308.115 225.672 308.543 225.91 308.972 226.005C309.4 226.1 309.876 226.1 310.304 225.957C311.114 225.672 311.685 224.862 311.637 223.958L311.59 223.054C311.542 222.53 311.304 222.006 310.876 221.673C306.258 217.818 301.308 215.866 296.072 215.866C287.932 215.866 281.459 220.674 278.793 223.006C276.318 221.34 270.368 217.865 263.371 217.865C257.23 217.865 251.709 220.436 246.949 225.434C246.568 225.814 246.378 226.338 246.425 226.909Z" fill="#222222"/>
<path d="M129.424 245.473C129.424 231.622 140.658 220.388 154.462 220.388C154.986 220.388 155.509 220.436 156.08 220.483C157.461 201.824 173.74 187.83 192.399 189.21C211.058 190.59 225.053 206.87 223.672 225.529C223.339 229.813 222.244 234.002 220.34 237.857C240.761 242.379 253.66 262.562 249.186 283.03C245.33 300.404 229.956 312.78 212.153 312.732C210.63 312.732 161.602 312.446 161.602 312.446C146.798 312.446 134.803 300.499 134.756 285.695C134.756 278.841 137.374 272.224 142.086 267.274C134.232 262.752 129.424 254.422 129.424 245.473Z" fill="#222222"/>
</svg>
