<svg width="475" height="475" fill="none" xmlns="http://www.w3.org/2000/svg"><path d="M5 470V5h465v465H5z" stroke="#fff" stroke-width="10"/><path d="M142 54v24h-5V39h6l7 23V39h5v39h-5l-8-24zM170 79c7 0 10-5 10-11V49c0-6-3-10-10-10s-10 4-10 10v19c0 6 3 11 10 11zm-4-31c0-2 1-4 4-4 2 0 3 2 3 4v21c0 3-1 4-3 4-3 0-4-1-4-4V48zM143 122h3c7 0 9-3 9-8v-9c0-5-2-8-9-8h-9v39h6v-14zm0-20h3c2 0 3 1 3 3v9c0 2-1 3-3 3h-3v-15zM169 136c7 0 10-4 10-10v-19c0-6-3-11-10-11s-10 5-10 11v19c0 6 3 10 10 10zm-3-30c0-3 1-4 3-4s3 1 3 4v21c0 2-1 4-3 4s-3-2-3-4v-21zM196 136l7-39h-6l-5 27-4-27h-7l7 39h8zM222 130h-9v-12h6v-5h-6v-11h9v-5h-16v39h16v-6zM232 118l6 18h7l-6-18c4-1 5-3 5-8v-5c0-5-2-8-9-8h-9v39h6v-18zm0-16h3c2 0 3 1 3 3v6c0 2-1 3-3 3h-3v-12zM252 136h7v-34h5v-5h-17v5h5v34zM274 136h7v-15l7-24h-6l-4 14-4-14h-7l7 24v15zM66 62v74h17V40H70L55 57v17l11-12zM366 227a13 13 0 1 1 26 0 13 13 0 0 1-26 0zM394 245a18 18 0 0 1 16 17v37a5 5 0 1 1-10 0v-32c0-1 0-2-2-2s-2 1-2 2v94a7 7 0 0 1-15 0v-54c0-1 0-2-2-2s-2 1-2 2v54a7 7 0 1 1-15 0v-94c0-1 0-2-2-2s-2 1-2 2v32a5 5 0 0 1-10 0v-37a18 18 0 0 1 17-17h29M288 234a12 12 0 1 0-25 0 12 12 0 0 0 25 0zM250 262l-10 33s-2 7 3 8c5 2 7-4 7-4l8-28s1-3 2-2c2 0 1 3 1 3l-14 52h13v38a6 6 0 0 0 13 0v-38h4v38a6 6 0 0 0 13 0v-38h13l-14-52s-1-3 1-3c2-1 2 2 2 2l8 28s2 6 7 4c5-1 4-8 4-8l-11-33s-3-10-12-10h-26c-8 0-12 10-12 10M213 234a12 12 0 1 0-25 0 12 12 0 0 0 25 0zM175 262l-10 33s-2 7 4 8c5 2 6-4 6-4l9-28s0-3 2-2l1 3-15 52h14v38a6 6 0 0 0 13 0v-38h3v38a6 6 0 0 0 13 0v-38h14l-15-52 1-3c2-1 2 2 2 2l9 28s1 6 7 4c5-1 3-8 3-8l-10-33s-4-10-12-10h-27c-8 0-12 10-12 10zM329 303a10 10 0 1 0 0-21 10 10 0 0 0 0 21zM305 335c-1 2-1 4 1 5 3 2 5-1 5-1l5-18h1v42a5 5 0 0 0 11 0v-16s-1-3 1-3 2 3 2 3v16a5 5 0 0 0 11 0v-42c0-1 0 0 0 0l5 12 2 6a4 4 0 0 0 5-2 4 4 0 0 0 0-4l-7-19c-3-7-7-7-11-7h-7-8c-5 0-7 3-13 19l-3 9zM89 240a13 13 0 1 0 0-27 13 13 0 0 0 0 27zM104 245H74h-1a18 18 0 0 0-16 17v37a5 5 0 0 0 3 4v1l-12 62a2 2 0 0 0 2 2 2 2 0 0 0 2-2l12-62a5 5 0 0 0 3-5v-32c0-1 1-2 3-2l2 2v94a7 7 0 1 0 14 0v-54a2 2 0 0 1 3-2c2 0 2 1 2 2v54a7 7 0 1 0 14 0v-94l2-2c2 0 3 1 3 2v32a5 5 0 0 0 10 0v-37a18 18 0 0 0-16-17z" fill="#fff"/><path d="M155 320l10-17 1-3a4 4 0 0 0-7-2c-1 0-5 9-7 10l-3 2h-13l-3-2c-2-1-6-10-7-10a4 4 0 0 0-7 2l1 1 10 19 1 3v4l-6 20h6v16a5 5 0 0 0 10 0v-16h3v16a5 5 0 1 0 10 0v-16h6l-6-21v-3l1-3z" fill="#fff"/><path d="M142 303a10 10 0 1 0 0-21 10 10 0 0 0 0 21z" fill="#fff"/></svg>