<svg width="476" height="476" viewBox="0 0 476 476" fill="none" xmlns="http://www.w3.org/2000/svg">
<path d="M5 471V5H471V471H5Z" stroke="#222222" stroke-width="10"/>
<path d="M139.23 79.2064C145.894 79.2064 148.75 75.3984 148.75 70.0672V68.1632C148.75 63.8792 147.036 61.6896 143.466 58.072L139.278 53.9308C137.374 52.0744 136.184 50.8368 136.184 48.6472V47.838C136.184 45.6484 137.421 44.6012 139.278 44.6012C141.324 44.6012 142.372 45.696 142.372 47.9332V51.3128H148.322V48.1712C148.322 42.5544 145.751 39.3176 139.182 39.3176C132.804 39.3176 129.996 43.0304 129.996 47.8856V49.2184C129.996 53.6928 131.709 55.93 135.47 59.5952L139.325 63.4508C141.324 65.3548 142.229 66.7352 142.229 68.9724V70.448C142.229 72.5424 141.324 73.8752 139.23 73.8752C136.993 73.8752 135.993 72.6376 135.993 70.448V65.1168H129.9V70.3528C130.043 75.4936 132.614 79.254 139.23 79.2064Z" fill="#222222"/>
<path d="M170.646 69.2581V39.8413H164.601V69.9245C164.601 72.2093 163.696 73.7801 161.364 73.7801C159.032 73.7801 158.175 72.2569 158.175 69.9245V39.8413H151.606V69.3057C151.606 75.3509 154.462 79.2541 161.364 79.2541C168.028 79.2065 170.646 75.3033 170.646 69.2581Z" fill="#222222"/>
<path d="M192.732 70.0672V68.1632C192.732 63.8792 191.019 61.6896 187.449 58.072L183.26 53.9308C181.356 52.122 180.166 50.8368 180.166 48.6472V47.838C180.166 45.6484 181.451 44.6012 183.26 44.6012C185.307 44.6012 186.354 45.696 186.354 47.9332V51.3128H192.304V48.1712C192.304 42.5544 189.734 39.3176 183.165 39.3176C176.786 39.3176 173.978 43.0304 173.978 47.8856V49.2184C173.978 53.6928 175.692 55.93 179.452 59.5952L183.308 63.4508C185.307 65.3548 186.211 66.7352 186.211 68.9724V70.448C186.211 72.4948 185.307 73.8752 183.212 73.8752C180.975 73.8752 179.976 72.59 179.976 70.448V65.0692H173.93V70.3052C173.93 75.3984 176.501 79.1588 183.165 79.1588C189.829 79.1588 192.732 75.3984 192.732 70.0672Z" fill="#222222"/>
<path d="M211.677 39.8413H194.303V45.1725H199.682V78.7305H206.298V45.1725H211.677V39.8413Z" fill="#222222"/>
<path d="M225.243 39.8413H217.77L210.44 78.7781H216.628L217.77 71.6857H224.72L225.91 78.7781H232.621L225.243 39.8413ZM218.674 66.4021L221.245 50.7893H221.292L223.863 66.4021H218.674Z" fill="#222222"/>
<path d="M241.808 39.8413H235.287V78.7781H241.808V39.8413Z" fill="#222222"/>
<path d="M264.513 78.7305V39.8413H259.039V62.1657L251.994 39.8413H245.568V78.7305H251.09V54.3117L258.754 78.7305H264.513Z" fill="#222222"/>
<path d="M273.986 71.6381H280.935L282.125 78.7781H288.837L281.459 39.8413H273.986L266.655 78.7781H272.843L273.986 71.6381ZM277.413 50.7893H277.46L280.031 66.4021H274.795L277.413 50.7893Z" fill="#222222"/>
<path d="M309.114 52.3601V48.4093C309.114 42.8877 306.925 39.8413 300.404 39.8413H290.931V78.7781H301.07C307.639 78.7781 310.066 75.7317 310.066 70.2101V65.0693C310.066 61.4993 308.448 59.3097 305.211 58.5957C307.924 57.6913 309.114 55.5969 309.114 52.3601ZM297.5 45.1725H299.737C301.927 45.1725 302.879 46.2197 302.879 48.3141V53.0741C302.879 55.1209 301.879 56.2157 299.785 56.2157H297.5V45.1725ZM303.593 70.2577C303.593 72.3045 302.546 73.3993 300.404 73.3993H297.548V61.2137H300.356C302.641 61.2137 303.64 62.3085 303.64 64.3553L303.593 70.2577Z" fill="#222222"/>
<path d="M319.348 39.8413H312.78V78.7305H327.107V73.3993H319.348V39.8413Z" fill="#222222"/>
<path d="M345.148 45.1725V39.8413H329.535V78.7305H345.148V73.3993H336.056V61.5945H342.577V56.3109H336.056V45.1725H345.148Z" fill="#222222"/>
<path d="M365.901 79.2064C372.851 79.2064 375.136 75.0652 375.136 69.496V62.7844H369.186V69.972C369.186 72.2568 368.376 73.7324 366.044 73.7324C363.712 73.7324 362.712 72.0664 362.712 69.734V48.8376C362.712 46.4576 363.664 44.8392 366.044 44.8392C368.424 44.8392 369.186 46.2196 369.186 48.6472V53.7404H375.136V49.1232C375.136 43.3636 373.136 39.3652 365.901 39.3652C358.999 39.3652 356.143 43.792 356.143 49.8848V68.7344C356.143 74.732 358.999 79.2064 365.901 79.2064Z" fill="#222222"/>
<path d="M384.751 39.8413H378.23V78.7781H384.751V39.8413Z" fill="#222222"/>
<path d="M399.269 78.7305V45.1725H404.648V39.8413H387.226V45.1725H392.652V78.7305H399.269Z" fill="#222222"/>
<path d="M413.692 39.8413H407.17V78.7781H413.692V39.8413Z" fill="#222222"/>
<path d="M417.071 78.7305H432.684V73.3993H423.64V61.5945H430.114V56.3109H423.64V45.1725H432.684V39.8413H417.071V78.7305Z" fill="#222222"/>
<path d="M443.775 53.9308C441.871 52.0744 440.681 50.8368 440.681 48.6472V47.838C440.681 45.6484 441.918 44.6012 443.775 44.6012C445.869 44.6012 446.869 45.696 446.869 47.9332V51.3128H452.819V48.1712C452.819 42.5544 450.248 39.3176 443.68 39.3176C437.301 39.3176 434.493 43.0304 434.493 47.8856V49.2184C434.493 53.6928 436.206 55.93 439.919 59.5952L443.775 63.4508C445.774 65.3548 446.726 66.7352 446.726 68.9724V70.448C446.726 72.5424 445.822 73.8752 443.727 73.8752C441.49 73.8752 440.49 72.6376 440.49 70.448V65.1168H434.398V70.3528C434.398 75.446 436.968 79.2064 443.632 79.2064C450.296 79.2064 453.152 75.3984 453.152 70.0672V68.1632C453.152 63.8792 451.391 61.6896 447.868 58.072L443.775 53.9308Z" fill="#222222"/>
<path d="M137.469 96.9612L130.138 135.898H136.326L137.469 128.758H144.418L145.608 135.898H152.32L144.942 96.9612H137.469ZM138.326 123.522L140.896 107.909H140.944L143.514 123.522H138.326Z" fill="#222222"/>
<path d="M169.075 119.286L162.03 96.9612H155.604V135.85H161.126V111.432L168.79 135.85H174.549V96.9612H169.075V119.286Z" fill="#222222"/>
<path d="M188.924 96.9613H178.833V135.898H188.924C195.922 135.898 198.397 131.424 198.397 125.426V107.386C198.397 101.388 195.922 96.9137 188.924 96.9613ZM191.876 126.569C191.876 128.901 190.828 130.519 188.163 130.519H185.402V102.293H188.163C190.876 102.293 191.876 103.911 191.876 106.196V126.569Z" fill="#222222"/>
<path d="M219.055 96.4851C212.153 96.4851 209.297 100.912 209.297 107.005V125.854C209.297 131.852 212.153 136.374 219.055 136.374C225.957 136.374 228.29 132.233 228.29 126.664V119.952H222.34V127.092C222.34 129.377 221.53 130.9 219.198 130.9C216.866 130.9 215.866 129.234 215.866 126.902V106.005C215.866 103.673 216.866 102.007 219.198 102.007C221.53 102.007 222.34 103.387 222.34 105.815V110.908H228.29V106.338C228.29 100.531 226.29 96.5327 219.055 96.4851Z" fill="#222222"/>
<path d="M242.332 96.4851C235.43 96.4851 232.478 100.912 232.478 107.005V125.854C232.478 131.852 235.477 136.374 242.332 136.374C249.186 136.374 252.232 131.9 252.232 125.854V107.005C252.232 100.912 249.281 96.4851 242.332 96.4851ZM245.711 126.854C245.711 129.234 244.664 130.852 242.332 130.852C239.999 130.852 239 129.186 239 126.854V105.958C239 103.625 239.999 101.959 242.332 101.959C244.664 101.959 245.711 103.625 245.711 105.958V126.854Z" fill="#222222"/>
<path d="M268.464 118.857H268.416L264.18 96.9612H256.564V135.85H261.943V110.622H262.038L266.941 135.85H269.987L274.414 110.622H274.557V135.85H280.507V96.9612H272.272L268.464 118.857Z" fill="#222222"/>
<path d="M296.786 118.857H296.738L292.454 96.9612H284.838V135.85H290.217V110.622H290.36L295.215 135.85H298.262L302.688 110.622H302.831V135.85H308.829V96.9612H300.546L296.786 118.857Z" fill="#222222"/>
<path d="M326.108 127.044C326.108 129.329 325.203 130.9 322.918 130.9C320.634 130.9 319.682 129.329 319.682 127.044V96.9612H313.113V126.378C313.113 132.423 315.969 136.326 322.871 136.326C329.535 136.326 332.105 132.423 332.105 126.378V96.9612H326.06V127.044H326.108Z" fill="#222222"/>
<path d="M349.908 119.286L342.863 96.9612H336.437V135.85H341.958V111.432L349.622 135.85H355.382V96.9612H349.908V119.286Z" fill="#222222"/>
<path d="M34.1292 57.3103V74.1607H34.2244L45.5532 62.4035H45.696V135.85H61.8324V39.8887H48.9804L34.1292 57.3103Z" fill="#222222"/>
<path d="M70.924 57.3103V74.1607H71.0668L82.3956 62.4035H82.5384V135.85H98.6748V39.8887H85.7752L70.924 57.3103Z" fill="#222222"/>
<path d="M366.187 96.9612H359.666V135.898H366.187V96.9612Z" fill="#222222"/>
<path d="M369.804 102.292H375.183V135.85H381.752V102.292H387.178V96.9612H369.804V102.292Z" fill="#222222"/>
<path d="M397.365 96.9612H390.796V135.898H397.365V96.9612Z" fill="#222222"/>
<path d="M401.696 135.85H417.309V130.519H408.218V118.714H414.739V113.431H408.218V102.292H417.309V96.9612H401.696V135.85Z" fill="#222222"/>
<path d="M429.971 111.051C428.067 109.194 426.877 107.957 426.877 105.767V104.958C426.877 102.768 428.162 101.721 429.971 101.721C432.018 101.721 433.065 102.816 433.065 105.053V108.433H439.015V105.291C439.015 99.6743 436.444 96.4375 429.876 96.4375C423.497 96.4375 420.689 100.15 420.689 105.006V106.338C420.689 110.813 422.402 113.05 426.163 116.715L430.018 120.571C432.018 122.475 432.922 123.855 432.922 126.092V127.568C432.922 129.615 432.018 130.995 429.923 130.995C427.686 130.995 426.686 129.757 426.686 127.568V122.189H420.594V127.425C420.594 132.518 423.164 136.279 429.828 136.279C436.492 136.279 439.348 132.471 439.348 127.14V125.236C439.348 120.952 437.634 118.762 434.064 115.144L429.971 111.051Z" fill="#222222"/>
<path d="M78.54 362.379H150.13C151.082 362.379 151.892 361.617 151.892 360.665C151.892 360.237 151.749 359.808 151.416 359.475L151.32 359.38L115.716 313.303L115.382 312.922C115.049 312.541 114.573 312.351 114.097 312.351C113.669 312.351 113.24 312.541 112.955 312.827L112.764 313.065L112.431 313.446L77.6832 359.047L77.1596 359.713C76.9692 359.999 76.874 360.332 76.874 360.713C76.7788 361.569 77.5404 362.379 78.54 362.379Z" fill="#222222"/>
<path d="M149.892 368.9H78.1592C77.2072 368.9 76.398 369.709 76.398 370.661V426.781C76.398 427.733 77.1596 428.543 78.1592 428.543H101.245V393.223C101.245 392.271 102.007 391.462 103.006 391.462H124.426C125.378 391.462 126.188 392.224 126.188 393.223V428.543H149.892C150.844 428.543 151.654 427.733 151.654 426.781V370.661C151.654 369.662 150.844 368.9 149.892 368.9Z" fill="#222222"/>
<path d="M397.841 354.192H326.869C325.917 354.192 325.156 354.906 325.156 355.858V427.543C325.156 428.495 325.965 429.257 326.917 429.209H397.936C398.888 429.209 399.65 428.448 399.697 427.543V355.858C399.602 354.906 398.793 354.192 397.841 354.192C397.888 354.192 397.841 354.192 397.841 354.192ZM358.999 400.983C358.999 401.935 358.19 402.696 357.286 402.696H336.056C335.104 402.696 334.342 401.935 334.295 400.983V388.083C334.295 387.131 335.104 386.369 336.008 386.369H357.238C358.19 386.369 358.952 387.131 358.952 388.035V400.983H358.999ZM358.999 377.182C358.999 378.134 358.19 378.896 357.286 378.896H336.056C335.104 378.896 334.342 378.134 334.295 377.182V364.283C334.295 363.331 335.104 362.569 336.056 362.617H357.286C358.238 362.617 358.999 363.378 358.999 364.283V377.182ZM391.415 400.983C391.415 401.935 390.606 402.696 389.701 402.696H368.472C367.52 402.696 366.758 401.934 366.71 401.03V388.13C366.71 387.178 367.52 386.417 368.424 386.417H389.606C390.558 386.417 391.32 387.178 391.367 388.083L391.415 400.983ZM391.415 377.182C391.415 378.134 390.606 378.896 389.701 378.896H368.472C367.52 378.896 366.758 378.134 366.71 377.23V364.33C366.71 363.378 367.52 362.617 368.472 362.664H389.654C390.606 362.664 391.367 363.426 391.415 364.33V377.182Z" fill="#222222"/>
<path d="M232.812 187.734H163.316C162.364 187.734 161.602 188.496 161.602 189.448V426.924C161.602 427.876 162.364 428.638 163.316 428.638H232.812C233.764 428.638 234.525 427.876 234.525 426.924V189.448C234.478 188.496 233.716 187.734 232.812 187.734ZM191.447 401.601C191.447 402.125 191.019 402.506 190.543 402.506H174.644C174.121 402.506 173.74 402.077 173.74 401.601V383.894C173.74 383.37 174.168 382.99 174.644 382.99H190.543C191.066 382.99 191.447 383.37 191.447 383.894V401.601ZM191.447 360.856C191.447 361.379 191.019 361.76 190.543 361.76H174.644C174.168 361.76 173.74 361.332 173.74 360.856V343.148C173.74 342.625 174.121 342.244 174.644 342.244H190.543C191.066 342.244 191.447 342.625 191.447 343.148V360.856ZM191.447 320.158C191.447 320.681 191.019 321.062 190.543 321.062H174.644C174.121 321.062 173.74 320.634 173.74 320.158V302.403C173.74 301.879 174.168 301.498 174.644 301.498H190.543C191.066 301.498 191.447 301.927 191.447 302.403V320.158ZM191.447 279.412C191.447 279.936 191.019 280.316 190.543 280.316H174.644C174.121 280.316 173.74 279.888 173.74 279.412V261.705C173.74 261.229 174.168 260.8 174.644 260.8H190.543C191.019 260.8 191.447 261.181 191.447 261.705V279.412ZM191.447 238.714C191.447 239.238 191.019 239.618 190.543 239.618H174.644C174.121 239.618 173.74 239.19 173.74 238.714V220.959C173.74 220.436 174.168 220.055 174.644 220.055H190.543C191.066 220.055 191.447 220.483 191.447 220.959V238.714ZM222.673 401.601C222.673 402.125 222.244 402.506 221.768 402.506H205.87C205.346 402.506 204.966 402.125 204.966 401.601V383.894C204.966 383.37 205.394 382.99 205.87 382.99H221.768C222.292 382.99 222.673 383.37 222.673 383.894V401.601ZM222.673 360.856C222.673 361.379 222.292 361.76 221.768 361.76H205.87C205.394 361.76 204.966 361.379 204.966 360.856V343.148C204.966 342.672 205.346 342.244 205.87 342.244H221.768C222.292 342.244 222.673 342.625 222.673 343.148V360.856ZM222.673 320.158C222.673 320.681 222.244 321.062 221.768 321.062H205.87C205.346 321.062 204.966 320.681 204.966 320.158V302.403C204.966 301.879 205.394 301.498 205.87 301.498H221.768C222.292 301.498 222.673 301.879 222.673 302.403V320.158ZM222.673 279.412C222.673 279.936 222.244 280.316 221.768 280.316H205.87C205.346 280.316 204.966 279.936 204.966 279.412V261.657C204.966 261.181 205.394 260.753 205.87 260.753H221.768C222.244 260.753 222.673 261.134 222.673 261.657V279.412ZM222.673 238.714C222.673 239.238 222.244 239.618 221.768 239.618H205.87C205.346 239.618 204.966 239.238 204.966 238.714V220.959C204.966 220.436 205.346 220.055 205.87 220.055H221.768C222.292 220.055 222.673 220.436 222.673 220.959V238.714Z" fill="#222222"/>
<path d="M399.507 346.956C399.507 347.766 398.888 348.384 398.079 348.384H326.631C325.822 348.384 325.203 347.766 325.203 346.956V332.676C325.203 331.867 325.822 331.248 326.631 331.248H398.126C398.936 331.248 399.554 331.867 399.554 332.676V346.956H399.507Z" fill="#222222"/>
<path d="M316.73 232.574C316.492 231.812 315.778 231.241 314.969 231.241C314.636 231.241 314.255 231.384 313.97 231.574L313.827 231.669L313.256 232.431L244.95 319.063L244.616 319.491C244.236 319.824 244.045 320.348 244.045 320.824V427.257C244.045 428.21 244.807 428.971 245.759 428.971H315.16C316.112 428.971 316.873 428.21 316.873 427.305V233.288C316.873 233.05 316.826 232.812 316.73 232.574ZM287.98 279.65L288.456 279.031C293.121 273.034 301.022 263.323 304.83 258.611L305.354 257.992C305.735 257.516 306.306 257.278 306.877 257.278C307.829 257.278 308.591 257.944 308.781 258.849V280.84C308.781 281.887 307.924 282.744 306.877 282.792C306.83 282.792 306.83 282.792 306.782 282.792C306.734 282.792 306.734 282.792 306.687 282.792H289.646C289.598 282.792 289.598 282.792 289.551 282.792C289.503 282.792 289.503 282.792 289.456 282.792C288.408 282.744 287.552 281.887 287.552 280.84C287.599 280.412 287.742 279.983 287.98 279.65ZM277.175 400.982C277.175 401.934 276.413 402.696 275.509 402.696H254.803C253.851 402.696 253.089 401.934 253.089 401.03V388.083C253.089 387.131 253.851 386.369 254.803 386.369H275.509C276.461 386.369 277.222 387.131 277.222 388.035L277.175 400.982ZM277.175 377.04C277.175 377.992 276.413 378.753 275.509 378.753H254.803C253.851 378.753 253.089 377.992 253.089 377.087V364.14C253.089 363.188 253.851 362.426 254.755 362.426H275.461C276.413 362.426 277.175 363.188 277.175 364.092V377.04ZM277.175 353.097C277.175 354.049 276.413 354.81 275.461 354.81H254.755C253.803 354.81 253.042 354.049 253.042 353.144V340.197C253.042 339.245 253.803 338.484 254.708 338.484H275.414C276.366 338.484 277.127 339.245 277.127 340.15L277.175 353.097ZM277.222 300.594V329.154C277.222 330.106 276.461 330.868 275.509 330.868H254.803C253.851 330.868 253.089 330.106 253.089 329.202V325.632C253.089 325.394 253.137 325.203 253.232 325.013C253.28 324.965 253.28 324.87 253.327 324.822C253.375 324.727 253.422 324.68 253.47 324.584C253.518 324.489 253.613 324.394 253.66 324.299C256.326 320.491 268.274 305.782 273.272 299.642L273.795 299.023C274.176 298.547 274.747 298.309 275.318 298.309C276.27 298.309 277.032 298.976 277.222 299.88V300.594ZM308.829 400.982C308.829 401.934 308.067 402.696 307.115 402.696H286.409C285.457 402.696 284.696 401.934 284.696 401.03V388.083C284.696 387.131 285.457 386.369 286.409 386.369H307.115C308.067 386.369 308.829 387.131 308.829 388.083V400.982ZM308.829 377.04C308.829 377.992 308.067 378.753 307.115 378.753H286.409C285.457 378.753 284.696 377.992 284.696 377.087V364.14C284.696 363.188 285.457 362.426 286.362 362.426H307.068C308.02 362.426 308.781 363.188 308.781 364.14V377.04H308.829ZM308.829 353.097C308.829 354.049 308.067 354.81 307.115 354.81H286.409C285.457 354.81 284.696 354.049 284.696 353.144V340.197C284.696 339.245 285.457 338.484 286.409 338.484H307.115C308.067 338.484 308.829 339.245 308.829 340.197V353.097ZM308.829 329.106C308.829 330.058 308.067 330.82 307.115 330.82H286.409C285.457 330.82 284.696 330.058 284.696 329.154V316.207C284.696 315.255 285.457 314.493 286.409 314.493H307.115C308.067 314.493 308.829 315.255 308.829 316.207V329.106ZM308.829 305.164C308.829 306.116 308.067 306.877 307.115 306.877H286.409C285.457 306.877 284.696 306.116 284.696 305.211V292.264C284.696 291.312 285.457 290.55 286.409 290.55H307.115C308.067 290.55 308.829 291.312 308.829 292.264V305.164Z" fill="#222222"/>
</svg>
