<svg width="476" height="476" viewBox="0 0 476 476" fill="none" xmlns="http://www.w3.org/2000/svg">
<g clip-path="url(#clip0)">
<path d="M5 5H471V471.048H5V5Z" stroke="white" stroke-width="10"/>
<path d="M47.5048 62.5463H47.6476V135.993H63.784V40.0315H50.8844L36.0332 57.4531V74.3035H36.176L47.5048 62.5463Z" fill="white"/>
<path d="M73.3992 59.8332V71.4476H88.1076V59.4048C88.1076 53.5976 90.9636 51.884 94.3432 51.884C97.4848 51.884 100.15 53.1692 100.15 59.1192V67.0208C100.15 74.97 99.4364 78.064 94.2004 83.5856L85.1564 93.2008C76.398 102.53 73.1136 108.766 73.1136 118.238V135.946H115.002V122.76H88.536V118.238C88.536 110.718 91.2016 107.909 95.3428 103.53L105.672 92.6296C114.05 83.7284 115.858 78.064 115.858 68.4012V59.0716C115.858 45.3152 109.194 38.8416 94.7716 38.8416C80.6344 38.8892 73.3992 46.41 73.3992 59.8332Z" fill="white"/>
<path d="M370.566 254.993C351.145 239.666 327.869 238 318.777 238C313.97 238 309.543 238.428 306.258 239.19L304.973 239.476C292.692 242.379 272.082 247.234 248.139 276.984L247.425 277.841C247.044 278.365 246.854 278.984 246.806 279.65C246.806 280.221 246.949 280.745 247.234 281.221L247.758 282.125C251.709 288.742 254.993 294.501 257.611 299.356C258.42 300.927 260.324 301.546 261.895 300.737C262.228 300.594 262.514 300.356 262.752 300.07C262.895 299.832 263.085 299.594 263.228 299.452C283.886 270.844 300.118 267.036 310.828 264.513L312.161 264.18C314.303 263.752 316.54 263.561 318.73 263.609C323.728 263.609 341.054 264.418 354.572 275.128C366.615 284.648 372.708 299.785 372.708 320.253C372.708 354.477 356.143 367.853 342.244 372.994C336.818 374.993 331.058 375.992 325.251 375.992C316.445 375.945 307.734 373.946 299.737 370.185L298.738 369.709C286.79 364.521 268.94 353.716 252.09 319.824C217.484 250.328 188.448 243.76 169.218 239.428L168.218 239.19C166.743 238.857 162.602 238.095 155.842 238.095C144.704 238.095 123.284 240.285 104.91 254.946C92.3916 264.942 77.3976 284.362 77.3976 320.158C77.3976 341.958 81.872 356.334 93.3912 371.47C95.5332 374.422 115.573 400.316 154.081 400.316C159.984 400.316 165.886 399.697 171.646 398.602C178.69 397.27 189.496 393.795 201.634 384.894L211.725 394.033C212.915 395.032 214.724 394.985 215.818 393.842C216.294 393.319 216.58 392.652 216.532 391.938L224.529 343.672V343.101C224.529 342.292 224.196 341.53 223.577 341.006C223.006 340.483 222.292 340.245 221.53 340.245L174.597 353.192L173.692 353.335C173.121 353.478 172.598 353.763 172.217 354.192C171.122 355.382 171.217 357.19 172.407 358.285C172.407 358.285 172.407 358.285 172.455 358.333L182.165 367.139C177.072 370.28 171.931 372.375 166.981 373.327C162.887 374.136 158.698 374.517 154.51 374.564C127.901 374.564 114.811 357.095 114.288 356.381L114.002 356C105.91 345.386 103.197 336.342 103.197 320.158C103.197 299.642 109.194 284.458 120.999 275.033C134.184 264.513 151.082 263.704 155.985 263.704C158.222 263.656 160.46 263.847 162.649 264.275L163.696 264.513C179.071 267.988 200.063 272.748 229.242 331.296C244.616 362.236 263.942 382.418 288.218 393.081C291.026 394.509 306.116 401.696 325.394 401.696C334.247 401.744 343.053 400.173 351.336 397.079C365.52 391.796 398.507 373.708 398.507 320.253C398.507 284.505 383.323 265.037 370.566 254.993Z" fill="white"/>
<path d="M158.413 60.8805V78.7305H151.892V39.7937H161.412C168.028 39.7937 170.408 43.0781 170.408 48.5045V53.5025C170.408 57.6913 168.932 60.1665 165.172 61.0233L171.408 78.6829H164.553L158.413 60.8805ZM158.413 45.1725V57.2629H160.602C162.84 57.2629 163.839 56.1205 163.839 54.0261V48.3141C163.839 46.1721 162.887 45.1725 160.602 45.1725H158.413Z" fill="white"/>
<path d="M173.93 39.7937H189.543V45.1249H180.499V56.2633H186.973V61.5469H180.452V73.3517H189.496V78.6829H173.883V39.7937H173.93Z" fill="white"/>
<path d="M192.637 70.3528V65.1168H198.73V70.448C198.73 72.6376 199.682 73.8752 201.967 73.8752C204.014 73.8752 204.966 72.4948 204.966 70.448V68.9724C204.966 66.7352 204.061 65.3548 202.062 63.4508L198.206 59.5952C194.494 55.93 192.732 53.6928 192.732 49.2184V47.8856C192.732 43.078 195.541 39.3176 201.919 39.3176C208.488 39.3176 211.058 42.5544 211.058 48.1712V51.3128H205.108V47.9332C205.108 45.696 204.061 44.6012 202.014 44.6012C200.158 44.6012 198.92 45.6484 198.92 47.838V48.6472C198.92 50.8368 200.11 52.0744 202.014 53.9308L206.203 58.072C209.773 61.6896 211.487 63.8792 211.487 68.1632V70.0672C211.487 75.3984 208.631 79.2064 201.967 79.2064C195.303 79.2064 192.637 75.446 192.637 70.3528Z" fill="white"/>
<path d="M214.676 39.7937H224.386C231.003 39.7937 233.383 43.0781 233.383 48.5045V56.6917C233.383 62.1181 230.955 65.4501 224.386 65.4501H221.245V78.6353H214.676V39.7937ZM221.197 45.1725V60.4521H223.625C225.862 60.4521 226.862 59.3573 226.862 57.2153V48.2665C226.862 46.1245 225.91 45.1249 223.625 45.1249H221.197V45.1725Z" fill="white"/>
<path d="M236.715 68.6868V49.8848C236.715 43.792 239.714 39.3652 246.568 39.3652C253.422 39.3652 256.516 43.792 256.516 49.8848V68.6868C256.516 74.732 253.518 79.2064 246.568 79.2064C239.618 79.2064 236.715 74.732 236.715 68.6868ZM249.948 69.734V48.8376C249.948 46.5052 248.9 44.8392 246.568 44.8392C244.236 44.8392 243.236 46.5052 243.236 48.8376V69.734C243.236 72.0664 244.283 73.7324 246.568 73.7324C248.853 73.7324 249.948 72.0664 249.948 69.734Z" fill="white"/>
<path d="M265.703 54.2641V78.7305H260.182V39.7937H266.608L273.652 62.1181V39.7937H279.126V78.6829H273.367L265.703 54.2641Z" fill="white"/>
<path d="M282.506 70.3528V65.1168H288.599V70.448C288.599 72.6376 289.551 73.8752 291.836 73.8752C293.882 73.8752 294.834 72.4948 294.834 70.448V68.9724C294.834 66.7352 293.93 65.3548 291.883 63.4508L288.028 59.5952C284.315 55.93 282.554 53.6928 282.554 49.2184V47.8856C282.554 43.078 285.362 39.3176 291.74 39.3176C298.262 39.3176 300.88 42.5544 300.88 48.1712V51.3128H294.93V47.9332C294.93 45.696 293.882 44.6012 291.836 44.6012C289.979 44.6012 288.742 45.6484 288.742 47.838V48.6472C288.742 50.8368 289.932 52.0744 291.836 53.9308L296.024 58.072C299.594 61.6896 301.308 63.8792 301.308 68.1632V70.0672C301.308 75.3984 298.452 79.2064 291.788 79.2064C285.124 79.2064 282.506 75.446 282.506 70.3528Z" fill="white"/>
<path d="M304.545 39.7937H311.114V78.6829H304.545V39.7937Z" fill="white"/>
<path d="M314.779 39.7937H324.251C330.772 39.7937 332.962 42.8401 332.962 48.3617V52.3125C332.962 55.5969 331.772 57.6437 329.059 58.5005C332.343 59.2621 333.914 61.4041 333.914 64.9741V70.1625C333.914 75.6841 331.439 78.7305 324.918 78.7305H314.779V39.7937ZM321.348 56.2157H323.632C325.774 56.2157 326.726 55.1209 326.726 53.0741V48.3141C326.726 46.1721 325.774 45.1725 323.585 45.1725H321.348V56.2157V56.2157ZM321.348 61.2137V73.3993H324.204C326.393 73.3993 327.44 72.3045 327.44 70.2577V64.4029C327.44 62.3561 326.488 61.2613 324.156 61.2613L321.348 61.2137Z" fill="white"/>
<path d="M337.198 39.7937H343.72V73.3517H351.526V78.6829H337.198V39.7937Z" fill="white"/>
<path d="M354.477 39.7937H370.09V45.1249H361.046V56.2633H367.472V61.5469H360.998V73.3517H370.042V78.6829H354.43V39.7937H354.477Z" fill="white"/>
<path d="M151.892 125.807V107.005C151.892 100.912 154.748 96.4851 161.65 96.4851C168.885 96.4851 170.884 100.484 170.884 106.243V110.813H164.934V105.72C164.934 103.292 164.125 101.912 161.792 101.912C159.46 101.912 158.46 103.578 158.46 105.91V126.806C158.46 129.139 159.412 130.805 161.792 130.805C164.172 130.805 164.934 129.329 164.934 126.997V119.857H170.884V126.616C170.884 132.185 168.599 136.326 161.65 136.326C154.7 136.326 151.892 131.852 151.892 125.807Z" fill="white"/>
<path d="M175.025 125.807V107.005C175.025 100.912 178.024 96.4851 184.878 96.4851C191.733 96.4851 194.827 100.912 194.827 107.005V125.807C194.827 131.852 191.828 136.326 184.878 136.326C177.929 136.326 175.025 131.852 175.025 125.807ZM188.258 126.854V105.958C188.258 103.625 187.211 101.959 184.878 101.959C182.546 101.959 181.546 103.625 181.546 105.958V126.854C181.546 129.186 182.594 130.852 184.878 130.852C187.163 130.852 188.258 129.186 188.258 126.854Z" fill="white"/>
<path d="M204.632 111.384V135.85H199.111V96.9612H205.537L212.582 119.286V96.9612H218.056V135.85H212.296L204.632 111.384Z" fill="white"/>
<path d="M222.006 127.473V122.237H228.099V127.568C228.099 129.758 229.051 130.995 231.336 130.995C233.383 130.995 234.335 129.615 234.335 127.568V126.092C234.335 123.855 233.43 122.475 231.431 120.571L227.576 116.763C223.863 113.098 222.102 110.86 222.102 106.386V105.053C222.102 100.246 224.91 96.4851 231.288 96.4851C237.81 96.4851 240.428 99.7219 240.428 105.339V108.48H234.43V105.101C234.43 102.864 233.383 101.769 231.336 101.769C229.48 101.769 228.242 102.816 228.242 105.006V105.815C228.242 108.004 229.432 109.242 231.336 111.098L235.525 115.24C239.095 118.857 240.808 121.047 240.808 125.331V127.235C240.808 132.566 237.952 136.374 231.288 136.374C224.624 136.374 222.006 132.566 222.006 127.473Z" fill="white"/>
<path d="M263.799 96.9612V126.378C263.799 132.423 261.229 136.326 254.565 136.326C247.663 136.326 244.807 132.423 244.807 126.378V96.9612H251.328V127.044C251.328 129.329 252.232 130.9 254.565 130.9C256.897 130.9 257.802 129.377 257.802 127.044V96.9612H263.799Z" fill="white"/>
<path d="M286.124 110.622H285.933L281.506 135.898H278.46L273.605 110.622H273.51V135.898H268.131V97.0088H275.747L279.983 118.952H280.031L283.839 97.0088H292.121V135.898H286.171V110.622H286.124Z" fill="white"/>
<path d="M296.405 96.9612H306.068C312.684 96.9612 315.064 100.246 315.064 105.672V113.859C315.064 119.286 312.637 122.618 306.068 122.618H302.926V135.803H296.405V96.9612V96.9612ZM302.926 102.292V117.62H305.354C307.591 117.62 308.591 116.525 308.591 114.383V105.434C308.591 103.292 307.639 102.292 305.354 102.292H302.926Z" fill="white"/>
<path d="M317.206 96.9612H334.628V102.292H329.202V135.85H322.585V102.292H317.206V96.9612V96.9612Z" fill="white"/>
<path d="M337.722 96.9612H344.243V135.85H337.722V96.9612Z" fill="white"/>
<path d="M348.051 125.807V107.005C348.051 100.912 351.05 96.4851 357.904 96.4851C364.759 96.4851 367.853 100.912 367.853 107.005V125.807C367.853 131.852 364.854 136.326 357.904 136.326C350.955 136.326 348.051 131.852 348.051 125.807ZM361.284 126.854V105.958C361.284 103.625 360.237 101.959 357.904 101.959C355.572 101.959 354.572 103.625 354.572 105.958V126.854C354.572 129.186 355.62 130.852 357.904 130.852C360.189 130.852 361.284 129.186 361.284 126.854Z" fill="white"/>
<path d="M377.135 111.384V135.85H371.613V96.9612H378.039L385.084 119.286V96.9612H390.558V135.85H384.846L377.135 111.384Z" fill="white"/>
<path d="M150.844 192.97L158.175 154.081H165.648L173.074 192.97H166.362L165.172 185.83H158.222L157.08 192.97H150.844ZM159.079 180.642H164.315L161.745 165.029H161.697L159.079 180.642Z" fill="white"/>
<path d="M181.451 168.552V193.018H175.93V154.129H182.356L189.4 176.453V154.129H194.874V193.018H189.115L181.451 168.552Z" fill="white"/>
<path d="M218.341 164.506V182.546C218.341 188.496 215.866 193.018 208.869 193.018H198.778V154.129H208.869C215.866 154.081 218.341 158.508 218.341 164.506ZM208.06 187.639C210.773 187.639 211.772 186.021 211.772 183.688V163.316C211.772 161.031 210.725 159.412 208.06 159.412H205.299V187.639H208.06Z" fill="white"/>
<path d="M228.432 154.081H238.143C244.759 154.081 247.139 157.366 247.139 162.792V170.979C247.139 176.453 244.712 179.785 238.143 179.785H235.001V192.97H228.48V154.081H228.432ZM235.001 159.412V174.74H237.429C239.666 174.74 240.666 173.645 240.666 171.503V162.554C240.666 160.412 239.714 159.412 237.429 159.412H235.001V159.412Z" fill="white"/>
<path d="M257.23 175.12V192.97H250.662V154.081H260.182C266.798 154.081 269.178 157.366 269.178 162.792V167.79C269.178 171.979 267.702 174.454 263.942 175.311L270.178 192.97H263.323L257.23 175.12ZM257.23 159.412V171.503H259.42C261.657 171.503 262.657 170.36 262.657 168.266V162.554C262.657 160.412 261.705 159.412 259.42 159.412H257.23Z" fill="white"/>
<path d="M272.986 182.927V164.125C272.986 158.032 275.985 153.605 282.839 153.605C289.694 153.605 292.788 158.032 292.788 164.125V182.927C292.788 188.972 289.789 193.446 282.839 193.446C275.89 193.446 272.986 188.972 272.986 182.927ZM286.219 183.974V163.078C286.219 160.745 285.172 159.079 282.839 159.079C280.507 159.079 279.507 160.745 279.507 163.078V183.974C279.507 186.306 280.554 187.972 282.839 187.972C285.124 187.972 286.219 186.306 286.219 183.974Z" fill="white"/>
<path d="M316.254 164.506V182.546C316.254 188.496 313.779 193.018 306.782 193.018H296.691V154.129H306.782C313.779 154.081 316.254 158.508 316.254 164.506ZM305.973 187.639C308.686 187.639 309.686 186.021 309.686 183.688V163.316C309.686 161.031 308.638 159.412 305.973 159.412H303.212V187.639H305.973Z" fill="white"/>
<path d="M339.15 154.081V183.498C339.15 189.543 336.58 193.446 329.916 193.446C323.014 193.446 320.158 189.543 320.158 183.498V154.081H326.726V184.164C326.726 186.449 327.631 188.02 329.963 188.02C332.296 188.02 333.2 186.449 333.2 184.164V154.081H339.15Z" fill="white"/>
<path d="M343.053 182.927V164.125C343.053 158.032 345.909 153.605 352.811 153.605C360.046 153.605 362.046 157.604 362.046 163.363V167.933H356.048V162.84C356.048 160.412 355.239 159.032 352.906 159.032C350.574 159.032 349.574 160.698 349.574 163.03V183.926C349.574 186.259 350.526 187.925 352.906 187.925C355.286 187.925 356.048 186.449 356.048 184.117V176.977H361.998V183.736C361.998 189.305 359.713 193.446 352.764 193.446C345.814 193.446 343.053 188.972 343.053 182.927Z" fill="white"/>
<path d="M364.997 154.081H382.371V159.412H376.992V192.97H370.423V159.412H365.044V154.081H364.997Z" fill="white"/>
<path d="M385.512 154.081H392.034V192.97H385.512V154.081Z" fill="white"/>
<path d="M395.842 182.927V164.125C395.842 158.032 398.84 153.605 405.695 153.605C412.549 153.605 415.643 158.032 415.643 164.125V182.927C415.643 188.972 412.644 193.446 405.695 193.446C398.745 193.446 395.842 188.972 395.842 182.927ZM409.074 183.974V163.078C409.074 160.745 408.027 159.079 405.695 159.079C403.362 159.079 402.363 160.745 402.363 163.078V183.974C402.363 186.306 403.41 187.972 405.695 187.972C407.98 187.972 409.074 186.306 409.074 183.974Z" fill="white"/>
<path d="M424.925 168.552V193.018H419.404V154.129H425.83L432.874 176.453V154.129H438.348V193.018H432.589L424.925 168.552Z" fill="white"/>
</g>
<defs>
<clipPath id="clip0">
<rect width="476" height="476" fill="white"/>
</clipPath>
</defs>
</svg>
