<svg width="476" height="476" viewBox="0 0 476 476" fill="none" xmlns="http://www.w3.org/2000/svg">
<path d="M5 471V5H471V471H5Z" stroke="white" stroke-width="10"/>
<path d="M62.0228 40.0315V135.993H45.8864V62.5463H45.7436L34.4148 74.3035H34.272V57.4531L49.1232 40.0315H62.0228Z" fill="white"/>
<path d="M175.787 39.8413H169.266V78.7781H175.787V39.8413Z" fill="white"/>
<path d="M179.642 78.7781H186.164V61.5945H192.732V56.3109H186.164V45.1725H194.97V39.8413H179.642V78.7781Z" fill="white"/>
<path d="M213.486 45.1725V39.8413H197.873V78.7781H213.486V73.4469H204.394V61.5945H210.916V56.3109H204.394V45.1725H213.486Z" fill="white"/>
<path d="M244.854 65.0217C244.854 61.4517 243.236 59.2621 239.999 58.5481C242.665 57.6913 243.902 55.5969 243.902 52.3601V48.4093C243.902 42.8877 241.713 39.8413 235.192 39.8413H225.719V78.7781H235.858C242.427 78.7781 244.854 75.7317 244.854 70.2101V65.0217ZM232.24 45.1725H234.478C236.667 45.1725 237.619 46.2197 237.619 48.3141V53.0741C237.619 55.1209 236.667 56.2157 234.525 56.2157H232.24V45.1725ZM238.333 70.2577C238.333 72.3045 237.286 73.3993 235.096 73.3993H232.24V61.2137H235.049C237.334 61.2137 238.333 62.3085 238.333 64.3553V70.2577Z" fill="white"/>
<path d="M247.663 78.7781H263.228V73.4469H254.184V61.5945H260.658V56.3109H254.184V45.1725H263.228V39.8413H247.663V78.7781Z" fill="white"/>
<path d="M267.274 39.8413V78.7781H281.602V73.4469H273.795V39.8413H267.274Z" fill="white"/>
<path d="M284.124 49.8848V68.6868C284.124 74.732 287.123 79.2064 293.978 79.2064C300.832 79.2064 303.926 74.732 303.926 68.6868V49.8848C303.926 43.792 300.927 39.3652 293.978 39.3652C287.028 39.3652 284.124 43.792 284.124 49.8848ZM297.357 48.8376V69.734C297.357 72.0664 296.31 73.7324 293.978 73.7324C291.645 73.7324 290.646 72.0664 290.646 69.734V48.8376C290.646 46.5052 291.693 44.8392 293.978 44.8392C296.262 44.8392 297.357 46.5052 297.357 48.8376Z" fill="white"/>
<path d="M315.636 64.5457H315.588L312.542 39.8413H306.211L311.447 78.7781H317.587L321.252 54.6925H321.3L325.156 78.7781H331.344L336.389 39.8413H330.915L327.916 64.5457H327.869L324.251 39.8413H318.92L315.636 64.5457Z" fill="white"/>
<path d="M156.176 135.85H162.316L166.029 111.765H166.076L169.932 135.85H176.12L181.166 96.9136H175.644L172.645 121.618H172.598L168.98 96.9136H163.649L160.364 121.618H160.317L157.27 96.9136H150.987L156.176 135.85Z" fill="white"/>
<path d="M180.261 135.85H186.449L187.592 128.758H194.541L195.731 135.85H202.443L195.065 96.9136H187.592L180.261 135.85ZM191.066 107.862H191.114L193.684 123.474H188.496L191.066 107.862Z" fill="white"/>
<path d="M213.2 135.85V102.245H218.627V96.9136H201.205V102.245H206.632V135.85H213.2Z" fill="white"/>
<path d="M237.238 102.245V96.9136H221.626V135.85H237.238V130.519H228.194V118.667H234.668V113.383H228.194V102.245H237.238Z" fill="white"/>
<path d="M259.277 110.622V105.624C259.277 100.15 256.85 96.9136 250.281 96.9136H240.761V135.85H247.282V118L253.422 135.85H260.324L254.089 118.191C257.754 117.286 259.277 114.811 259.277 110.622ZM252.708 111.146C252.708 113.193 251.756 114.383 249.519 114.383H247.33V102.292H249.519C251.756 102.292 252.708 103.34 252.708 105.434V111.146Z" fill="white"/>
<path d="M111.146 135.993V120.428H117.667V107.814H111.146V40.0315H95.2952L67.4016 110.527V120.428H95.8664V135.993H111.146ZM81.5388 107.814L95.9616 68.3059H96.1044V107.814H81.5388Z" fill="white"/>
<path d="M366.33 347.289C360.332 339.197 321.633 289.884 267.369 289.884C220.245 289.884 169.837 332.629 169.837 332.629C169.837 332.629 150.892 293.882 112.193 290.169C111.955 290.169 111.717 290.122 111.479 290.122H111.241C110.432 290.169 109.67 290.979 109.766 291.645C109.861 292.169 110.099 292.645 110.384 293.073C115.382 301.308 128.139 324.917 128.139 348.432C128.139 372.041 115.335 395.699 110.384 403.933L110.051 404.457C109.908 404.695 109.813 404.981 109.813 405.266C109.813 406.075 110.432 406.742 111.241 406.789L111.67 406.742C111.812 406.742 111.955 406.742 112.098 406.694C150.94 403.077 169.932 364.235 169.932 364.235C169.932 364.235 220.293 406.98 267.369 406.98C321.633 406.98 360.332 357.666 366.33 349.574C366.472 349.336 366.615 349.146 366.758 349.003C366.853 348.813 366.901 348.622 366.901 348.432C366.901 348.241 366.853 348.051 366.758 347.861C366.615 347.67 366.472 347.48 366.33 347.289ZM297.548 354.667C288.789 354.667 281.744 347.575 281.744 338.817C281.744 330.058 288.837 323.013 297.595 323.013C306.306 323.013 313.398 330.106 313.398 338.817C313.398 347.575 306.306 354.667 297.548 354.667Z" fill="white"/>
<path d="M111.003 197.159C110.907 197.112 110.812 197.112 110.717 197.112C109.86 197.112 109.146 197.826 109.146 198.682V209.44C109.146 209.868 109.289 210.249 109.575 210.582C135.755 233.335 160.554 212.01 166.314 206.394C166.409 206.203 166.552 206.06 166.742 205.965C166.98 205.775 167.313 205.68 167.599 205.68C167.98 205.68 168.361 205.822 168.646 206.108C168.646 206.156 168.694 206.156 168.741 206.156C198.301 234.382 229.336 211.534 235.81 206.156L236.429 205.584C236.619 205.489 236.809 205.442 237 205.489C237.19 205.489 237.428 205.537 237.619 205.584L238.285 206.156C244.759 211.534 275.746 234.382 305.353 206.156L305.401 206.108C305.687 205.822 306.067 205.68 306.448 205.68C306.734 205.68 307.067 205.775 307.305 205.965C307.495 206.06 307.638 206.251 307.733 206.394C313.445 212.01 338.245 233.335 364.473 210.582C364.758 210.297 364.949 209.868 364.949 209.44V198.635C364.949 197.778 364.282 197.064 363.425 197.064C363.33 197.064 363.187 197.112 363.092 197.112C362.854 197.254 362.616 197.397 362.283 197.54C354.239 201.586 329.249 211.154 306.591 189.734C306.353 189.543 306.163 189.353 305.925 189.115C305.734 189.02 305.496 188.972 305.258 188.972C305.115 188.972 304.925 189.02 304.782 189.02C304.449 189.162 304.211 189.353 303.973 189.638C297.214 194.779 266.179 215.771 238.571 190.019L238.142 189.638C237.857 189.353 237.428 189.162 237 189.162C236.571 189.162 236.191 189.353 235.905 189.638L235.477 190.019C207.869 215.771 176.833 194.779 170.074 189.638C169.884 189.353 169.598 189.162 169.313 189.02C169.17 188.972 168.979 188.972 168.837 188.972C168.599 188.972 168.408 189.02 168.17 189.115C167.98 189.353 167.742 189.543 167.504 189.734C144.846 211.201 119.856 201.586 111.812 197.54C111.526 197.397 111.288 197.302 111.003 197.159Z" fill="white"/>
<path d="M166.314 245.663C166.41 245.521 166.552 245.33 166.743 245.235C166.981 245.045 167.314 244.949 167.6 244.949C167.98 244.949 168.361 245.092 168.647 245.378C168.647 245.425 168.694 245.425 168.694 245.425C198.254 273.605 229.289 250.757 235.763 245.425L236.382 244.807C236.572 244.711 236.762 244.711 236.953 244.711C237.143 244.711 237.381 244.759 237.572 244.807L238.19 245.425C244.664 250.757 275.652 273.605 305.259 245.425L305.306 245.378C305.592 245.092 305.973 244.949 306.354 244.949C306.639 244.949 306.972 245.045 307.21 245.235C307.401 245.33 307.544 245.473 307.639 245.663C313.351 251.28 338.15 272.653 364.378 249.852C364.664 249.567 364.854 249.186 364.854 248.757V237.905C364.854 237.048 364.188 236.382 363.331 236.382C363.236 236.382 363.093 236.429 362.998 236.429L362.188 236.81C354.144 240.856 329.154 250.423 306.496 229.004L305.83 228.385C305.64 228.29 305.402 228.194 305.164 228.242C305.021 228.242 304.83 228.29 304.688 228.337C304.354 228.432 304.069 228.623 303.878 228.908C297.119 234.049 266.084 255.041 238.476 229.289L238.048 228.861C237.762 228.575 237.334 228.432 236.905 228.432C236.524 228.432 236.096 228.575 235.81 228.861L235.382 229.289C207.774 255.041 176.739 234.049 169.98 228.908C169.789 228.623 169.551 228.432 169.218 228.337C169.075 228.242 168.885 228.242 168.742 228.242C168.504 228.242 168.314 228.29 168.076 228.385C167.838 228.623 167.647 228.813 167.409 229.004C144.752 250.423 119.762 240.856 111.717 236.81L110.908 236.429C110.813 236.382 110.718 236.382 110.622 236.382C109.766 236.382 109.052 237.048 109.052 237.905V248.757C109.052 249.186 109.194 249.567 109.48 249.852C135.66 272.605 160.46 251.28 166.219 245.663" fill="white"/>
<path d="M151.892 39.8413V78.7781H166.219V73.4469H158.46V39.8413H151.892Z" fill="white"/>
</svg>
