<svg width="476" height="476" viewBox="0 0 476 476" fill="none" xmlns="http://www.w3.org/2000/svg">
<path d="M5 5H471V471H5V5Z" stroke="white" stroke-width="10"/>
<path d="M158.556 61.1659L164.791 79.3015H171.836L165.505 61.3562C169.313 60.4995 170.789 57.9767 170.789 53.7403V48.6471C170.789 43.1255 168.361 39.7935 161.65 39.7935H151.939V79.3015H158.603L158.556 61.1659ZM158.556 45.2199H160.745C163.03 45.2199 164.03 46.2671 164.03 48.4567V54.2639C164.03 56.3583 163.03 57.5483 160.745 57.5483H158.556V45.2199Z" fill="white"/>
<path d="M190.828 73.875H181.594V61.8799H188.21V56.5011H181.594V45.2199H190.828V39.7935H174.978V79.3015H190.828V73.875Z" fill="white"/>
<path d="M205.204 39.7935H194.97V79.3015H205.204C212.296 79.3015 214.819 74.7319 214.819 68.6867V50.4083C214.819 44.2679 212.344 39.7935 205.204 39.7935ZM208.202 69.8767C208.202 72.2567 207.155 73.875 204.394 73.875H201.586V45.2199H204.394C207.155 45.2199 208.202 46.8383 208.202 49.1707V69.8767Z" fill="white"/>
<path d="M225.862 39.7935H219.198V69.6862C219.198 75.8266 222.102 79.7775 229.099 79.7775C235.858 79.7775 238.476 75.8266 238.476 69.6862V39.7935H232.383V70.3527C232.383 72.6851 231.431 74.2558 229.099 74.2558C226.766 74.2558 225.814 72.6851 225.814 70.3527V39.7935H225.862Z" fill="white"/>
<path d="M242.903 49.98V69.1152C242.903 75.2556 245.806 79.7776 252.804 79.7776C259.801 79.7776 262.181 75.5888 262.181 69.9244V63.1176H256.136V70.4004C256.136 72.7328 255.326 74.256 252.946 74.256C250.566 74.256 249.567 72.59 249.567 70.1624V48.9328C249.567 46.5528 250.566 44.8392 252.946 44.8392C255.326 44.8392 256.136 46.2196 256.136 48.6948V53.8832H262.181V49.2184C262.181 43.3636 260.134 39.3176 252.804 39.3176C245.806 39.3176 242.903 43.792 242.903 49.98Z" fill="white"/>
<path d="M266.37 79.3015H282.22V73.875H273.034V61.8799H279.602V56.5011H273.034V45.2199H282.22V39.7935H266.37V79.3015Z" fill="white"/>
<path d="M286.362 39.7935V79.3015H296.643C303.736 79.3015 306.258 74.7319 306.258 68.6867V50.4083C306.258 44.2679 303.736 39.7935 296.643 39.7935H286.362ZM299.594 49.1707V69.8767C299.594 72.2567 298.547 73.875 295.786 73.875H292.978V45.2199H295.786C298.547 45.2199 299.594 46.8383 299.594 49.1707Z" fill="white"/>
<path d="M158.603 96.3425H151.939V135.851H158.603V96.3425Z" fill="white"/>
<path d="M182.118 96.3425H176.596V119L169.408 96.3425H162.887V135.851H168.504V111.003L176.31 135.851H182.118V96.3425Z" fill="white"/>
<path d="M201.729 101.769V96.3425H185.878V135.851H201.729V130.424H192.542V118.429H199.111V113.05H192.542V101.769H201.729Z" fill="white"/>
<path d="M214.2 95.8665C207.203 95.8665 204.156 100.341 204.156 106.529V125.664C204.156 131.043 206.441 134.946 211.725 135.85V138.516L224.244 140.848V135.898L219.341 134.946C222.72 133.328 224.244 129.948 224.244 125.616V106.529C224.291 100.341 221.245 95.8665 214.2 95.8665ZM217.627 127.044C217.627 129.377 216.58 131.138 214.2 131.138C211.82 131.138 210.82 129.377 210.82 127.044V105.482C210.82 103.102 211.868 101.388 214.2 101.388C216.532 101.388 217.627 103.102 217.627 105.482V127.044Z" fill="white"/>
<path d="M228.004 96.3425V126.235C228.004 132.376 230.908 136.327 237.905 136.327C244.664 136.327 247.282 132.376 247.282 126.235V96.3425H241.142V126.902C241.142 129.234 240.19 130.805 237.857 130.805C235.525 130.805 234.573 129.234 234.573 126.902V96.3425H228.004V96.3425Z" fill="white"/>
<path d="M256.897 96.3425L249.424 135.851H255.707L256.85 128.615H263.894L265.132 135.851H271.939L264.418 96.3425H256.897V96.3425ZM257.802 123.332L260.42 107.481H260.467L263.085 123.332H257.802Z" fill="white"/>
<path d="M274.7 96.3425V135.851H289.265V130.424H281.364V96.3425H274.7Z" fill="white"/>
<path d="M298.928 96.3425H292.264V135.851H298.928V96.3425Z" fill="white"/>
<path d="M314.112 135.851V101.769H319.586V96.3425H301.927V101.769H307.401V135.851H314.112Z" fill="white"/>
<path d="M329.297 96.3425H322.633V135.851H329.297V96.3425Z" fill="white"/>
<path d="M348.908 130.424H339.721V118.429H346.29V113.05H339.721V101.769H348.908V96.3425H333.057V135.851H348.908V130.424Z" fill="white"/>
<path d="M351.526 122.046V127.33C351.526 132.518 354.144 136.326 360.903 136.326C367.662 136.326 370.566 132.471 370.566 127.044V125.14C370.566 120.761 368.805 118.572 365.187 114.859L360.903 110.67C358.999 108.814 357.762 107.528 357.762 105.291V104.482C357.762 102.245 359.047 101.198 360.903 101.198C362.998 101.198 364.045 102.292 364.045 104.577V108.004H370.138V104.768C370.138 99.0556 367.52 95.7712 360.856 95.7712C354.382 95.7712 351.526 99.5792 351.526 104.434V105.767C351.526 110.337 353.287 112.574 357.048 116.334L360.951 120.238C362.998 122.142 363.902 123.57 363.902 125.854V127.378C363.902 129.472 362.95 130.9 360.856 130.9C358.571 130.9 357.571 129.615 357.571 127.378V121.951H351.526V122.046Z" fill="white"/>
<path d="M45.934 62.3561V135.898H62.0704V39.8413H49.1708L34.3196 57.2629V74.1133H34.4624L45.7912 62.3561H45.934Z" fill="white"/>
<path d="M120.999 111.098V64.6407C120.999 49.5991 113.478 38.6987 97.0564 38.6987C80.7772 38.6987 73.2564 49.5991 73.2564 64.6407V111.098C73.2564 125.95 80.7772 137.04 97.0564 137.04C113.526 137.04 120.999 125.997 120.999 111.098ZM89.4404 113.669V62.0703C89.4404 56.2631 91.5824 52.1695 97.104 52.1695C102.768 52.1695 104.91 56.2631 104.91 62.0703V113.669C104.91 119.476 102.768 123.57 97.104 123.57C91.5348 123.57 89.4404 119.476 89.4404 113.669Z" fill="white"/>
<path d="M281.935 312.97H194.065C193.494 313.018 193.066 313.494 193.113 314.017V340.435C193.066 341.006 193.494 341.482 194.065 341.482H281.935C282.506 341.435 282.934 340.959 282.887 340.435V314.017C282.934 313.494 282.506 313.018 281.935 312.97Z" fill="white"/>
<path d="M281.935 256.802H194.065C193.494 256.85 193.066 257.326 193.113 257.849V284.267C193.066 284.838 193.494 285.314 194.065 285.314H281.935C282.506 285.267 282.934 284.791 282.887 284.267V257.849C282.934 257.326 282.506 256.85 281.935 256.802Z" fill="white"/>
<path d="M280.697 216.866L238.524 174.692C238.238 174.406 237.762 174.406 237.476 174.692L195.303 216.866C195.017 217.151 195.017 217.627 195.303 217.913C195.446 218.056 195.636 218.103 195.826 218.103H280.174C280.554 218.103 280.888 217.77 280.888 217.389C280.888 217.199 280.84 217.008 280.697 216.866Z" fill="white"/>
<path d="M320.3 341.863L362.474 299.69C362.76 299.404 362.76 298.928 362.474 298.642L320.3 256.469C320.015 256.183 319.539 256.183 319.253 256.469C319.11 256.612 319.063 256.802 319.063 256.992V341.34C319.063 341.72 319.396 342.054 319.777 342.054C319.967 342.101 320.158 342.006 320.3 341.863Z" fill="white"/>
<path d="M195.303 381.466L237.476 423.64C237.762 423.925 238.238 423.925 238.476 423.64L280.65 381.466C280.935 381.181 280.935 380.705 280.65 380.419C280.507 380.276 280.316 380.181 280.126 380.181H195.826C195.446 380.181 195.112 380.467 195.065 380.895C195.065 381.133 195.16 381.324 195.303 381.466Z" fill="white"/>
<path d="M155.7 256.469L113.526 298.642C113.24 298.928 113.24 299.404 113.526 299.69L155.7 341.863C155.985 342.149 156.461 342.149 156.747 341.863C156.89 341.72 156.937 341.53 156.937 341.34V256.992C156.937 256.612 156.604 256.278 156.223 256.278C156.033 256.278 155.842 256.326 155.7 256.469Z" fill="white"/>
</svg>
