<svg width="476" height="476" viewBox="0 0 476 476" fill="none" xmlns="http://www.w3.org/2000/svg">
<g clip-path="url(#clip0)">
<path d="M5 471.005V4.99036H471V471.005H5Z" stroke="white" stroke-width="10"/>
<path d="M67.9252 137.155C84.2092 137.155 91.2873 128.515 91.2873 115.211V101.06C91.2873 92.2821 87.4793 86.6177 79.3873 84.7803C86.0513 82.6574 90.4258 77.2738 90.4258 69.2104V60.8566C90.4258 47.2668 83.9141 38.9177 69.0534 38.9177C52.3458 38.9177 46.5386 48.8185 46.5386 62.9795V71.4714H61.2612V61.7038C61.2612 55.7586 63.1081 52.3647 68.2013 52.3647C73.2945 52.3647 75.1319 55.7586 75.1319 60.9946V71.3286C75.1319 76.4265 71.738 79.1112 66.5068 79.1112H60.414V91.4348H67.2112C72.8709 91.4348 75.1319 94.1194 75.1319 99.2174V115.073C75.1319 120.166 72.8709 123.712 67.9157 123.712C62.3989 123.712 60.414 120.023 60.414 114.364V100.636H45.696V113.231C45.696 127.815 51.4937 137.155 67.911 137.155" fill="white"/>
<path d="M397.584 297.5C397.584 284.105 389.016 273.224 375.973 273.224C369.466 273.224 361.612 280.364 357.348 284.738C353.064 280.345 345.752 273.214 339.26 273.214C326.246 273.214 317.121 284.072 317.121 297.49C317.101 303.884 319.579 310.033 324.027 314.626L357.395 348.056L390.715 314.664L390.687 314.641C395.131 310.044 397.606 303.894 397.584 297.5Z" fill="white"/>
<path d="M255.522 402.639H255.179C253.947 402.565 252.776 402.076 251.857 401.251C250.938 400.426 250.325 399.315 250.119 398.098L233.169 299.371L207.493 346.971C206.946 347.985 206.092 348.8 205.054 349.301C204.017 349.802 202.847 349.963 201.713 349.761C200.578 349.559 199.536 349.005 198.735 348.176C197.933 347.348 197.414 346.288 197.25 345.148L186.349 268.964L166.41 313.755C165.979 314.724 165.277 315.548 164.388 316.126C163.499 316.705 162.462 317.014 161.402 317.016H83.895C82.4991 316.934 81.1873 316.321 80.228 315.303C79.2688 314.286 78.7345 312.94 78.7345 311.542C78.7345 310.144 79.2688 308.798 80.228 307.78C81.1873 306.763 82.4991 306.15 83.895 306.068H157.842L184.074 247.153C184.556 246.068 185.377 245.168 186.414 244.59C187.452 244.011 188.649 243.786 189.825 243.947C191.002 244.108 192.095 244.647 192.938 245.483C193.782 246.319 194.331 247.406 194.503 248.581L205.742 327.121L231.06 280.174C231.603 279.172 232.444 278.364 233.467 277.862C234.49 277.36 235.644 277.19 236.768 277.374C237.893 277.558 238.932 278.088 239.741 278.89C240.55 279.692 241.09 280.726 241.284 281.849L256.992 373.274L314.184 183.26C314.503 182.203 315.134 181.267 315.994 180.575C316.854 179.882 317.903 179.466 319.004 179.379C320.104 179.293 321.206 179.541 322.163 180.091C323.121 180.64 323.89 181.466 324.37 182.46L354.468 244.859C354.796 245.509 354.992 246.218 355.044 246.944C355.095 247.67 355.002 248.4 354.768 249.089C354.534 249.779 354.166 250.415 353.683 250.961C353.201 251.506 352.615 251.95 351.959 252.267C351.303 252.583 350.591 252.765 349.864 252.803C349.137 252.841 348.409 252.734 347.724 252.487C347.039 252.241 346.41 251.86 345.873 251.368C345.337 250.875 344.904 250.281 344.6 249.619L320.619 199.92L260.762 398.736C260.425 399.863 259.732 400.852 258.788 401.555C257.844 402.258 256.699 402.638 255.522 402.639Z" fill="white"/>
<path d="M145.765 57.972H155.066V78.7494H150.359V74.4987C149.497 77.4261 147.66 79.2063 144.104 79.2063C138.478 79.2063 135.898 74.7319 135.898 68.7058V49.88C135.898 43.7967 138.825 39.3794 145.708 39.3794C152.939 39.3794 155.066 43.3968 155.066 49.1374V52.5789H149.097V48.6186C149.097 46.21 148.179 44.8106 145.827 44.8106C143.476 44.8106 142.438 46.4766 142.438 48.828V69.7196C142.438 72.0711 143.414 73.7371 145.651 73.7371C147.774 73.7371 148.869 72.5328 148.869 70.0052V63.1366H145.765V57.972Z" fill="white"/>
<path d="M159.365 68.7058V49.88C159.365 43.7967 162.349 39.3794 169.237 39.3794C176.125 39.3794 179.166 43.7919 179.166 49.88V68.7058C179.166 74.7319 176.182 79.2063 169.237 79.2063C162.292 79.2063 159.365 74.7319 159.365 68.7058ZM172.621 69.7387V48.847C172.621 46.4956 171.588 44.8296 169.237 44.8296C166.886 44.8296 165.905 46.4956 165.905 48.847V69.7387C165.905 72.0901 166.938 73.7561 169.237 73.7561C171.536 73.7561 172.621 72.0901 172.621 69.7387Z" fill="white"/>
<path d="M183.469 68.7058V49.88C183.469 43.7967 186.454 39.3794 193.342 39.3794C200.229 39.3794 203.252 43.7919 203.252 49.88V68.7058C203.252 74.7319 200.267 79.2063 193.327 79.2063C186.387 79.2063 183.469 74.7319 183.469 68.7058ZM196.726 69.7387V48.847C196.726 46.4956 195.693 44.8296 193.342 44.8296C190.99 44.8296 190.01 46.4956 190.01 48.847V69.7387C190.01 72.0901 191.043 73.7561 193.342 73.7561C195.641 73.7561 196.726 72.0901 196.726 69.7387Z" fill="white"/>
<path d="M227.138 50.2845V68.3011C227.138 74.2702 224.672 78.7493 217.67 78.7493H207.569V39.8411H217.67C224.672 39.8411 227.138 44.2679 227.138 50.2845ZM216.866 73.4086C219.565 73.4086 220.597 71.8045 220.597 69.4483V49.0802C220.597 46.7811 219.565 45.177 216.866 45.177H214.114V73.4086H216.866Z" fill="white"/>
<path d="M253.194 61.5895H246.882V78.7493H240.337V39.8411H246.882V56.3107H253.194V39.8411H259.791V78.7493H253.194V61.5895Z" fill="white"/>
<path d="M264.094 39.8411H279.707V45.177H270.663V56.3107H277.146V61.5895H270.639V73.4086H279.683V78.7493H264.071L264.094 39.8411Z" fill="white"/>
<path d="M282.744 78.7493L290.093 39.8411H297.552L304.954 78.7493H298.238L297.024 71.6331H290.093L288.932 78.7493H282.744ZM290.95 66.4114H296.186L293.606 50.7986H293.549L290.95 66.4114Z" fill="white"/>
<path d="M308.224 39.8411H314.765V73.4086H322.571V78.7493H308.224V39.8411Z" fill="white"/>
<path d="M321.652 39.8411H339.041V45.177H333.647V78.7493H327.045V45.177H321.652V39.8411Z" fill="white"/>
<path d="M355.51 61.5895H349.198V78.7493H342.658V39.8411H349.198V56.3107H355.51V39.8411H362.107V78.7493H355.51V61.5895Z" fill="white"/>
<path d="M134.913 135.798L142.257 96.8899H149.716L157.118 135.798H150.416L149.212 128.658H142.257L141.11 135.798H134.913ZM143.119 123.46H148.355L145.77 107.852H145.713L143.119 123.46Z" fill="white"/>
<path d="M165.9 111.351V135.798H160.412V96.8899H166.843L173.897 119.214V96.8899H179.352V135.798H173.588L165.9 111.351Z" fill="white"/>
<path d="M203.2 107.338V125.355C203.2 131.324 200.734 135.798 193.732 135.798H183.631V96.8899H193.732C200.734 96.8899 203.2 101.312 203.2 107.338ZM192.928 130.462C195.627 130.462 196.659 128.858 196.659 126.502V106.148C196.659 103.854 195.627 102.25 192.928 102.25H190.172V130.481L192.928 130.462Z" fill="white"/>
<path d="M228.218 111.755L224.548 135.798H218.408L213.172 96.8899H219.484L222.525 121.566H222.582L225.853 96.8899H231.188L234.806 121.566H234.863L237.848 96.8899H243.355L238.305 135.798H232.117L228.271 111.755H228.218Z" fill="white"/>
<path d="M246.754 96.8899H262.362V102.231H253.318V113.359H259.801V118.643H253.299V130.462H262.343V135.798H246.754V96.8899Z" fill="white"/>
<path d="M266.436 96.8899H272.981V130.462H280.783V135.798H266.436V96.8899Z" fill="white"/>
<path d="M284.343 96.8899H290.884V130.462H298.69V135.798H284.343V96.8899Z" fill="white"/>
<path d="M297.829 112.812H307.02V118.048H297.829V112.812Z" fill="white"/>
<path d="M310.914 96.8899H320.381C326.922 96.8899 329.102 99.9315 329.102 105.458V109.418C329.102 112.688 327.897 114.754 325.203 115.606C328.473 116.349 330.078 118.529 330.078 122.089V127.254C330.078 132.761 327.612 135.822 321.072 135.822H310.914V96.8899ZM317.454 113.288H319.748C321.871 113.288 322.847 112.198 322.847 110.132V105.372C322.847 103.249 321.895 102.216 319.691 102.216H317.454V113.288ZM317.454 118.281V130.448H320.31C322.49 130.448 323.523 129.358 323.523 127.292V121.437C323.523 119.371 322.547 118.281 320.253 118.281H317.454Z" fill="white"/>
<path d="M333.924 96.8899H349.532V102.231H340.488V113.359H346.975V118.643H340.464V130.462H349.508V135.798H333.924V96.8899Z" fill="white"/>
<path d="M353.606 96.8899H360.146V135.798H353.606V96.8899Z" fill="white"/>
<path d="M370.019 111.351V135.798H364.511V96.8899H370.937L377.996 119.214V96.8899H383.447V135.798H377.735L370.019 111.351Z" fill="white"/>
<path d="M397.622 115.025H406.918V135.798H402.22V131.552C401.359 134.48 399.526 136.26 395.965 136.26C390.344 136.26 387.759 131.781 387.759 125.754V106.933C387.759 100.85 390.687 96.4329 397.574 96.4329C404.805 96.4329 406.928 100.45 406.928 106.186V109.632H400.949V105.672C400.949 103.263 400.031 101.864 397.679 101.864C395.328 101.864 394.29 103.53 394.29 105.881V126.773C394.29 129.125 395.242 130.786 397.508 130.786C399.631 130.786 400.721 129.582 400.721 127.059V120.19H397.622V115.025Z" fill="white"/>
</g>
<defs>
<clipPath id="clip0">
<rect width="476" height="476" fill="white"/>
</clipPath>
</defs>
</svg>
