<svg width="476" height="476" viewBox="0 0 476 476" fill="none" xmlns="http://www.w3.org/2000/svg">
<path d="M5 471V5H471V471H5Z" stroke="white" stroke-width="10"/>
<path d="M87.1556 64.0221C87.1556 49.1709 80.6344 38.4133 63.6888 38.4133C46.5528 38.4133 39.9364 47.7429 39.9364 62.5941V76.7313C39.9364 92.4393 46.172 100.341 57.7864 100.341C64.5932 100.341 68.6868 97.1993 71.0668 92.5821H71.2096V113.288C71.2096 119.095 68.9248 123.189 63.1652 123.189C57.4056 123.189 55.2636 119.762 55.2636 113.812V107.433H40.5076V112.527C40.5076 126.664 45.6008 136.565 63.4508 136.565C80.3964 136.565 87.2032 125.664 87.2032 110.67V64.0221H87.1556ZM71.162 78.7305C70.8764 84.1093 68.6392 87.4889 63.546 87.4889C58.0244 87.4889 55.93 84.1093 55.93 77.8737V61.1661C55.93 55.0733 58.1672 51.5509 63.7364 51.5509C69.1152 51.5509 71.2096 55.2161 71.2096 61.1661L71.162 78.7305Z" fill="white"/>
<path d="M356.952 312.875L300.356 280.221V214.866C300.356 213.486 299.642 212.248 298.452 211.534L239.952 177.738C238.762 177.024 237.286 177.024 236.096 177.738L177.548 211.534C176.358 212.248 175.644 213.486 175.644 214.866V280.221L119.048 312.875C117.858 313.541 117.096 314.826 117.096 316.207V383.799C117.096 385.179 117.858 386.464 119.048 387.131L177.548 420.927C178.738 421.593 180.214 421.593 181.404 420.927L238 388.226L294.549 420.879C295.739 421.546 297.214 421.546 298.404 420.879L356.905 387.083C358.095 386.417 358.809 385.132 358.856 383.751V316.159C358.856 314.826 358.142 313.541 356.952 312.875ZM234.144 377.087L187.211 350.003L234.144 322.918V377.087ZM288.789 282.458L241.856 309.543V255.326L288.789 282.458ZM234.144 309.543L187.211 282.458L234.144 255.374V309.543ZM245.711 316.207L296.5 286.933L347.29 316.254L296.5 345.576L245.711 316.207ZM292.645 275.747L245.711 248.662L292.645 221.578V275.747ZM230.289 248.615L183.355 275.699V221.578L230.289 248.615ZM175.644 410.883L124.855 381.562V322.871L175.644 352.24V410.883ZM183.355 410.883V356.667L230.289 383.751L183.355 410.883ZM351.145 381.562L300.356 410.883V352.24L351.145 322.918V381.562Z" fill="white"/>
<path d="M112.384 40.6506H118.619V77.7786H112.384V40.6506Z" fill="white"/>
<path d="M126.664 54.407V77.731H121.38V40.603H127.52L134.232 61.8802V40.6506H139.468V77.7786H133.994L126.664 54.407Z" fill="white"/>
<path d="M160.84 50.599V67.7826C160.84 73.4946 158.508 77.731 151.796 77.731H142.181V40.603H151.844C158.508 40.6506 160.84 44.8394 160.84 50.599ZM151.035 72.6378C153.605 72.6378 154.605 71.1146 154.605 68.8774V49.4566C154.605 47.267 153.605 45.7438 151.035 45.7438H148.417V72.6854H151.035V72.6378Z" fill="white"/>
<path d="M181.689 40.6506V68.7346C181.689 74.4942 179.214 78.207 172.883 78.207C166.314 78.207 163.601 74.4942 163.601 68.7346V40.6506H169.837V69.3058C169.837 71.4954 170.694 72.971 172.883 72.971C175.073 72.971 175.93 71.4954 175.93 69.3058V40.6506H181.689Z" fill="white"/>
<path d="M184.117 69.7342V64.7362H189.924V69.8294C189.924 71.9238 190.876 73.1138 192.97 73.1138C194.922 73.1138 195.826 71.781 195.826 69.8294V68.4014C195.826 66.2594 194.97 64.9742 193.018 63.1654L189.353 59.5002C185.783 56.0254 184.164 53.8834 184.164 49.5994V48.3142C184.164 43.697 186.83 40.1746 192.923 40.1746C199.158 40.1746 201.634 43.221 201.634 48.5998V51.5986H195.922V48.3618C195.922 46.2198 194.922 45.1726 192.97 45.1726C191.209 45.1726 190.019 46.1722 190.019 48.219V48.9806C190.019 51.075 191.162 52.265 192.97 54.0262L196.969 57.977C200.348 61.4042 202.014 63.4986 202.014 67.5922V69.401C202.014 74.4942 199.254 78.1118 192.923 78.1118C186.592 78.1118 184.117 74.637 184.117 69.7342Z" fill="white"/>
<path d="M202.395 40.6506H218.96V45.7438H213.819V77.731H207.536V45.7438H202.395V40.6506Z" fill="white"/>
<path d="M227.29 60.7378V77.7786H221.054V40.6506H230.146C236.429 40.6506 238.714 43.7922 238.714 48.9806V53.7406C238.714 57.739 237.286 60.0714 233.716 60.9282L239.666 77.7786H233.097L227.29 60.7378ZM227.29 45.7438V57.263H229.384C231.526 57.263 232.431 56.1682 232.431 54.2166V48.7426C232.431 46.6958 231.479 45.7438 229.384 45.7438H227.29Z" fill="white"/>
<path d="M252.09 63.6414V77.7786H245.854V63.6414L238.904 40.6506H245.426L249.186 54.6926H249.234L252.994 40.603H258.944L252.09 63.6414Z" fill="white"/>
<path d="M264.323 72.257L261.134 80.6346H257.659L258.42 71.781H264.323V72.257Z" fill="white"/>
<path d="M271.986 40.6506H278.222V77.7786H271.986V40.6506Z" fill="white"/>
<path d="M286.266 54.407V77.731H281.03V40.603H287.171L293.882 61.8802V40.6506H299.071V77.7786H293.597L286.266 54.407Z" fill="white"/>
<path d="M307.068 54.407V77.731H301.832V40.603H307.972L314.684 61.8802V40.6506H319.872V77.7786H314.398L307.068 54.407Z" fill="white"/>
<path d="M322.585 68.1634V50.2182C322.585 44.411 325.441 40.2222 332.01 40.2222C338.579 40.2222 341.482 44.4586 341.482 50.2182V68.1634C341.482 73.923 338.626 78.1594 332.01 78.1594C325.394 78.1594 322.585 73.923 322.585 68.1634ZM335.247 69.163V49.2186C335.247 46.9814 334.247 45.4106 332.01 45.4106C329.773 45.4106 328.821 46.9814 328.821 49.2186V69.1154C328.821 71.3526 329.82 72.971 332.01 72.971C334.2 72.971 335.247 71.4002 335.247 69.163Z" fill="white"/>
<path d="M364.188 40.6506L357.143 77.7786H350.336L343.291 40.6506H349.622L353.906 66.545H353.954L358.333 40.6506H364.188Z" fill="white"/>
<path d="M362.236 77.731L369.233 40.603H376.373L383.418 77.731H376.992L375.85 70.9242H369.233L368.138 77.731H362.236ZM370.042 65.9738H375.04L372.565 51.075H372.518L370.042 65.9738Z" fill="white"/>
<path d="M381.704 40.6506H398.269V45.7438H393.128V77.731H386.845V45.7438H381.704V40.6506Z" fill="white"/>
<path d="M400.364 40.6506H406.599V77.7786H400.364V40.6506Z" fill="white"/>
<path d="M409.408 68.1634V50.2182C409.408 44.411 412.264 40.2222 418.832 40.2222C425.401 40.2222 428.305 44.4586 428.305 50.2182V68.1634C428.305 73.923 425.449 78.1594 418.832 78.1594C412.216 78.1594 409.408 73.923 409.408 68.1634ZM422.022 69.163V49.2186C422.022 46.9814 421.022 45.4106 418.785 45.4106C416.548 45.4106 415.596 46.9814 415.596 49.2186V69.1154C415.596 71.3526 416.595 72.971 418.785 72.971C420.974 72.971 422.022 71.4002 422.022 69.163Z" fill="white"/>
<path d="M436.254 54.407V77.731H431.018V40.603H437.158L443.87 61.8802V40.6506H449.058V77.7786H443.632L436.254 54.407Z" fill="white"/>
<path d="M111.384 134.899L118.381 97.8181H125.474L132.518 134.899H126.14L124.998 128.139H118.381L117.286 134.899H111.384ZM119.19 123.141H124.188L121.713 108.243H121.666L119.19 123.141Z" fill="white"/>
<path d="M140.087 111.622V134.946H134.851V97.8181H140.991L147.703 119.095V97.8181H152.891V134.899H147.417L140.087 111.622Z" fill="white"/>
<path d="M174.835 107.767V124.95C174.835 130.662 172.455 134.899 165.791 134.899H156.176V97.8181H165.791C172.502 97.8181 174.835 102.007 174.835 107.767ZM165.029 129.805C167.6 129.805 168.599 128.282 168.599 126.045V106.624C168.599 104.435 167.6 102.911 165.029 102.911H162.411V129.853L165.029 129.805Z" fill="white"/>
<path d="M183.593 97.8181H189.829V134.899H183.593V97.8181Z" fill="white"/>
<path d="M198.397 111.622V134.946H193.161V97.8181H199.301L206.013 119.095V97.8181H211.201V134.899H205.727L198.397 111.622Z" fill="white"/>
<path d="M214.486 97.8181H229.099V102.911H220.721V113.526H226.957V118.572H220.721V134.946H214.486V97.8181Z" fill="white"/>
<path d="M237.81 117.905V134.946H231.574V97.8657H240.666C246.949 97.8657 249.234 101.007 249.234 106.196V110.956C249.234 114.954 247.806 117.287 244.236 118.143L250.186 134.994H243.617L237.81 117.905ZM237.81 102.911V114.478H239.904C242.046 114.478 242.95 113.383 242.95 111.432V105.958C242.95 103.911 241.998 102.959 239.904 102.959H237.81V102.911Z" fill="white"/>
<path d="M251.376 134.899L258.373 97.8181H265.465L272.51 134.899H266.084L264.942 128.139H258.325L257.23 134.899H251.376ZM259.23 123.141H264.18L261.705 108.243H261.657L259.23 123.141Z" fill="white"/>
<path d="M273.986 126.949V121.951H279.793V127.044C279.793 129.139 280.745 130.329 282.839 130.329C284.791 130.329 285.695 128.996 285.695 127.044V125.616C285.695 123.474 284.838 122.189 282.887 120.38L279.222 116.715C275.652 113.193 274.033 111.098 274.033 106.814V105.577C274.033 100.96 276.699 97.4373 282.792 97.4373C289.027 97.4373 291.502 100.484 291.502 105.862V108.861H285.79V105.624C285.79 103.482 284.791 102.435 282.839 102.435C281.078 102.435 279.888 103.435 279.888 105.482V106.243C279.888 108.338 281.03 109.528 282.839 111.289L286.838 115.24C290.217 118.667 291.883 120.761 291.883 124.855V126.664C291.883 131.757 289.122 135.374 282.792 135.374C276.461 135.374 273.986 131.804 273.986 126.949Z" fill="white"/>
<path d="M293.359 97.8181H309.924V102.911H304.783V134.899H298.5V102.911H293.359V97.8181Z" fill="white"/>
<path d="M318.825 117.905V134.946H312.589V97.8657H321.681C327.964 97.8657 330.249 101.007 330.249 106.196V110.956C330.249 114.954 328.821 117.287 325.251 118.143L331.201 134.994H324.632L318.825 117.905ZM318.825 102.911V114.478H320.919C323.061 114.478 323.966 113.383 323.966 111.432V105.958C323.966 103.911 323.014 102.959 320.919 102.959H318.825V102.911Z" fill="white"/>
<path d="M351.478 97.8181V125.902C351.478 131.662 349.003 135.375 342.672 135.375C336.104 135.375 333.39 131.662 333.39 125.902V97.8181H339.626V126.473C339.626 128.663 340.483 130.139 342.672 130.139C344.862 130.139 345.719 128.663 345.719 126.473V97.8181H351.478Z" fill="white"/>
<path d="M354.763 125.331V107.386C354.763 101.578 357.524 97.3896 364.045 97.3896C370.947 97.3896 372.851 101.198 372.851 106.672V111.051H367.139V106.148C367.139 103.863 366.377 102.53 364.14 102.53C361.903 102.53 360.951 104.101 360.951 106.386V126.283C360.951 128.52 361.903 130.091 364.14 130.091C366.377 130.091 367.139 128.663 367.139 126.473V119.666H372.851V126.045C372.851 131.328 370.661 135.279 364.045 135.279C357.428 135.279 354.763 131.09 354.763 125.331Z" fill="white"/>
<path d="M373.898 97.8181H390.463V102.911H385.322V134.899H379.039V102.911H373.898V97.8181Z" fill="white"/>
<path d="M411.216 97.8181V125.902C411.216 131.662 408.741 135.375 402.41 135.375C395.842 135.375 393.128 131.662 393.128 125.902V97.8181H399.364V126.473C399.364 128.663 400.221 130.139 402.41 130.139C404.6 130.139 405.457 128.663 405.457 126.473V97.8181H411.216Z" fill="white"/>
<path d="M420.736 117.905V134.946H414.501V97.8657H423.592C429.876 97.8657 432.16 101.007 432.16 106.196V110.956C432.16 114.954 430.732 117.287 427.162 118.143L433.112 134.994H426.544L420.736 117.905ZM420.736 102.911V114.478H422.831C424.973 114.478 425.877 113.383 425.877 111.432V105.958C425.877 103.911 424.925 102.959 422.831 102.959H420.736V102.911Z" fill="white"/>
<path d="M435.302 97.8181H450.201V102.911H441.538V113.526H447.726V118.572H441.538V129.853H450.201V134.946H435.302V97.8181Z" fill="white"/>
</svg>
