<svg width="476" height="476" viewBox="0 0 476 476" fill="none" xmlns="http://www.w3.org/2000/svg">
<path d="M5 5H471V471H5V5Z" stroke="white" stroke-width="10"/>
<path d="M60.0712 39.9365V135.851H43.9348V62.4037H43.792L32.5108 74.1609H32.3204V57.3105L47.2192 39.9365H60.0712Z" fill="white"/>
<path d="M113.288 60.7375V69.0675C113.288 77.1119 108.909 82.4907 102.245 84.6327C110.289 86.4891 114.145 92.1535 114.145 100.912V115.049C114.145 128.33 107.052 136.993 90.7732 136.993C74.3512 136.993 68.544 127.663 68.544 113.098V100.531H83.3V114.24C83.3 119.904 85.2516 123.57 90.8208 123.57C95.7712 123.57 98.0084 120.047 98.0084 114.954V99.1031C98.0084 94.0099 95.7236 91.2967 90.1068 91.2967H83.3V78.9683H89.3928C94.6288 78.9683 98.0084 76.2551 98.0084 71.1619V60.8327C98.0084 55.5967 96.152 52.2171 91.0588 52.2171C85.9656 52.2171 84.1092 55.5967 84.1092 61.5467V71.3047H69.3532V62.8319C69.3532 48.6947 75.1604 38.7939 91.868 38.7939C106.767 38.7939 113.288 47.1239 113.288 60.7375Z" fill="white"/>
<path d="M412.74 297.976C400.173 280.412 343.482 210.154 238 210.154C132.518 210.154 75.8268 280.412 63.2604 297.976C62.7368 298.738 62.2608 299.404 61.88 299.928C62.2608 300.499 62.7368 301.118 63.2604 301.927C75.8268 319.539 132.518 389.749 238 389.749C343.482 389.749 400.173 319.491 412.74 301.927C413.311 301.165 413.739 300.499 414.072 299.928C413.739 299.404 413.263 298.738 412.74 297.976ZM179.214 254.565C180.166 253.184 183.308 249.186 183.688 248.71C184.498 247.663 186.116 247.425 187.258 247.234C188.401 247.044 189.876 247.663 190.067 248.472C190.257 249.281 189.638 252.566 189.067 253.137C187.544 254.755 183.498 256.992 181.261 256.659C179.547 256.421 178.881 255.088 179.214 254.565ZM175.406 262.086C175.596 261.895 175.739 261.705 175.787 261.657C177.12 260.134 179.738 259.801 181.594 259.515C183.45 259.23 185.878 260.134 186.164 261.324C186.449 262.514 181.594 264.751 180.69 265.608C178.167 267.94 174.168 272.7 171.884 273.224C171.265 273.367 170.551 273.319 169.98 273.034C171.455 269.226 173.264 265.56 175.406 262.086ZM214.866 343.053C213.438 348.67 211.772 350.669 210.344 352.478C208.916 354.287 203.68 356.572 200.348 356.286C197.016 356 196.54 347.147 196.54 342.53C196.54 340.959 194.303 345.624 193.113 336.104C192.352 330.011 188.448 336.722 188.163 332.676C187.877 328.63 185.926 329.44 183.879 326.869C181.832 324.299 179.262 327.107 176.406 328.392C173.55 329.678 174.74 330.344 170.694 329.059C170.598 329.011 170.551 329.011 170.456 328.964C166.6 319.92 164.648 310.209 164.648 300.356C164.648 297.881 164.791 295.453 165.029 293.026C165.172 292.788 165.315 292.55 165.505 292.359C169.408 287.742 169.313 286.695 169.313 286.695L173.597 285.219C173.597 285.219 180.452 286.266 185.64 288.218C189.924 289.789 196.588 293.406 200.491 291.836C203.3 290.693 205.537 289.122 205.251 286.79C204.918 283.839 202.633 283.125 199.825 285.124C198.778 285.838 196.588 280.697 194.827 280.935C193.066 281.173 196.969 287.028 195.493 287.266C194.018 287.504 191.066 281.221 190.543 280.174C190.019 279.126 187.734 276.604 185.688 278.555C181.356 282.696 174.311 282.411 172.883 283.458C168.599 286.695 167.457 282.411 167.552 279.793C167.742 279.222 167.885 278.603 168.076 277.984C169.504 276.461 174.502 275.937 176.263 277.08C178.167 278.365 179.547 276.746 180.261 275.985C180.975 275.223 180.737 273.986 180.261 272.986C179.785 271.986 181.213 271.225 182.213 270.939C183.212 270.654 186.497 268.369 187.782 267.607C189.067 266.846 195.874 266.036 198.92 267.56C201.396 268.892 204.49 268.274 206.251 266.084C207.726 264.323 209.535 262.8 211.582 261.657C212.629 261.181 208.964 257.706 205.918 261.467C202.871 265.227 201.348 265.56 199.92 265.56C198.492 265.56 190.019 263.466 188.972 260.753C187.925 258.04 191.638 256.088 194.732 254.565C197.826 253.042 206.441 253.089 208.631 252.613C213.105 251.661 218.77 249.376 221.626 251.328C224.482 253.28 209.678 256.612 214.533 259.277C216.247 260.229 224.101 254.755 226.814 253.375C233.145 250.138 220.674 249.043 222.292 242.427C224.101 234.954 207.012 237.857 198.492 238.476C232.669 216.628 278.079 226.576 299.928 260.753C304.354 267.655 307.544 275.223 309.495 283.172C309.543 284.315 309.4 285.457 309.114 286.6C308.448 289.265 303.402 291.502 300.499 287.266C299.737 286.171 296.596 283.22 296.691 288.313C296.786 293.406 301.641 293.93 296.929 296.976C292.216 300.023 291.36 299.309 289.218 300.07C287.076 300.832 284.934 306.068 285.457 308.876C285.981 311.685 292.692 319.348 287.694 319.015C286.504 318.92 277.746 312.922 276.318 309.067C274.795 305.021 273.129 301.022 271.939 297.976C270.749 294.93 267.655 294.168 265.037 295.929C262.419 297.69 265.751 299.499 263.894 303.307C262.038 307.115 260.658 310.542 257.944 307.401C250.757 299.166 240.332 303.212 238.714 294.073C237.81 289.122 233.573 289.598 230.003 286.79C226.433 283.982 224.434 282.506 223.815 284.505C223.292 286.266 235.049 295.596 235.906 297.976C237.143 301.546 232.383 304.64 228.908 305.497C225.434 306.354 223.91 303.545 220.483 299.975C217.056 296.405 215.58 293.882 215.342 296.691C215.009 300.737 218.579 306.687 222.054 308.876C225.005 310.78 228.337 311.59 227.385 314.684C226.433 317.778 227.385 316.016 224.053 319.301C220.721 322.585 220.102 323.68 220.34 328.25C220.578 332.819 219.388 333.105 218.674 336.913C217.96 340.721 216.294 337.436 214.866 343.053ZM293.692 313.732C296.167 313.541 299.88 316.968 298.404 318.254C296.929 319.539 293.264 319.063 291.407 317.635C289.551 316.207 292.597 313.827 293.692 313.732ZM290.55 311.494C289.741 311.209 289.075 310.447 288.456 308.638C287.837 306.83 289.36 305.782 290.836 306.544C292.312 307.306 294.311 309.543 294.311 310.733C294.311 311.923 291.36 311.78 290.55 311.494ZM258.135 311.352C256.707 312.637 252.994 312.161 251.09 310.733C249.186 309.305 252.28 306.925 253.375 306.83C255.85 306.592 259.563 310.019 258.135 311.352ZM228.147 325.917C227.147 327.583 224.386 339.912 222.53 338.484C220.674 337.056 223.292 324.156 223.815 323.156C226.719 317.873 233.002 318.158 228.147 325.917ZM238.143 373.803C231.146 373.803 224.196 372.803 217.484 370.852C216.39 369.995 216.056 368.519 216.58 367.282C218.865 361.332 225.624 359.047 230.955 358.523C242.855 357.381 258.516 366.234 260.991 364.806C263.466 363.378 268.512 356.81 275.89 357.095C280.935 357.286 280.888 358.142 282.601 358.761C269.892 368.567 254.232 373.85 238.143 373.803ZM289.979 352.43C289.17 352.24 288.408 351.954 287.694 351.574C283.696 349.527 284.172 352.811 282.173 352.05C280.174 351.288 284.41 346.718 278.46 350.622C272.51 354.525 274.176 350.003 271.558 343.482C268.94 336.96 274.509 329.487 279.174 327.774C285.552 325.489 289.503 325.013 292.502 324.251C301.308 322.062 303.212 316.826 304.783 320.015C305.068 320.586 305.354 321.205 305.64 321.728C306.354 323.252 306.734 324.87 306.734 326.536C303.069 336.246 297.31 345.1 289.979 352.43ZM310.066 315.35C308.115 314.826 299.832 303.402 306.354 295.929C307.448 294.692 304.164 291.074 305.068 290.979C308.638 290.693 310.542 292.93 311.494 296.12C311.59 297.548 311.637 298.928 311.637 300.404C311.59 305.449 311.114 310.447 310.066 315.35Z" fill="white"/>
<path d="M151.892 69.3056V50.0752C151.892 43.8872 154.795 39.3652 161.84 39.3652C169.218 39.3652 171.265 43.4588 171.265 49.3136V53.9784H165.172V48.7424C165.172 46.2672 164.363 44.8868 161.935 44.8868C159.508 44.8868 158.556 46.6004 158.556 48.9804V70.3052C158.556 72.6852 159.555 74.3988 161.935 74.3988C164.315 74.3988 165.172 72.8756 165.172 70.5432V63.2128H171.265V70.0672C171.265 75.7316 168.932 79.968 161.84 79.968C154.748 79.968 151.892 75.446 151.892 69.3056Z" fill="white"/>
<path d="M175.501 39.8413H182.165V74.1133H190.114V79.5397H175.501V39.8413Z" fill="white"/>
<path d="M193.78 39.8413H200.444V79.5397H193.78V39.8413Z" fill="white"/>
<path d="M223.815 53.7881H223.625L219.103 79.5397H216.009L211.058 53.7881H210.963V79.5397H205.442V39.8413H213.248L217.58 62.2133H217.627L221.483 39.8413H229.908V79.5397H223.815V53.7881Z" fill="white"/>
<path d="M233.24 79.5397L240.761 39.8413H248.377L255.945 79.5397H249.091L247.853 72.2569H240.761L239.571 79.5397H233.24ZM241.618 66.9733H246.949L244.331 51.0273H244.283L241.618 66.9733Z" fill="white"/>
<path d="M255.041 39.8413H272.796V45.2677H267.274V79.5397H260.515V45.2677H254.993V39.8413H255.041Z" fill="white"/>
<path d="M276.461 39.8413H292.407V45.2677H283.172V56.6441H289.789V62.0229H283.172V74.1133H292.454V79.5397H276.508V39.8413H276.461Z" fill="white"/>
<path d="M150.702 135.851L158.222 96.1521H165.838L173.407 135.851H166.552L165.315 128.568H158.222L157.032 135.851H150.702ZM159.079 123.284H164.41L161.792 107.338H161.745L159.079 123.284Z" fill="white"/>
<path d="M175.311 125.616V106.386C175.311 100.15 178.262 95.676 185.259 95.676C192.637 95.676 194.684 99.7696 194.684 105.624V110.289H188.591V105.101C188.591 102.626 187.782 101.245 185.354 101.245C182.927 101.245 181.975 102.959 181.975 105.339V126.664C181.975 129.044 182.974 130.757 185.354 130.757C187.734 130.757 188.591 129.234 188.591 126.902V119.571H194.684V126.426C194.684 132.09 192.352 136.326 185.259 136.326C178.167 136.326 175.311 131.757 175.311 125.616Z" fill="white"/>
<path d="M197.064 96.1521H214.819V101.578H209.297V135.851H202.538V101.578H197.064V96.1521Z" fill="white"/>
<path d="M218.484 96.1521H225.148V135.851H218.484V96.1521Z" fill="white"/>
<path d="M229.622 125.616V106.386C229.622 100.15 232.669 95.676 239.714 95.676C246.758 95.676 249.852 100.198 249.852 106.386V125.616C249.852 131.757 246.806 136.326 239.714 136.326C232.621 136.326 229.622 131.757 229.622 125.616ZM243.141 126.664V105.339C243.141 102.959 242.094 101.245 239.666 101.245C237.238 101.245 236.286 102.959 236.286 105.339V126.664C236.286 129.044 237.334 130.757 239.666 130.757C241.998 130.757 243.141 129.044 243.141 126.664Z" fill="white"/>
<path d="M259.848 110.908V135.851H254.184V96.1521H260.753L267.988 118.953V96.1521H273.557V135.851H267.702L259.848 110.908Z" fill="white"/>
</svg>
