<svg width="476" height="476" viewBox="0 0 476 476" fill="none" xmlns="http://www.w3.org/2000/svg">
<path d="M5 5H471V471H5V5Z" stroke="white" stroke-width="10"/>
<path d="M92.4868 112.384V101.912C92.4868 92.7248 89.25 86.0608 81.7292 82.6812C88.1076 79.5872 91.0588 73.9228 91.0588 65.9736V62.0228C91.0588 47.0288 83.2524 38.9368 68.4012 38.9368C53.6928 38.9368 46.0292 47.0288 46.0292 62.0228V65.9736C46.0292 73.78 48.8852 79.5872 55.0732 82.6812C47.5524 86.0608 44.4584 92.7248 44.4584 101.912V112.384C44.4584 126.949 51.408 137.136 68.4012 137.136C85.5372 137.136 92.4868 126.949 92.4868 112.384ZM61.166 60.9756C61.166 55.1684 63.1652 51.7888 68.4012 51.7888C73.78 51.7888 75.7792 55.1684 75.7792 60.9756V67.4968C75.7792 73.304 73.78 76.7312 68.4012 76.7312C63.1652 76.7312 61.166 73.304 61.166 67.4968V60.9756ZM76.3504 114.05C76.3504 119.857 74.2084 123.95 68.4488 123.95C62.7844 123.95 60.6424 119.857 60.6424 114.05V98.4844C60.6424 92.6772 62.7844 88.5836 68.4488 88.5836C74.256 88.5836 76.3504 92.6772 76.3504 98.4844V114.05Z" fill="white"/>
<path d="M330.439 234.192L282.078 280.221C280.269 282.03 279.317 283.363 279.317 287.123V416.119C279.317 417.642 280.554 418.88 282.078 418.88H332.058C333.581 418.88 334.818 417.642 334.818 416.119V235.334C334.771 233.811 333.581 231.05 330.439 234.192Z" fill="white"/>
<path d="M191.019 294.168L142.657 340.15C140.848 341.958 139.896 343.291 139.896 347.052V416.072C139.896 417.595 141.134 418.832 142.657 418.832H192.637C194.16 418.832 195.398 417.595 195.398 416.072V295.31C195.398 293.787 194.208 290.979 191.019 294.168Z" fill="white"/>
<path d="M352.43 178.357C352.43 177.976 352.288 177.596 352.002 177.31C351.764 177.072 351.431 176.929 351.098 176.929H350.812H350.431L313.398 185.307L312.732 185.354C312.446 185.402 312.208 185.545 312.018 185.735C311.494 186.306 311.494 187.163 312.018 187.734L312.446 188.163L320.919 196.636L236.953 280.602L198.159 241.808C197.73 241.38 197.016 241.38 196.588 241.808L186.068 252.328L123.903 314.493C123.474 314.922 123.474 315.636 123.903 316.064L134.422 326.584C134.851 327.012 135.565 327.012 135.993 326.584L197.397 265.227L225.529 293.359C225.576 293.406 225.576 293.454 225.624 293.502L236.144 304.021C236.572 304.45 237.286 304.45 237.714 304.021L332.962 208.726L341.863 217.58C342.387 218.103 343.291 218.151 343.815 217.58C344.053 217.342 344.196 217.008 344.196 216.675V216.58L352.335 178.786L352.43 178.357Z" fill="white"/>
<path d="M260.991 302.212L237.572 325.822C237.143 326.203 236.477 326.155 236.048 325.774L214.866 304.164C210.963 300.308 210.154 303.45 210.154 304.973V416.119C210.154 417.642 211.392 418.88 212.915 418.88H262.895C264.418 418.88 265.656 417.642 265.656 416.119V303.117C265.608 301.594 264.418 298.785 260.991 302.212Z" fill="white"/>
<path d="M147.465 50.2657V68.2585C147.465 74.2085 144.99 78.6829 137.992 78.6829H127.901V39.8413H137.992C144.99 39.8413 147.465 44.2681 147.465 50.2657ZM137.183 73.3993C139.896 73.3993 140.896 71.7809 140.896 69.4485V49.0757C140.896 46.7909 139.849 45.1725 137.183 45.1725H134.422V73.3993H137.183Z" fill="white"/>
<path d="M151.606 39.8413H167.219V45.1725H158.175V56.3109H164.648V61.5945H158.127V73.3993H167.171V78.7305H151.606V39.8413V39.8413Z" fill="white"/>
<path d="M170.551 68.6868V49.8848C170.551 43.792 173.407 39.3652 180.309 39.3652C187.544 39.3652 189.543 43.3636 189.543 49.1232V53.6928H183.593V48.5996C183.593 46.172 182.784 44.7916 180.452 44.7916C178.119 44.7916 177.12 46.4576 177.12 48.79V69.6864C177.12 72.0188 178.072 73.6848 180.452 73.6848C182.832 73.6848 183.593 72.2092 183.593 69.8768V62.7368H189.543V69.496C189.543 75.0652 187.258 79.2064 180.309 79.2064C173.359 79.2064 170.551 74.732 170.551 68.6868Z" fill="white"/>
<path d="M193.494 39.8413H209.107V45.1725H200.063V56.3109H206.536V61.5945H200.015V73.3993H209.059V78.7305H193.494V39.8413V39.8413Z" fill="white"/>
<path d="M218.484 54.2641V78.6829H213.01V39.8413H219.436L226.481 62.1657V39.8413H231.955V78.7305H226.195L218.484 54.2641Z" fill="white"/>
<path d="M235.334 39.8413H252.708V45.1725H247.33V78.7305H240.713V45.1725H235.334V39.8413V39.8413Z" fill="white"/>
<path d="M276.699 54.6925L273.034 78.7305H266.893L261.657 39.8413H267.988L271.034 64.4981H271.082L274.366 39.8413H279.698L283.315 64.4981H283.363L286.362 39.8413H291.883L286.79 78.7305H280.602L276.746 54.6925H276.699Z" fill="white"/>
<path d="M294.501 68.6868V49.8848C294.501 43.792 297.5 39.3652 304.354 39.3652C311.209 39.3652 314.255 43.792 314.255 49.8848V68.6868C314.255 74.732 311.256 79.2064 304.354 79.2064C297.452 79.2064 294.501 74.732 294.501 68.6868ZM307.734 69.734V48.8376C307.734 46.5052 306.687 44.8392 304.354 44.8392C302.022 44.8392 301.022 46.5052 301.022 48.8376V69.734C301.022 72.0664 302.07 73.7324 304.354 73.7324C306.639 73.7324 307.734 72.0664 307.734 69.734Z" fill="white"/>
<path d="M324.965 60.8805V78.7305H318.444V39.8413H327.964C334.58 39.8413 336.96 43.1257 336.96 48.5521V53.5501C336.96 57.7389 335.485 60.2141 331.724 61.0709L338.008 78.7305H331.153L324.965 60.8805ZM324.965 45.1725V57.2629H327.155C329.392 57.2629 330.392 56.1205 330.392 54.0261V48.3141C330.392 46.1721 329.44 45.1725 327.155 45.1725H324.965Z" fill="white"/>
<path d="M347.432 59.7857V78.7305H340.911V39.8413H347.432V56.9297L354.572 39.8413H360.998L353.43 57.3581L361.189 78.7781H354.287L347.432 59.7857Z" fill="white"/>
<path d="M370.28 78.7305L377.611 39.8413H385.084L392.51 78.7305H385.798L384.608 71.6381H377.658L376.516 78.7305H370.28ZM378.468 66.4021H383.704L381.133 50.7893H381.086L378.468 66.4021Z" fill="white"/>
<path d="M400.173 54.2641V78.6829H394.652V39.8413H401.078L408.122 62.1657V39.8413H413.596V78.7305H407.837L400.173 54.2641Z" fill="white"/>
<path d="M437.492 50.2657V68.2585C437.492 74.2085 435.016 78.6829 428.019 78.6829H417.928V39.8413H428.019C435.016 39.8413 437.492 44.2681 437.492 50.2657ZM427.21 73.3993C429.923 73.3993 430.923 71.7809 430.923 69.4485V49.0757C430.923 46.7909 429.876 45.1725 427.21 45.1725H424.449V73.3993H427.21Z" fill="white"/>
<path d="M127.901 96.9612H143.514V102.292H134.422V113.431H140.896V118.714H134.422V130.519H143.466V135.85H127.854V96.9612H127.901Z" fill="white"/>
<path d="M146.37 125.807V107.005C146.37 100.912 149.226 96.4851 156.128 96.4851C163.363 96.4851 165.362 100.484 165.362 106.243V110.813H159.412V105.72C159.412 103.292 158.603 101.912 156.271 101.912C153.938 101.912 152.939 103.578 152.939 105.91V126.806C152.939 129.139 153.891 130.805 156.271 130.805C158.651 130.805 159.412 129.329 159.412 126.997V119.857H165.362V126.616C165.362 132.185 163.078 136.326 156.128 136.326C149.178 136.326 146.37 131.852 146.37 125.807Z" fill="white"/>
<path d="M168.932 125.807V107.005C168.932 100.912 171.931 96.4851 178.786 96.4851C185.64 96.4851 188.734 100.912 188.734 107.005V125.807C188.734 131.852 185.735 136.326 178.786 136.326C171.836 136.326 168.932 131.852 168.932 125.807ZM182.165 126.854V105.958C182.165 103.625 181.118 101.959 178.786 101.959C176.453 101.959 175.454 103.625 175.454 105.958V126.854C175.454 129.186 176.501 130.852 178.786 130.852C181.07 130.852 182.165 129.234 182.165 126.854Z" fill="white"/>
<path d="M197.968 111.432V135.898H192.447V97.0088H198.873L205.918 119.333V97.0088H211.392V135.898H205.632L197.968 111.432Z" fill="white"/>
<path d="M215.104 125.807V107.005C215.104 100.912 218.103 96.4851 224.958 96.4851C231.812 96.4851 234.906 100.912 234.906 107.005V125.807C234.906 131.852 231.907 136.326 224.958 136.326C218.008 136.326 215.104 131.852 215.104 125.807ZM228.385 126.854V105.958C228.385 103.625 227.338 101.959 225.005 101.959C222.673 101.959 221.673 103.625 221.673 105.958V126.854C221.673 129.186 222.72 130.852 225.005 130.852C227.29 130.852 228.385 129.234 228.385 126.854Z" fill="white"/>
<path d="M256.659 110.622H256.469L252.042 135.85H248.996L244.14 110.622H244.045V135.85H238.666V96.9612H246.282L250.519 118.857H250.566L254.374 96.9612H262.657V135.85H256.707V110.622H256.659Z" fill="white"/>
<path d="M266.37 96.9612H272.891V135.85H266.37V96.9612Z" fill="white"/>
<path d="M276.556 125.807V107.005C276.556 100.912 279.412 96.4851 286.314 96.4851C293.549 96.4851 295.548 100.484 295.548 106.243V110.813H289.598V105.72C289.598 103.292 288.789 101.912 286.457 101.912C284.124 101.912 283.125 103.578 283.125 105.91V126.806C283.125 129.139 284.077 130.805 286.457 130.805C288.837 130.805 289.598 129.329 289.598 126.997V119.857H295.548V126.616C295.548 132.185 293.264 136.326 286.314 136.326C279.364 136.326 276.556 131.852 276.556 125.807Z" fill="white"/>
<path d="M316.588 115.097H325.87V135.85H321.157V131.614C320.3 134.518 318.444 136.326 314.922 136.326C309.305 136.326 306.734 131.852 306.734 125.807V107.005C306.734 100.912 309.638 96.4851 316.54 96.4851C323.775 96.4851 325.917 100.484 325.917 106.243V109.67H319.872V105.72C319.872 103.292 318.968 101.912 316.588 101.912C314.208 101.912 313.208 103.578 313.208 105.91V126.806C313.208 129.139 314.16 130.805 316.445 130.805C318.587 130.805 319.682 129.615 319.682 127.092V120.238H316.588V115.097V115.097Z" fill="white"/>
<path d="M336.151 118.048V135.898H329.582V96.9612H339.102C345.719 96.9612 348.099 100.246 348.099 105.672V110.67C348.099 114.859 346.623 117.334 342.863 118.191L349.146 135.85H342.292L336.151 118.048ZM336.151 102.34V114.43H338.341C340.578 114.43 341.578 113.288 341.578 111.194V105.434C341.578 103.292 340.626 102.292 338.341 102.292L336.151 102.34Z" fill="white"/>
<path d="M351.098 125.807V107.005C351.098 100.912 354.096 96.4851 360.951 96.4851C367.805 96.4851 370.852 100.912 370.852 107.005V125.807C370.852 131.852 367.853 136.326 360.951 136.326C354.049 136.326 351.098 131.852 351.098 125.807ZM364.378 126.854V105.958C364.378 103.625 363.331 101.959 360.998 101.959C358.666 101.959 357.666 103.625 357.666 105.958V126.854C357.666 129.186 358.714 130.852 360.998 130.852C363.283 130.852 364.378 129.234 364.378 126.854Z" fill="white"/>
<path d="M387.654 111.812L383.989 135.85H377.849L372.613 96.9612H378.944L381.99 121.618H382.038L385.322 96.9612H390.653L394.271 121.618H394.318L397.317 96.9612H402.839L397.793 135.85H391.605L387.75 111.812H387.654Z" fill="white"/>
<path d="M404.838 96.9612H422.212V102.292H416.833V135.85H410.217V102.292H404.838V96.9612V96.9612Z" fill="white"/>
<path d="M437.063 118.714H430.78V135.85H424.211V96.9612H430.78V113.431H437.111V96.9612H443.727V135.85H437.111V118.714H437.063Z" fill="white"/>
</svg>
